M48
; DRILL file {KiCad (5.1.2-1)-1} date Saturday, 08 June 2019 at 02:48:08
; FORMAT={3:3/ absolute / metric / suppress leading zeros}
; #@! TF.CreationDate,2019-06-08T02:48:08+01:00
; #@! TF.GenerationSoftware,Kicad,Pcbnew,(5.1.2-1)-1
FMAT,2
METRIC,TZ
T1C0.300
T2C0.700
T3C0.762
T4C0.800
T5C1.000
%
G90
G05
T1
X104183Y-130104
X117235Y-95073
X150989Y-105864
X156590Y-119409
X161913Y-111468
X163531Y-112268
X164899Y-111330
X165750Y-96765
X166304Y-109821
X167553Y-101030
X168650Y-94462
X168786Y-111287
X170107Y-109621
X170856Y-125349
X171596Y-112684
X172403Y-125951
X176112Y-89154
X179624Y-108053
X185923Y-123766
X188589Y-107143
X199463Y-104398
T2
X187833Y-130175
X192913Y-130175
X187833Y-127000
X192913Y-127000
X187833Y-123825
X192913Y-123825
T3
X86995Y-90170
X86995Y-115570
X89535Y-90170
X89535Y-115570
X92075Y-90170
X92075Y-115570
X94615Y-90170
X94615Y-115570
X97155Y-90170
X97155Y-115570
X99695Y-90170
X99695Y-115570
X102235Y-90170
X102235Y-115570
X104775Y-90170
X104775Y-115570
X107315Y-90170
X107315Y-115570
X109855Y-90170
X109855Y-115570
X112395Y-90170
X112395Y-115570
X114935Y-90170
X114935Y-115570
X117475Y-90170
X117475Y-115570
X120015Y-90170
X120015Y-115570
X122555Y-90170
X122555Y-115570
X125095Y-90170
X125095Y-115570
X127635Y-90170
X127635Y-115570
X130175Y-90170
X130175Y-115570
X132715Y-90170
X132715Y-115570
X135255Y-90170
X135255Y-115570
X137795Y-90170
X137795Y-115570
X140335Y-90170
X140335Y-115570
X142875Y-90170
X142875Y-115570
X145415Y-90170
X145415Y-115570
X147955Y-90170
X147955Y-115570
X150495Y-90170
X150495Y-115570
X153035Y-90170
X153035Y-115570
X155575Y-90170
X155575Y-115570
X158115Y-90170
X158115Y-115570
X160655Y-90170
X160655Y-115570
X163195Y-90170
X163195Y-115570
X165735Y-90170
X165735Y-115570
T4
X156210Y-120770
X156210Y-128270
X86995Y-120770
X86995Y-128270
X137160Y-120650
X137160Y-128270
X139700Y-120650
X139700Y-128270
X142240Y-120650
X142240Y-128270
X144780Y-120650
X144780Y-128270
X147320Y-120650
X147320Y-128270
X149860Y-120650
X149860Y-128270
X152400Y-120650
X152400Y-128270
X158750Y-132835
X158750Y-140335
X133985Y-120770
X133985Y-128270
X137160Y-132715
X137160Y-140335
X139700Y-132715
X139700Y-140335
X142240Y-132715
X142240Y-140335
X144780Y-132715
X144780Y-140335
X147320Y-132715
X147320Y-140335
X149860Y-132715
X149860Y-140335
X152400Y-132715
X152400Y-140335
X154940Y-132715
X154940Y-140335
X159385Y-120650
X159385Y-128270
X161925Y-120650
X161925Y-128270
X164465Y-120650
X164465Y-128270
X167005Y-120650
X167005Y-128270
X169545Y-120650
X169545Y-128270
X172085Y-120650
X172085Y-128270
X174625Y-120650
X174625Y-128270
X90170Y-132715
X90170Y-140335
X92710Y-132715
X92710Y-140335
X95250Y-132715
X95250Y-140335
X97790Y-132715
X97790Y-140335
X100330Y-132715
X100330Y-140335
X102870Y-132715
X102870Y-140335
X105410Y-132715
X105410Y-140335
X195573Y-130175
X203073Y-130175
X109220Y-132835
X109220Y-140335
X195573Y-123825
X203073Y-123825
X114935Y-120650
X114935Y-128270
X117475Y-120650
X117475Y-128270
X120015Y-120650
X120015Y-128270
X122555Y-120650
X122555Y-128270
X125095Y-120650
X125095Y-128270
X127635Y-120650
X127635Y-128270
X130175Y-120650
X130175Y-128270
X195580Y-120650
X203080Y-120650
X185420Y-120650
X192920Y-120650
X111760Y-120770
X111760Y-128270
X175260Y-92710
X175260Y-95250
X175260Y-97790
X175260Y-100330
X175260Y-102870
X175260Y-105410
X175260Y-107950
X175260Y-110490
X175260Y-113030
X177800Y-90170
X177800Y-92710
X177800Y-95250
X177800Y-97790
X177800Y-100330
X177800Y-102870
X177800Y-105410
X177800Y-107950
X177800Y-110490
X177800Y-113030
X177800Y-115570
X180340Y-90170
X180340Y-92710
X180340Y-113030
X180340Y-115570
X182880Y-90170
X182880Y-92710
X182880Y-113030
X182880Y-115570
X185420Y-90170
X185420Y-92710
X185420Y-113030
X185420Y-115570
X187960Y-90170
X187960Y-92710
X187960Y-113030
X187960Y-115570
X190500Y-90170
X190500Y-92710
X190500Y-113030
X190500Y-115570
X193040Y-90170
X193040Y-92710
X193040Y-113030
X193040Y-115570
X195580Y-90170
X195580Y-92710
X195580Y-113030
X195580Y-115570
X198120Y-90170
X198120Y-92710
X198120Y-95250
X198120Y-97790
X198120Y-100330
X198120Y-102870
X198120Y-105410
X198120Y-107950
X198120Y-110490
X198120Y-113030
X198120Y-115570
X200660Y-92710
X200660Y-95250
X200660Y-97790
X200660Y-100330
X200660Y-102870
X200660Y-105410
X200660Y-107950
X200660Y-110490
X200660Y-113030
X90170Y-120650
X90170Y-128270
X92710Y-120650
X92710Y-128270
X95250Y-120650
X95250Y-128270
X97790Y-120650
X97790Y-128270
X100330Y-120650
X100330Y-128270
X102870Y-120650
X102870Y-128270
X105410Y-120650
X105410Y-128270
X107950Y-120650
X107950Y-128270
X112395Y-132715
X112395Y-140335
X114935Y-132715
X114935Y-140335
X117475Y-132715
X117475Y-140335
X120015Y-132715
X120015Y-140335
X122555Y-132715
X122555Y-140335
X125095Y-132715
X125095Y-140335
X127635Y-132715
X127635Y-140335
X130175Y-132715
X130175Y-140335
X161925Y-132715
X161925Y-140335
X164465Y-132715
X164465Y-140335
X167005Y-132715
X167005Y-140335
X169545Y-132715
X169545Y-140335
X172085Y-132715
X172085Y-140335
X174625Y-132715
X174625Y-140335
X177165Y-132715
X177165Y-140335
X86995Y-132835
X86995Y-140335
X133985Y-132835
X133985Y-140335
T5
X187833Y-133985
X190373Y-133985
X192913Y-133985
T0
M30
