G04 #@! TF.GenerationSoftware,KiCad,Pcbnew,(5.1.2-1)-1*
G04 #@! TF.CreationDate,2019-05-26T23:10:56+01:00*
G04 #@! TF.ProjectId,A500 14Mhz Accelerator,41353030-2031-4344-9d68-7a2041636365,rev?*
G04 #@! TF.SameCoordinates,Original*
G04 #@! TF.FileFunction,Copper,L1,Top*
G04 #@! TF.FilePolarity,Positive*
%FSLAX46Y46*%
G04 Gerber Fmt 4.6, Leading zero omitted, Abs format (unit mm)*
G04 Created by KiCad (PCBNEW (5.1.2-1)-1) date 2019-05-26 23:10:56*
%MOMM*%
%LPD*%
G04 APERTURE LIST*
%ADD10O,1.600000X2.400000*%
%ADD11R,1.600000X2.400000*%
%ADD12O,1.600000X1.600000*%
%ADD13C,1.600000*%
%ADD14C,1.400000*%
%ADD15O,1.400000X1.400000*%
%ADD16R,1.700000X1.700000*%
%ADD17O,1.700000X1.700000*%
%ADD18C,1.422400*%
%ADD19R,1.422400X1.422400*%
%ADD20C,0.800000*%
%ADD21C,0.250000*%
G04 APERTURE END LIST*
D10*
X165735000Y-115570000D03*
X163195000Y-115570000D03*
X160655000Y-115570000D03*
X158115000Y-115570000D03*
X155575000Y-115570000D03*
X153035000Y-115570000D03*
X150495000Y-115570000D03*
X147955000Y-115570000D03*
X145415000Y-115570000D03*
X142875000Y-115570000D03*
X140335000Y-115570000D03*
X137795000Y-115570000D03*
X135255000Y-115570000D03*
X132715000Y-115570000D03*
X130175000Y-115570000D03*
X127635000Y-115570000D03*
X125095000Y-115570000D03*
X122555000Y-115570000D03*
X120015000Y-115570000D03*
X117475000Y-115570000D03*
X114935000Y-115570000D03*
X112395000Y-115570000D03*
X109855000Y-115570000D03*
X107315000Y-115570000D03*
X104775000Y-115570000D03*
X102235000Y-115570000D03*
X99695000Y-115570000D03*
X97155000Y-115570000D03*
X94615000Y-115570000D03*
X92075000Y-115570000D03*
X89535000Y-115570000D03*
X86995000Y-115570000D03*
X86995000Y-90170000D03*
X89535000Y-90170000D03*
X92075000Y-90170000D03*
X94615000Y-90170000D03*
X97155000Y-90170000D03*
X99695000Y-90170000D03*
X102235000Y-90170000D03*
X104775000Y-90170000D03*
X107315000Y-90170000D03*
X109855000Y-90170000D03*
X112395000Y-90170000D03*
X114935000Y-90170000D03*
X117475000Y-90170000D03*
X120015000Y-90170000D03*
X122555000Y-90170000D03*
X125095000Y-90170000D03*
X127635000Y-90170000D03*
X130175000Y-90170000D03*
X132715000Y-90170000D03*
X135255000Y-90170000D03*
X137795000Y-90170000D03*
X140335000Y-90170000D03*
X142875000Y-90170000D03*
X145415000Y-90170000D03*
X147955000Y-90170000D03*
X150495000Y-90170000D03*
X153035000Y-90170000D03*
X155575000Y-90170000D03*
X158115000Y-90170000D03*
X160655000Y-90170000D03*
X163195000Y-90170000D03*
D11*
X165735000Y-90170000D03*
D12*
X194825000Y-121920000D03*
D13*
X187325000Y-121920000D03*
X187325000Y-125095000D03*
D12*
X194825000Y-125095000D03*
X194825000Y-128270000D03*
D13*
X187325000Y-128270000D03*
D14*
X174625000Y-121920000D03*
D15*
X179705000Y-121920000D03*
X179705000Y-124460000D03*
D14*
X174625000Y-124460000D03*
X174625000Y-127000000D03*
D15*
X179705000Y-127000000D03*
D11*
X168275000Y-119380000D03*
D10*
X153035000Y-127000000D03*
X165735000Y-119380000D03*
X155575000Y-127000000D03*
X163195000Y-119380000D03*
X158115000Y-127000000D03*
X160655000Y-119380000D03*
X160655000Y-127000000D03*
X158115000Y-119380000D03*
X163195000Y-127000000D03*
X155575000Y-119380000D03*
X165735000Y-127000000D03*
X153035000Y-119380000D03*
X168275000Y-127000000D03*
X145415000Y-127000000D03*
X130175000Y-119380000D03*
X142875000Y-127000000D03*
X132715000Y-119380000D03*
X140335000Y-127000000D03*
X135255000Y-119380000D03*
X137795000Y-127000000D03*
X137795000Y-119380000D03*
X135255000Y-127000000D03*
X140335000Y-119380000D03*
X132715000Y-127000000D03*
X142875000Y-119380000D03*
X130175000Y-127000000D03*
D11*
X145415000Y-119380000D03*
X125095000Y-119380000D03*
D10*
X109855000Y-127000000D03*
X122555000Y-119380000D03*
X112395000Y-127000000D03*
X120015000Y-119380000D03*
X114935000Y-127000000D03*
X117475000Y-119380000D03*
X117475000Y-127000000D03*
X114935000Y-119380000D03*
X120015000Y-127000000D03*
X112395000Y-119380000D03*
X122555000Y-127000000D03*
X109855000Y-119380000D03*
X125095000Y-127000000D03*
D11*
X104775000Y-119380000D03*
D10*
X86995000Y-127000000D03*
X102235000Y-119380000D03*
X89535000Y-127000000D03*
X99695000Y-119380000D03*
X92075000Y-127000000D03*
X97155000Y-119380000D03*
X94615000Y-127000000D03*
X94615000Y-119380000D03*
X97155000Y-127000000D03*
X92075000Y-119380000D03*
X99695000Y-127000000D03*
X89535000Y-119380000D03*
X102235000Y-127000000D03*
X86995000Y-119380000D03*
X104775000Y-127000000D03*
X168275000Y-139065000D03*
X153035000Y-131445000D03*
X165735000Y-139065000D03*
X155575000Y-131445000D03*
X163195000Y-139065000D03*
X158115000Y-131445000D03*
X160655000Y-139065000D03*
X160655000Y-131445000D03*
X158115000Y-139065000D03*
X163195000Y-131445000D03*
X155575000Y-139065000D03*
X165735000Y-131445000D03*
X153035000Y-139065000D03*
D11*
X168275000Y-131445000D03*
D16*
X201295000Y-127000000D03*
D17*
X201295000Y-124460000D03*
X201295000Y-121920000D03*
D11*
X147955000Y-131445000D03*
D10*
X130175000Y-139065000D03*
X145415000Y-131445000D03*
X132715000Y-139065000D03*
X142875000Y-131445000D03*
X135255000Y-139065000D03*
X140335000Y-131445000D03*
X137795000Y-139065000D03*
X137795000Y-131445000D03*
X140335000Y-139065000D03*
X135255000Y-131445000D03*
X142875000Y-139065000D03*
X132715000Y-131445000D03*
X145415000Y-139065000D03*
X130175000Y-131445000D03*
X147955000Y-139065000D03*
D11*
X125095000Y-131445000D03*
D10*
X107315000Y-139065000D03*
X122555000Y-131445000D03*
X109855000Y-139065000D03*
X120015000Y-131445000D03*
X112395000Y-139065000D03*
X117475000Y-131445000D03*
X114935000Y-139065000D03*
X114935000Y-131445000D03*
X117475000Y-139065000D03*
X112395000Y-131445000D03*
X120015000Y-139065000D03*
X109855000Y-131445000D03*
X122555000Y-139065000D03*
X107315000Y-131445000D03*
X125095000Y-139065000D03*
D11*
X102235000Y-131445000D03*
D10*
X86995000Y-139065000D03*
X99695000Y-131445000D03*
X89535000Y-139065000D03*
X97155000Y-131445000D03*
X92075000Y-139065000D03*
X94615000Y-131445000D03*
X94615000Y-139065000D03*
X92075000Y-131445000D03*
X97155000Y-139065000D03*
X89535000Y-131445000D03*
X99695000Y-139065000D03*
X86995000Y-131445000D03*
X102235000Y-139065000D03*
D18*
X187325000Y-94615000D03*
X184785000Y-94615000D03*
X182245000Y-94615000D03*
X179705000Y-94615000D03*
X189865000Y-94615000D03*
X192405000Y-94615000D03*
X194945000Y-94615000D03*
X197485000Y-94615000D03*
D19*
X187325000Y-92075000D03*
D18*
X184785000Y-92075000D03*
X182245000Y-92075000D03*
X179705000Y-92075000D03*
X177165000Y-92075000D03*
X189865000Y-92075000D03*
X192405000Y-92075000D03*
X194945000Y-92075000D03*
X177165000Y-94615000D03*
X177165000Y-97155000D03*
X177165000Y-99695000D03*
X177165000Y-102235000D03*
X177165000Y-104775000D03*
X177165000Y-107315000D03*
X177165000Y-109855000D03*
X177165000Y-112395000D03*
X174625000Y-94615000D03*
X174625000Y-97155000D03*
X174625000Y-99695000D03*
X174625000Y-102235000D03*
X174625000Y-104775000D03*
X174625000Y-107315000D03*
X174625000Y-109855000D03*
X174625000Y-112395000D03*
X174625000Y-114935000D03*
X177165000Y-114935000D03*
X179705000Y-114935000D03*
X182245000Y-114935000D03*
X184785000Y-114935000D03*
X187325000Y-114935000D03*
X189865000Y-114935000D03*
X192405000Y-114935000D03*
X194945000Y-114935000D03*
X200025000Y-114935000D03*
X177165000Y-117475000D03*
X179705000Y-117475000D03*
X182245000Y-117475000D03*
X184785000Y-117475000D03*
X187325000Y-117475000D03*
X189865000Y-117475000D03*
X192405000Y-117475000D03*
X194945000Y-117475000D03*
X197485000Y-117475000D03*
X197485000Y-114935000D03*
X197485000Y-112395000D03*
X197485000Y-109855000D03*
X197485000Y-107315000D03*
X197485000Y-104775000D03*
X197485000Y-102235000D03*
X197485000Y-99695000D03*
X197485000Y-97155000D03*
X197485000Y-92075000D03*
X200025000Y-112395000D03*
X200025000Y-109855000D03*
X200025000Y-107315000D03*
X200025000Y-104775000D03*
X200025000Y-102235000D03*
X200025000Y-99695000D03*
X200025000Y-97155000D03*
X200025000Y-94615000D03*
D20*
X144957700Y-100693000D03*
X186795500Y-95956300D03*
X184630100Y-97006100D03*
X183692100Y-95382100D03*
X180808400Y-97753100D03*
X163609000Y-98946000D03*
X159067500Y-100368100D03*
X143692500Y-102018200D03*
X140655200Y-102636400D03*
X126009300Y-102583800D03*
X168250400Y-117120500D03*
X124052800Y-102319600D03*
X117701200Y-96472700D03*
X158960500Y-122961400D03*
X164272200Y-129447700D03*
X116534500Y-88145300D03*
X146098100Y-88375500D03*
X195218100Y-102972400D03*
X170638700Y-124153700D03*
X110386800Y-102895500D03*
X179032500Y-125667200D03*
X110386800Y-95128000D03*
X173865900Y-117907500D03*
X172248500Y-111305800D03*
X172080000Y-116348700D03*
X172101000Y-113822100D03*
X127770200Y-122632000D03*
X128905000Y-114400700D03*
X128873200Y-121649000D03*
X141914900Y-124985300D03*
X152917600Y-122066500D03*
X139571300Y-121664000D03*
X148192800Y-135487700D03*
X156336700Y-104970900D03*
X144114600Y-114175000D03*
X105884500Y-133815200D03*
X123568100Y-107319300D03*
X170140400Y-110587700D03*
X162482100Y-133815600D03*
X189150000Y-109855000D03*
X146987500Y-136748400D03*
X138952900Y-128293600D03*
X108419000Y-129296400D03*
X115612700Y-125266800D03*
D21*
X144957700Y-100693000D02*
X145359100Y-101094400D01*
X145359100Y-101094400D02*
X170652900Y-101094400D01*
X170652900Y-101094400D02*
X171793500Y-102235000D01*
X171793500Y-102235000D02*
X174625000Y-102235000D01*
X94615000Y-127000000D02*
X94615000Y-128525300D01*
X107315000Y-131445000D02*
X107315000Y-129919700D01*
X107315000Y-129919700D02*
X106551900Y-129156600D01*
X106551900Y-129156600D02*
X95246300Y-129156600D01*
X95246300Y-129156600D02*
X94615000Y-128525300D01*
X144957700Y-100693000D02*
X136632700Y-100693000D01*
X136632700Y-100693000D02*
X127635000Y-91695300D01*
X188491300Y-126261300D02*
X187325000Y-125095000D01*
X194825000Y-123045300D02*
X195962800Y-124183100D01*
X195962800Y-124183100D02*
X195962800Y-125559300D01*
X195962800Y-125559300D02*
X195260800Y-126261300D01*
X195260800Y-126261300D02*
X188491300Y-126261300D01*
X188491300Y-126261300D02*
X188491300Y-127103700D01*
X188491300Y-127103700D02*
X187325000Y-128270000D01*
X194825000Y-121920000D02*
X194825000Y-123045300D01*
X153035000Y-117854700D02*
X138554400Y-117854700D01*
X138554400Y-117854700D02*
X137795000Y-117095300D01*
X122555000Y-137539700D02*
X126500900Y-137539700D01*
X126500900Y-137539700D02*
X129551500Y-140590300D01*
X129551500Y-140590300D02*
X145415000Y-140590300D01*
X153035000Y-119380000D02*
X153035000Y-117854700D01*
X137795000Y-115570000D02*
X137795000Y-117095300D01*
X122555000Y-139065000D02*
X122555000Y-137539700D01*
X145415000Y-139065000D02*
X145415000Y-140590300D01*
X127635000Y-90170000D02*
X127635000Y-91695300D01*
X120015000Y-139065000D02*
X122555000Y-139065000D01*
X177165000Y-102235000D02*
X174625000Y-102235000D01*
X197485000Y-99695000D02*
X194945000Y-102235000D01*
X194945000Y-102235000D02*
X177165000Y-102235000D01*
X112395000Y-139065000D02*
X109855000Y-139065000D01*
X112395000Y-131445000D02*
X114935000Y-131445000D01*
X120015000Y-139065000D02*
X117475000Y-139065000D01*
X200025000Y-99695000D02*
X197485000Y-99695000D01*
X132715000Y-90170000D02*
X132715000Y-91695300D01*
X132715000Y-91695300D02*
X140571200Y-99551500D01*
X140571200Y-99551500D02*
X159276900Y-99551500D01*
X159276900Y-99551500D02*
X159420400Y-99695000D01*
X159420400Y-99695000D02*
X174625000Y-99695000D01*
X187325000Y-121920000D02*
X185849300Y-120444300D01*
X185849300Y-120444300D02*
X169126600Y-120444300D01*
X169126600Y-120444300D02*
X168275000Y-119592700D01*
X125095000Y-139065000D02*
X125095000Y-140590300D01*
X125095000Y-140590300D02*
X125604500Y-141099800D01*
X125604500Y-141099800D02*
X147445500Y-141099800D01*
X147445500Y-141099800D02*
X147955000Y-140590300D01*
X147955000Y-139065000D02*
X147955000Y-140590300D01*
X168275000Y-139065000D02*
X168275000Y-140590300D01*
X168275000Y-140590300D02*
X147955000Y-140590300D01*
X125095000Y-127000000D02*
X125095000Y-128525300D01*
X104775000Y-127000000D02*
X107863400Y-127000000D01*
X107863400Y-127000000D02*
X109388700Y-128525300D01*
X109388700Y-128525300D02*
X125095000Y-128525300D01*
X102235000Y-127000000D02*
X104775000Y-127000000D01*
X102235000Y-131445000D02*
X102235000Y-132970300D01*
X94615000Y-131445000D02*
X94615000Y-132970300D01*
X94615000Y-132970300D02*
X102235000Y-132970300D01*
X158115000Y-119380000D02*
X158115000Y-117854700D01*
X168275000Y-119592700D02*
X166537000Y-117854700D01*
X166537000Y-117854700D02*
X158115000Y-117854700D01*
X168275000Y-119380000D02*
X168275000Y-119592700D01*
X174625000Y-124460000D02*
X172994600Y-124460000D01*
X172994600Y-124460000D02*
X170454600Y-127000000D01*
X170454600Y-127000000D02*
X168275000Y-127000000D01*
X142875000Y-127000000D02*
X145415000Y-127000000D01*
X99695000Y-119380000D02*
X102235000Y-119380000D01*
X97155000Y-119380000D02*
X99695000Y-119380000D01*
X192405000Y-94615000D02*
X191063700Y-95956300D01*
X191063700Y-95956300D02*
X186795500Y-95956300D01*
X194945000Y-94615000D02*
X192553900Y-97006100D01*
X192553900Y-97006100D02*
X184630100Y-97006100D01*
X194945000Y-92075000D02*
X193908400Y-91038400D01*
X193908400Y-91038400D02*
X186474000Y-91038400D01*
X186474000Y-91038400D02*
X185989300Y-91523100D01*
X185989300Y-91523100D02*
X185989300Y-92336800D01*
X185989300Y-92336800D02*
X185214500Y-93111600D01*
X185214500Y-93111600D02*
X184756200Y-93111600D01*
X184756200Y-93111600D02*
X183692100Y-94175700D01*
X183692100Y-94175700D02*
X183692100Y-95382100D01*
X197485000Y-94615000D02*
X194346900Y-97753100D01*
X194346900Y-97753100D02*
X180808400Y-97753100D01*
X197485000Y-92075000D02*
X196374300Y-93185700D01*
X196374300Y-93185700D02*
X187288400Y-93185700D01*
X187288400Y-93185700D02*
X186214400Y-94259700D01*
X186214400Y-94259700D02*
X186214400Y-94670300D01*
X186214400Y-94670300D02*
X184603900Y-96280800D01*
X184603900Y-96280800D02*
X180698400Y-96280800D01*
X180698400Y-96280800D02*
X178332100Y-98647100D01*
X178332100Y-98647100D02*
X163907900Y-98647100D01*
X163907900Y-98647100D02*
X163609000Y-98946000D01*
X200025000Y-94615000D02*
X198755000Y-95885000D01*
X198755000Y-95885000D02*
X197228400Y-95885000D01*
X197228400Y-95885000D02*
X192338500Y-100774900D01*
X192338500Y-100774900D02*
X172372400Y-100774900D01*
X172372400Y-100774900D02*
X171965600Y-100368100D01*
X171965600Y-100368100D02*
X159067500Y-100368100D01*
X143692500Y-102018200D02*
X170077900Y-102018200D01*
X170077900Y-102018200D02*
X173871900Y-105812200D01*
X173871900Y-105812200D02*
X193907800Y-105812200D01*
X193907800Y-105812200D02*
X197485000Y-102235000D01*
X140655200Y-102636400D02*
X140762300Y-102743500D01*
X140762300Y-102743500D02*
X169776200Y-102743500D01*
X169776200Y-102743500D02*
X173295300Y-106262600D01*
X173295300Y-106262600D02*
X195997400Y-106262600D01*
X195997400Y-106262600D02*
X197485000Y-104775000D01*
X126009300Y-102583800D02*
X130986600Y-102583800D01*
X130986600Y-102583800D02*
X132222200Y-103819400D01*
X132222200Y-103819400D02*
X148891300Y-103819400D01*
X148891300Y-103819400D02*
X148979000Y-103731700D01*
X148979000Y-103731700D02*
X169405400Y-103731700D01*
X169405400Y-103731700D02*
X174029600Y-108355900D01*
X174029600Y-108355900D02*
X196444100Y-108355900D01*
X196444100Y-108355900D02*
X197485000Y-107315000D01*
X122555000Y-114044700D02*
X123600400Y-112999300D01*
X123600400Y-112999300D02*
X151061400Y-112999300D01*
X151061400Y-112999300D02*
X152106800Y-114044700D01*
X152106800Y-114044700D02*
X156114200Y-114044700D01*
X156114200Y-114044700D02*
X156989700Y-114920200D01*
X156989700Y-114920200D02*
X156989700Y-116436200D01*
X156989700Y-116436200D02*
X157674000Y-117120500D01*
X157674000Y-117120500D02*
X168250400Y-117120500D01*
X122555000Y-115570000D02*
X122555000Y-114044700D01*
X124052800Y-102319600D02*
X125492600Y-103759400D01*
X125492600Y-103759400D02*
X125982400Y-103759400D01*
X125982400Y-103759400D02*
X127115600Y-104892600D01*
X127115600Y-104892600D02*
X154883400Y-104892600D01*
X154883400Y-104892600D02*
X155806600Y-105815800D01*
X155806600Y-105815800D02*
X169578800Y-105815800D01*
X169578800Y-105815800D02*
X173117200Y-109354200D01*
X173117200Y-109354200D02*
X173117200Y-109874900D01*
X173117200Y-109874900D02*
X174147200Y-110904900D01*
X174147200Y-110904900D02*
X196435100Y-110904900D01*
X196435100Y-110904900D02*
X197485000Y-109855000D01*
X117701200Y-96472700D02*
X119269000Y-96472700D01*
X119269000Y-96472700D02*
X125284000Y-102487700D01*
X125284000Y-102487700D02*
X125284000Y-102884200D01*
X125284000Y-102884200D02*
X125708900Y-103309100D01*
X125708900Y-103309100D02*
X126329600Y-103309100D01*
X126329600Y-103309100D02*
X127290200Y-104269700D01*
X127290200Y-104269700D02*
X149077900Y-104269700D01*
X149077900Y-104269700D02*
X149102100Y-104245500D01*
X149102100Y-104245500D02*
X169282300Y-104245500D01*
X169282300Y-104245500D02*
X173847500Y-108810700D01*
X173847500Y-108810700D02*
X198980700Y-108810700D01*
X198980700Y-108810700D02*
X200025000Y-109855000D01*
X197485000Y-112395000D02*
X196409100Y-113470900D01*
X196409100Y-113470900D02*
X196409100Y-115389200D01*
X196409100Y-115389200D02*
X196991500Y-115971600D01*
X196991500Y-115971600D02*
X197457500Y-115971600D01*
X197457500Y-115971600D02*
X198567700Y-117081800D01*
X198567700Y-117081800D02*
X198567700Y-117875400D01*
X198567700Y-117875400D02*
X196156800Y-120286300D01*
X196156800Y-120286300D02*
X191231400Y-120286300D01*
X191231400Y-120286300D02*
X188450300Y-123067400D01*
X188450300Y-123067400D02*
X185783400Y-123067400D01*
X185783400Y-123067400D02*
X185661300Y-122945300D01*
X185661300Y-122945300D02*
X159970200Y-122945300D01*
X159970200Y-122945300D02*
X159261000Y-122236100D01*
X159261000Y-122236100D02*
X158960900Y-122236100D01*
X158960900Y-122236100D02*
X156845000Y-120120200D01*
X156845000Y-120120200D02*
X156845000Y-118621100D01*
X156845000Y-118621100D02*
X155319200Y-117095300D01*
X155319200Y-117095300D02*
X152568800Y-117095300D01*
X152568800Y-117095300D02*
X151909700Y-116436200D01*
X151909700Y-116436200D02*
X151909700Y-114924300D01*
X151909700Y-114924300D02*
X150435000Y-113449600D01*
X150435000Y-113449600D02*
X125162500Y-113449600D01*
X125162500Y-113449600D02*
X123825000Y-114787100D01*
X123825000Y-114787100D02*
X123825000Y-116338900D01*
X123825000Y-116338900D02*
X123068600Y-117095300D01*
X123068600Y-117095300D02*
X114935000Y-117095300D01*
X114935000Y-115570000D02*
X114935000Y-117095300D01*
X200025000Y-112395000D02*
X201066300Y-113436300D01*
X201066300Y-113436300D02*
X201066300Y-116650600D01*
X201066300Y-116650600D02*
X197327300Y-120389600D01*
X197327300Y-120389600D02*
X197327300Y-127361500D01*
X197327300Y-127361500D02*
X194843100Y-129845700D01*
X194843100Y-129845700D02*
X176307100Y-129845700D01*
X176307100Y-129845700D02*
X175909100Y-129447700D01*
X175909100Y-129447700D02*
X164272200Y-129447700D01*
X112395000Y-115570000D02*
X114679600Y-117854600D01*
X114679600Y-117854600D02*
X123051100Y-117854600D01*
X123051100Y-117854600D02*
X123969600Y-118773100D01*
X123969600Y-118773100D02*
X123969600Y-120793900D01*
X123969600Y-120793900D02*
X124081100Y-120905400D01*
X124081100Y-120905400D02*
X129708800Y-120905400D01*
X129708800Y-120905400D02*
X131609700Y-122806300D01*
X131609700Y-122806300D02*
X158805400Y-122806300D01*
X158805400Y-122806300D02*
X158960500Y-122961400D01*
X109855000Y-117095300D02*
X112172900Y-117095300D01*
X112172900Y-117095300D02*
X113665000Y-118587400D01*
X113665000Y-118587400D02*
X113665000Y-120106100D01*
X113665000Y-120106100D02*
X116916200Y-123357300D01*
X116916200Y-123357300D02*
X128070700Y-123357300D01*
X128070700Y-123357300D02*
X128072900Y-123355100D01*
X128072900Y-123355100D02*
X152543600Y-123355100D01*
X152543600Y-123355100D02*
X152875200Y-123686700D01*
X152875200Y-123686700D02*
X159261000Y-123686700D01*
X159261000Y-123686700D02*
X159519300Y-123428400D01*
X159519300Y-123428400D02*
X185507500Y-123428400D01*
X185507500Y-123428400D02*
X185596900Y-123517800D01*
X185596900Y-123517800D02*
X190412400Y-123517800D01*
X190412400Y-123517800D02*
X193193500Y-120736700D01*
X193193500Y-120736700D02*
X196343300Y-120736700D01*
X196343300Y-120736700D02*
X199025800Y-118054200D01*
X199025800Y-118054200D02*
X199025800Y-116475800D01*
X199025800Y-116475800D02*
X197485000Y-114935000D01*
X109855000Y-115570000D02*
X109855000Y-117095300D01*
X200025000Y-114935000D02*
X198988400Y-113898400D01*
X198988400Y-113898400D02*
X198988400Y-111911200D01*
X198988400Y-111911200D02*
X199774600Y-111125000D01*
X199774600Y-111125000D02*
X200291700Y-111125000D01*
X200291700Y-111125000D02*
X201599900Y-109816800D01*
X201599900Y-109816800D02*
X201599900Y-94007700D01*
X201599900Y-94007700D02*
X195242400Y-87650200D01*
X195242400Y-87650200D02*
X117029600Y-87650200D01*
X117029600Y-87650200D02*
X116534500Y-88145300D01*
X197485000Y-117475000D02*
X195395700Y-119564300D01*
X195395700Y-119564300D02*
X183407500Y-119564300D01*
X183407500Y-119564300D02*
X182978000Y-119993800D01*
X182978000Y-119993800D02*
X172151300Y-119993800D01*
X172151300Y-119993800D02*
X165628400Y-113470900D01*
X165628400Y-113470900D02*
X152169900Y-113470900D01*
X152169900Y-113470900D02*
X151248000Y-112549000D01*
X151248000Y-112549000D02*
X106270700Y-112549000D01*
X106270700Y-112549000D02*
X104775000Y-114044700D01*
X104775000Y-115570000D02*
X104775000Y-114044700D01*
X195218100Y-102972400D02*
X197225500Y-100965000D01*
X197225500Y-100965000D02*
X200222500Y-100965000D01*
X200222500Y-100965000D02*
X201091900Y-100095600D01*
X201091900Y-100095600D02*
X201091900Y-94176200D01*
X201091900Y-94176200D02*
X195066000Y-88150300D01*
X195066000Y-88150300D02*
X146323300Y-88150300D01*
X146323300Y-88150300D02*
X146098100Y-88375500D01*
X194945000Y-117475000D02*
X193326800Y-119093200D01*
X193326800Y-119093200D02*
X183241600Y-119093200D01*
X183241600Y-119093200D02*
X182791300Y-119543500D01*
X182791300Y-119543500D02*
X172338000Y-119543500D01*
X172338000Y-119543500D02*
X165815100Y-113020600D01*
X165815100Y-113020600D02*
X152356500Y-113020600D01*
X152356500Y-113020600D02*
X151434600Y-112098700D01*
X151434600Y-112098700D02*
X101641000Y-112098700D01*
X101641000Y-112098700D02*
X99695000Y-114044700D01*
X99695000Y-115570000D02*
X99695000Y-114044700D01*
X97155000Y-117095300D02*
X105495300Y-117095300D01*
X105495300Y-117095300D02*
X112221200Y-123821200D01*
X112221200Y-123821200D02*
X128243700Y-123821200D01*
X128243700Y-123821200D02*
X128259400Y-123805500D01*
X128259400Y-123805500D02*
X151856300Y-123805500D01*
X151856300Y-123805500D02*
X152204500Y-124153700D01*
X152204500Y-124153700D02*
X170638700Y-124153700D01*
X97155000Y-115570000D02*
X97155000Y-117095300D01*
X192405000Y-117475000D02*
X191368400Y-118511600D01*
X191368400Y-118511600D02*
X182961400Y-118511600D01*
X182961400Y-118511600D02*
X182379800Y-119093200D01*
X182379800Y-119093200D02*
X172524800Y-119093200D01*
X172524800Y-119093200D02*
X166001900Y-112570300D01*
X166001900Y-112570300D02*
X152543200Y-112570300D01*
X152543200Y-112570300D02*
X151620000Y-111647100D01*
X151620000Y-111647100D02*
X97012600Y-111647100D01*
X97012600Y-111647100D02*
X94615000Y-114044700D01*
X94615000Y-115570000D02*
X94615000Y-114044700D01*
X189865000Y-114935000D02*
X188822300Y-113892300D01*
X188822300Y-113892300D02*
X186860600Y-113892300D01*
X186860600Y-113892300D02*
X186055000Y-114697900D01*
X186055000Y-114697900D02*
X186055000Y-115133000D01*
X186055000Y-115133000D02*
X185211600Y-115976400D01*
X185211600Y-115976400D02*
X176123600Y-115976400D01*
X176123600Y-115976400D02*
X175657800Y-116442200D01*
X175657800Y-116442200D02*
X173836200Y-116442200D01*
X173836200Y-116442200D02*
X172567100Y-115173100D01*
X172567100Y-115173100D02*
X171789200Y-115173100D01*
X171789200Y-115173100D02*
X166934900Y-110318800D01*
X166934900Y-110318800D02*
X153476200Y-110318800D01*
X153476200Y-110318800D02*
X152553000Y-109395600D01*
X152553000Y-109395600D02*
X116886900Y-109395600D01*
X116886900Y-109395600D02*
X110386800Y-102895500D01*
X89535000Y-117095300D02*
X94331300Y-117095300D01*
X94331300Y-117095300D02*
X95885000Y-118649000D01*
X95885000Y-118649000D02*
X95885000Y-120165700D01*
X95885000Y-120165700D02*
X99990800Y-124271500D01*
X99990800Y-124271500D02*
X128430300Y-124271500D01*
X128430300Y-124271500D02*
X128445900Y-124255900D01*
X128445900Y-124255900D02*
X148699000Y-124255900D01*
X148699000Y-124255900D02*
X149467400Y-125024300D01*
X149467400Y-125024300D02*
X165847900Y-125024300D01*
X165847900Y-125024300D02*
X167005000Y-126181400D01*
X167005000Y-126181400D02*
X167005000Y-127736600D01*
X167005000Y-127736600D02*
X167793700Y-128525300D01*
X167793700Y-128525300D02*
X169625300Y-128525300D01*
X169625300Y-128525300D02*
X172483400Y-125667200D01*
X172483400Y-125667200D02*
X179032500Y-125667200D01*
X89535000Y-115570000D02*
X89535000Y-117095300D01*
X187325000Y-114935000D02*
X185833200Y-116426800D01*
X185833200Y-116426800D02*
X181806600Y-116426800D01*
X181806600Y-116426800D02*
X180801500Y-117431900D01*
X180801500Y-117431900D02*
X180801500Y-117882400D01*
X180801500Y-117882400D02*
X180041100Y-118642800D01*
X180041100Y-118642800D02*
X172711300Y-118642800D01*
X172711300Y-118642800D02*
X166188500Y-112120000D01*
X166188500Y-112120000D02*
X152729800Y-112120000D01*
X152729800Y-112120000D02*
X151806600Y-111196800D01*
X151806600Y-111196800D02*
X89842900Y-111196800D01*
X89842900Y-111196800D02*
X86995000Y-114044700D01*
X86995000Y-115570000D02*
X86995000Y-114044700D01*
X86995000Y-88644700D02*
X87494300Y-88145400D01*
X87494300Y-88145400D02*
X112434900Y-88145400D01*
X112434900Y-88145400D02*
X113665000Y-89375500D01*
X113665000Y-89375500D02*
X113665000Y-93512900D01*
X113665000Y-93512900D02*
X124361800Y-104209700D01*
X124361800Y-104209700D02*
X125795800Y-104209700D01*
X125795800Y-104209700D02*
X126929000Y-105342900D01*
X126929000Y-105342900D02*
X154498400Y-105342900D01*
X154498400Y-105342900D02*
X155421600Y-106266100D01*
X155421600Y-106266100D02*
X169392200Y-106266100D01*
X169392200Y-106266100D02*
X172666900Y-109540800D01*
X172666900Y-109540800D02*
X172666900Y-110061500D01*
X172666900Y-110061500D02*
X173960700Y-111355300D01*
X173960700Y-111355300D02*
X187787600Y-111355300D01*
X187787600Y-111355300D02*
X190938500Y-114506200D01*
X190938500Y-114506200D02*
X190938500Y-115382000D01*
X190938500Y-115382000D02*
X190348900Y-115971600D01*
X190348900Y-115971600D02*
X188828400Y-115971600D01*
X188828400Y-115971600D02*
X187325000Y-117475000D01*
X86995000Y-90170000D02*
X86995000Y-88644700D01*
X110386800Y-95128000D02*
X121269700Y-106010900D01*
X121269700Y-106010900D02*
X124963900Y-106010900D01*
X124963900Y-106010900D02*
X126097100Y-107144100D01*
X126097100Y-107144100D02*
X153628500Y-107144100D01*
X153628500Y-107144100D02*
X154551700Y-108067300D01*
X154551700Y-108067300D02*
X168645800Y-108067300D01*
X168645800Y-108067300D02*
X170865700Y-110287200D01*
X170865700Y-110287200D02*
X170865700Y-111593400D01*
X170865700Y-111593400D02*
X171918800Y-112646500D01*
X171918800Y-112646500D02*
X172588100Y-112646500D01*
X172588100Y-112646500D02*
X173834400Y-113892800D01*
X173834400Y-113892800D02*
X183742800Y-113892800D01*
X183742800Y-113892800D02*
X184785000Y-114935000D01*
X173865900Y-117907500D02*
X172612900Y-117907500D01*
X172612900Y-117907500D02*
X166375100Y-111669700D01*
X166375100Y-111669700D02*
X152916400Y-111669700D01*
X152916400Y-111669700D02*
X151993200Y-110746500D01*
X151993200Y-110746500D02*
X111126200Y-110746500D01*
X111126200Y-110746500D02*
X92075000Y-91695300D01*
X92075000Y-90170000D02*
X92075000Y-91695300D01*
X94615000Y-88644700D02*
X110325600Y-88644700D01*
X110325600Y-88644700D02*
X111248200Y-89567300D01*
X111248200Y-89567300D02*
X111248200Y-92465500D01*
X111248200Y-92465500D02*
X123893000Y-105110300D01*
X123893000Y-105110300D02*
X125337100Y-105110300D01*
X125337100Y-105110300D02*
X126470300Y-106243500D01*
X126470300Y-106243500D02*
X154001700Y-106243500D01*
X154001700Y-106243500D02*
X154924900Y-107166700D01*
X154924900Y-107166700D02*
X169019000Y-107166700D01*
X169019000Y-107166700D02*
X171766300Y-109914000D01*
X171766300Y-109914000D02*
X171766300Y-110823600D01*
X171766300Y-110823600D02*
X172248500Y-111305800D01*
X94615000Y-90170000D02*
X94615000Y-88644700D01*
X172080000Y-116348700D02*
X171691000Y-116348700D01*
X171691000Y-116348700D02*
X166561700Y-111219400D01*
X166561700Y-111219400D02*
X153103000Y-111219400D01*
X153103000Y-111219400D02*
X152179800Y-110296200D01*
X152179800Y-110296200D02*
X115755900Y-110296200D01*
X115755900Y-110296200D02*
X97155000Y-91695300D01*
X97155000Y-90170000D02*
X97155000Y-91695300D01*
X99695000Y-91695300D02*
X99695000Y-93229400D01*
X99695000Y-93229400D02*
X116311500Y-109845900D01*
X116311500Y-109845900D02*
X152366400Y-109845900D01*
X152366400Y-109845900D02*
X153289600Y-110769100D01*
X153289600Y-110769100D02*
X166748300Y-110769100D01*
X166748300Y-110769100D02*
X171602600Y-115623400D01*
X171602600Y-115623400D02*
X172380500Y-115623400D01*
X172380500Y-115623400D02*
X173649600Y-116892500D01*
X173649600Y-116892500D02*
X175844400Y-116892500D01*
X175844400Y-116892500D02*
X176304900Y-116432000D01*
X176304900Y-116432000D02*
X178662000Y-116432000D01*
X178662000Y-116432000D02*
X179705000Y-117475000D01*
X99695000Y-90170000D02*
X99695000Y-91695300D01*
X102235000Y-91695300D02*
X119485000Y-108945300D01*
X119485000Y-108945300D02*
X152739600Y-108945300D01*
X152739600Y-108945300D02*
X153662800Y-109868500D01*
X153662800Y-109868500D02*
X167121500Y-109868500D01*
X167121500Y-109868500D02*
X171800500Y-114547500D01*
X171800500Y-114547500D02*
X172578400Y-114547500D01*
X172578400Y-114547500D02*
X174022700Y-115991800D01*
X174022700Y-115991800D02*
X175471300Y-115991800D01*
X175471300Y-115991800D02*
X176528100Y-114935000D01*
X176528100Y-114935000D02*
X177165000Y-114935000D01*
X102235000Y-90170000D02*
X102235000Y-91695300D01*
X104775000Y-91695300D02*
X121574700Y-108495000D01*
X121574700Y-108495000D02*
X152926200Y-108495000D01*
X152926200Y-108495000D02*
X153849400Y-109418200D01*
X153849400Y-109418200D02*
X167308100Y-109418200D01*
X167308100Y-109418200D02*
X171712000Y-113822100D01*
X171712000Y-113822100D02*
X172101000Y-113822100D01*
X104775000Y-90170000D02*
X104775000Y-91695300D01*
X107315000Y-91695300D02*
X107315000Y-93081900D01*
X107315000Y-93081900D02*
X122277800Y-108044700D01*
X122277800Y-108044700D02*
X153112800Y-108044700D01*
X153112800Y-108044700D02*
X154036000Y-108967900D01*
X154036000Y-108967900D02*
X167494700Y-108967900D01*
X167494700Y-108967900D02*
X171623600Y-113096800D01*
X171623600Y-113096800D02*
X172401500Y-113096800D01*
X172401500Y-113096800D02*
X174239700Y-114935000D01*
X174239700Y-114935000D02*
X174625000Y-114935000D01*
X107315000Y-90170000D02*
X107315000Y-91695300D01*
X109855000Y-91695300D02*
X109855000Y-91709200D01*
X109855000Y-91709200D02*
X123706400Y-105560600D01*
X123706400Y-105560600D02*
X125150500Y-105560600D01*
X125150500Y-105560600D02*
X126283700Y-106693800D01*
X126283700Y-106693800D02*
X153815100Y-106693800D01*
X153815100Y-106693800D02*
X154738300Y-107617000D01*
X154738300Y-107617000D02*
X168832400Y-107617000D01*
X168832400Y-107617000D02*
X171316000Y-110100600D01*
X171316000Y-110100600D02*
X171316000Y-111399400D01*
X171316000Y-111399400D02*
X172112800Y-112196200D01*
X172112800Y-112196200D02*
X172774700Y-112196200D01*
X172774700Y-112196200D02*
X174015200Y-113436700D01*
X174015200Y-113436700D02*
X176123300Y-113436700D01*
X176123300Y-113436700D02*
X177165000Y-112395000D01*
X109855000Y-90170000D02*
X109855000Y-91695300D01*
X112395000Y-91695300D02*
X112395000Y-92895400D01*
X112395000Y-92895400D02*
X124159600Y-104660000D01*
X124159600Y-104660000D02*
X125523700Y-104660000D01*
X125523700Y-104660000D02*
X126656900Y-105793200D01*
X126656900Y-105793200D02*
X154188400Y-105793200D01*
X154188400Y-105793200D02*
X155111600Y-106716400D01*
X155111600Y-106716400D02*
X169205600Y-106716400D01*
X169205600Y-106716400D02*
X172216600Y-109727400D01*
X172216600Y-109727400D02*
X172216600Y-110248100D01*
X172216600Y-110248100D02*
X174363500Y-112395000D01*
X174363500Y-112395000D02*
X174625000Y-112395000D01*
X112395000Y-90170000D02*
X112395000Y-91695300D01*
X127770200Y-122632000D02*
X118187000Y-122632000D01*
X118187000Y-122632000D02*
X114935000Y-119380000D01*
X117475000Y-119380000D02*
X120015000Y-119380000D01*
X122555000Y-91695300D02*
X134228800Y-103369100D01*
X134228800Y-103369100D02*
X148704700Y-103369100D01*
X148704700Y-103369100D02*
X148792400Y-103281400D01*
X148792400Y-103281400D02*
X169677200Y-103281400D01*
X169677200Y-103281400D02*
X173710800Y-107315000D01*
X173710800Y-107315000D02*
X174625000Y-107315000D01*
X122555000Y-90170000D02*
X122555000Y-91695300D01*
X125095000Y-90170000D02*
X125095000Y-91695300D01*
X177165000Y-104775000D02*
X176066100Y-103676100D01*
X176066100Y-103676100D02*
X172597700Y-103676100D01*
X172597700Y-103676100D02*
X170489500Y-101567900D01*
X170489500Y-101567900D02*
X144521300Y-101567900D01*
X144521300Y-101567900D02*
X144232300Y-101278900D01*
X144232300Y-101278900D02*
X134678600Y-101278900D01*
X134678600Y-101278900D02*
X125095000Y-91695300D01*
X168275000Y-131445000D02*
X168275000Y-132970300D01*
X132715000Y-139065000D02*
X132715000Y-137539700D01*
X132715000Y-137539700D02*
X134238700Y-136016000D01*
X134238700Y-136016000D02*
X147281200Y-136016000D01*
X147281200Y-136016000D02*
X147488100Y-136222900D01*
X147488100Y-136222900D02*
X165022400Y-136222900D01*
X165022400Y-136222900D02*
X168275000Y-132970300D01*
X177165000Y-97155000D02*
X176123300Y-98196700D01*
X176123300Y-98196700D02*
X141756400Y-98196700D01*
X141756400Y-98196700D02*
X135255000Y-91695300D01*
X135255000Y-90170000D02*
X135255000Y-91695300D01*
X174625000Y-97155000D02*
X143254700Y-97155000D01*
X143254700Y-97155000D02*
X137795000Y-91695300D01*
X137795000Y-90170000D02*
X137795000Y-91695300D01*
X140335000Y-91695300D02*
X142192500Y-93552800D01*
X142192500Y-93552800D02*
X176102800Y-93552800D01*
X176102800Y-93552800D02*
X177165000Y-94615000D01*
X140335000Y-90170000D02*
X140335000Y-91695300D01*
X125095000Y-117854700D02*
X127407600Y-117854700D01*
X127407600Y-117854700D02*
X128905000Y-116357300D01*
X128905000Y-116357300D02*
X128905000Y-114400700D01*
X125095000Y-119380000D02*
X125095000Y-117854700D01*
X145415000Y-91695300D02*
X146794200Y-93074500D01*
X146794200Y-93074500D02*
X176165500Y-93074500D01*
X176165500Y-93074500D02*
X177165000Y-92075000D01*
X145415000Y-90170000D02*
X145415000Y-91695300D01*
X147955000Y-90170000D02*
X147955000Y-91695300D01*
X179705000Y-94615000D02*
X178435000Y-93345000D01*
X178435000Y-93345000D02*
X178435000Y-91875800D01*
X178435000Y-91875800D02*
X177578100Y-91018900D01*
X177578100Y-91018900D02*
X176128400Y-91018900D01*
X176128400Y-91018900D02*
X174523200Y-92624100D01*
X174523200Y-92624100D02*
X148883800Y-92624100D01*
X148883800Y-92624100D02*
X147955000Y-91695300D01*
X179705000Y-92075000D02*
X178198500Y-90568500D01*
X178198500Y-90568500D02*
X168769000Y-90568500D01*
X168769000Y-90568500D02*
X167191900Y-92145600D01*
X167191900Y-92145600D02*
X150945300Y-92145600D01*
X150945300Y-92145600D02*
X150495000Y-91695300D01*
X150495000Y-90170000D02*
X150495000Y-91695300D01*
X122555000Y-125474700D02*
X140335000Y-125474700D01*
X122555000Y-127000000D02*
X122555000Y-125474700D01*
X140335000Y-127000000D02*
X140335000Y-125474700D01*
X142875000Y-139065000D02*
X140335000Y-139065000D01*
X182245000Y-92075000D02*
X180288200Y-90118200D01*
X180288200Y-90118200D02*
X168264400Y-90118200D01*
X168264400Y-90118200D02*
X166687300Y-91695300D01*
X166687300Y-91695300D02*
X155575000Y-91695300D01*
X155575000Y-90170000D02*
X155575000Y-91695300D01*
X160655000Y-90170000D02*
X160655000Y-88644700D01*
X184785000Y-92075000D02*
X181354700Y-88644700D01*
X181354700Y-88644700D02*
X160655000Y-88644700D01*
X160655000Y-119380000D02*
X160655000Y-120905300D01*
X160655000Y-120905300D02*
X161669700Y-121920000D01*
X161669700Y-121920000D02*
X174625000Y-121920000D01*
X180730300Y-124460000D02*
X181220600Y-123969700D01*
X181220600Y-123969700D02*
X192574400Y-123969700D01*
X192574400Y-123969700D02*
X193699700Y-125095000D01*
X194825000Y-125095000D02*
X193699700Y-125095000D01*
X179705000Y-124460000D02*
X180730300Y-124460000D01*
X178679700Y-121920000D02*
X177654400Y-120894700D01*
X177654400Y-120894700D02*
X171102700Y-120894700D01*
X171102700Y-120894700D02*
X171092100Y-120905300D01*
X171092100Y-120905300D02*
X163195000Y-120905300D01*
X179705000Y-121920000D02*
X178679700Y-121920000D01*
X163195000Y-119380000D02*
X163195000Y-120905300D01*
X128873200Y-121649000D02*
X123298700Y-121649000D01*
X123298700Y-121649000D02*
X122555000Y-120905300D01*
X122555000Y-119380000D02*
X122555000Y-120905300D01*
X120015000Y-125474700D02*
X120504400Y-124985300D01*
X120504400Y-124985300D02*
X141914900Y-124985300D01*
X120015000Y-127000000D02*
X120015000Y-125474700D01*
X145415000Y-121284600D02*
X152135700Y-121284600D01*
X152135700Y-121284600D02*
X152917600Y-122066500D01*
X145415000Y-121284600D02*
X145415000Y-120905300D01*
X139571300Y-121664000D02*
X145035600Y-121664000D01*
X145035600Y-121664000D02*
X145415000Y-121284600D01*
X135255000Y-128525300D02*
X134804700Y-128975600D01*
X134804700Y-128975600D02*
X109124000Y-128975600D01*
X109124000Y-128975600D02*
X108673700Y-128525300D01*
X108673700Y-128525300D02*
X99695000Y-128525300D01*
X145415000Y-119380000D02*
X145415000Y-120905300D01*
X135255000Y-127000000D02*
X135255000Y-128525300D01*
X99695000Y-127000000D02*
X99695000Y-128525300D01*
X174625000Y-127000000D02*
X172649300Y-128975700D01*
X172649300Y-128975700D02*
X164826000Y-128975700D01*
X164826000Y-128975700D02*
X164375600Y-128525300D01*
X164375600Y-128525300D02*
X158115000Y-128525300D01*
X174625000Y-127000000D02*
X177020300Y-129395300D01*
X177020300Y-129395300D02*
X192574400Y-129395300D01*
X192574400Y-129395300D02*
X193699700Y-128270000D01*
X158115000Y-127000000D02*
X158115000Y-128525300D01*
X194825000Y-128270000D02*
X193699700Y-128270000D01*
X130175000Y-139065000D02*
X130175000Y-137539700D01*
X148192800Y-135487700D02*
X132227000Y-135487700D01*
X132227000Y-135487700D02*
X130175000Y-137539700D01*
X137795000Y-127000000D02*
X137795000Y-128525300D01*
X165735000Y-131445000D02*
X165215200Y-131445000D01*
X165215200Y-131445000D02*
X162789100Y-129018900D01*
X162789100Y-129018900D02*
X138288600Y-129018900D01*
X138288600Y-129018900D02*
X137795000Y-128525300D01*
X156336700Y-104970900D02*
X169370800Y-104970900D01*
X169370800Y-104970900D02*
X174254900Y-109855000D01*
X174254900Y-109855000D02*
X174625000Y-109855000D01*
X132715000Y-117854700D02*
X135032900Y-117854700D01*
X135032900Y-117854700D02*
X136525000Y-116362600D01*
X136525000Y-116362600D02*
X136525000Y-114842600D01*
X136525000Y-114842600D02*
X137366800Y-114000800D01*
X137366800Y-114000800D02*
X143940400Y-114000800D01*
X143940400Y-114000800D02*
X144114600Y-114175000D01*
X132715000Y-119380000D02*
X132715000Y-117854700D01*
X155575000Y-132970300D02*
X154661100Y-133884200D01*
X154661100Y-133884200D02*
X105953500Y-133884200D01*
X105953500Y-133884200D02*
X105884500Y-133815200D01*
X155575000Y-131445000D02*
X155575000Y-132970300D01*
X123568100Y-107319300D02*
X123843200Y-107594400D01*
X123843200Y-107594400D02*
X153441900Y-107594400D01*
X153441900Y-107594400D02*
X154365100Y-108517600D01*
X154365100Y-108517600D02*
X168070300Y-108517600D01*
X168070300Y-108517600D02*
X170140400Y-110587700D01*
X99695000Y-131445000D02*
X99695000Y-129919700D01*
X201295000Y-124460000D02*
X200119700Y-124460000D01*
X200119700Y-124460000D02*
X200119700Y-125268000D01*
X200119700Y-125268000D02*
X195091600Y-130296100D01*
X195091600Y-130296100D02*
X175351700Y-130296100D01*
X175351700Y-130296100D02*
X174953700Y-129898100D01*
X174953700Y-129898100D02*
X167347800Y-129898100D01*
X167347800Y-129898100D02*
X167149600Y-130096300D01*
X167149600Y-130096300D02*
X167149600Y-132030100D01*
X167149600Y-132030100D02*
X164628700Y-134551000D01*
X164628700Y-134551000D02*
X92950800Y-134551000D01*
X92950800Y-134551000D02*
X90902100Y-132502300D01*
X90902100Y-132502300D02*
X90902100Y-130599200D01*
X90902100Y-130599200D02*
X91581600Y-129919700D01*
X91581600Y-129919700D02*
X99695000Y-129919700D01*
X132715000Y-132970300D02*
X145945700Y-132970300D01*
X145945700Y-132970300D02*
X146829600Y-132086400D01*
X146829600Y-132086400D02*
X146829600Y-130110300D01*
X146829600Y-130110300D02*
X147020200Y-129919700D01*
X147020200Y-129919700D02*
X156082800Y-129919700D01*
X156082800Y-129919700D02*
X156989700Y-130826600D01*
X156989700Y-130826600D02*
X156989700Y-132347300D01*
X156989700Y-132347300D02*
X158458000Y-133815600D01*
X158458000Y-133815600D02*
X162482100Y-133815600D01*
X177165000Y-109855000D02*
X189150000Y-109855000D01*
X132715000Y-131445000D02*
X132715000Y-132970300D01*
X137795000Y-137539700D02*
X146196200Y-137539700D01*
X146196200Y-137539700D02*
X146987500Y-136748400D01*
X137795000Y-139065000D02*
X137795000Y-137539700D01*
X153035000Y-128525300D02*
X139184600Y-128525300D01*
X139184600Y-128525300D02*
X138952900Y-128293600D01*
X153035000Y-127000000D02*
X153035000Y-128525300D01*
X158115000Y-131445000D02*
X158115000Y-129919700D01*
X145415000Y-129919700D02*
X144964600Y-129469300D01*
X144964600Y-129469300D02*
X108591900Y-129469300D01*
X108591900Y-129469300D02*
X108419000Y-129296400D01*
X158115000Y-129919700D02*
X157664700Y-129469400D01*
X157664700Y-129469400D02*
X145865300Y-129469400D01*
X145865300Y-129469400D02*
X145415000Y-129919700D01*
X145415000Y-131445000D02*
X145415000Y-129919700D01*
X137795000Y-131445000D02*
X137795000Y-129919700D01*
X120015000Y-131445000D02*
X120015000Y-129919700D01*
X120015000Y-129919700D02*
X137795000Y-129919700D01*
X89535000Y-119380000D02*
X89535000Y-120905300D01*
X115612700Y-125266800D02*
X93896500Y-125266800D01*
X93896500Y-125266800D02*
X89535000Y-120905300D01*
X125095000Y-132970300D02*
X125545300Y-133420600D01*
X125545300Y-133420600D02*
X147504700Y-133420600D01*
X147504700Y-133420600D02*
X147955000Y-132970300D01*
X92075000Y-132970300D02*
X92525300Y-133420600D01*
X92525300Y-133420600D02*
X105207800Y-133420600D01*
X105207800Y-133420600D02*
X105658100Y-132970300D01*
X105658100Y-132970300D02*
X125095000Y-132970300D01*
X92075000Y-131445000D02*
X92075000Y-132970300D01*
X125095000Y-132857700D02*
X125095000Y-132970300D01*
X125095000Y-131445000D02*
X125095000Y-132857700D01*
X147955000Y-131445000D02*
X147955000Y-132970300D01*
M02*
