G04 #@! TF.GenerationSoftware,KiCad,Pcbnew,(5.1.2-1)-1*
G04 #@! TF.CreationDate,2019-06-02T17:28:59+01:00*
G04 #@! TF.ProjectId,A500 14Mhz Accelerator,41353030-2031-4344-9d68-7a2041636365,rev?*
G04 #@! TF.SameCoordinates,Original*
G04 #@! TF.FileFunction,Copper,L1,Top*
G04 #@! TF.FilePolarity,Positive*
%FSLAX46Y46*%
G04 Gerber Fmt 4.6, Leading zero omitted, Abs format (unit mm)*
G04 Created by KiCad (PCBNEW (5.1.2-1)-1) date 2019-06-02 17:28:59*
%MOMM*%
%LPD*%
G04 APERTURE LIST*
%ADD10O,1.600000X2.400000*%
%ADD11R,1.600000X2.400000*%
%ADD12C,1.600000*%
%ADD13O,1.600000X1.600000*%
%ADD14C,1.400000*%
%ADD15O,1.400000X1.400000*%
%ADD16R,1.700000X1.700000*%
%ADD17O,1.700000X1.700000*%
%ADD18C,1.422400*%
%ADD19R,1.422400X1.422400*%
%ADD20C,0.800000*%
%ADD21C,0.250000*%
G04 APERTURE END LIST*
D10*
X165735000Y-115570000D03*
X163195000Y-115570000D03*
X160655000Y-115570000D03*
X158115000Y-115570000D03*
X155575000Y-115570000D03*
X153035000Y-115570000D03*
X150495000Y-115570000D03*
X147955000Y-115570000D03*
X145415000Y-115570000D03*
X142875000Y-115570000D03*
X140335000Y-115570000D03*
X137795000Y-115570000D03*
X135255000Y-115570000D03*
X132715000Y-115570000D03*
X130175000Y-115570000D03*
X127635000Y-115570000D03*
X125095000Y-115570000D03*
X122555000Y-115570000D03*
X120015000Y-115570000D03*
X117475000Y-115570000D03*
X114935000Y-115570000D03*
X112395000Y-115570000D03*
X109855000Y-115570000D03*
X107315000Y-115570000D03*
X104775000Y-115570000D03*
X102235000Y-115570000D03*
X99695000Y-115570000D03*
X97155000Y-115570000D03*
X94615000Y-115570000D03*
X92075000Y-115570000D03*
X89535000Y-115570000D03*
X86995000Y-115570000D03*
X86995000Y-90170000D03*
X89535000Y-90170000D03*
X92075000Y-90170000D03*
X94615000Y-90170000D03*
X97155000Y-90170000D03*
X99695000Y-90170000D03*
X102235000Y-90170000D03*
X104775000Y-90170000D03*
X107315000Y-90170000D03*
X109855000Y-90170000D03*
X112395000Y-90170000D03*
X114935000Y-90170000D03*
X117475000Y-90170000D03*
X120015000Y-90170000D03*
X122555000Y-90170000D03*
X125095000Y-90170000D03*
X127635000Y-90170000D03*
X130175000Y-90170000D03*
X132715000Y-90170000D03*
X135255000Y-90170000D03*
X137795000Y-90170000D03*
X140335000Y-90170000D03*
X142875000Y-90170000D03*
X145415000Y-90170000D03*
X147955000Y-90170000D03*
X150495000Y-90170000D03*
X153035000Y-90170000D03*
X155575000Y-90170000D03*
X158115000Y-90170000D03*
X160655000Y-90170000D03*
X163195000Y-90170000D03*
D11*
X165735000Y-90170000D03*
D12*
X172212000Y-132715000D03*
D13*
X179712000Y-132715000D03*
X179712000Y-135890000D03*
D12*
X172212000Y-135890000D03*
D14*
X174625000Y-121920000D03*
D15*
X179705000Y-121920000D03*
X179705000Y-124460000D03*
D14*
X174625000Y-124460000D03*
X174625000Y-127000000D03*
D15*
X179705000Y-127000000D03*
D11*
X168275000Y-119380000D03*
D10*
X153035000Y-127000000D03*
X165735000Y-119380000D03*
X155575000Y-127000000D03*
X163195000Y-119380000D03*
X158115000Y-127000000D03*
X160655000Y-119380000D03*
X160655000Y-127000000D03*
X158115000Y-119380000D03*
X163195000Y-127000000D03*
X155575000Y-119380000D03*
X165735000Y-127000000D03*
X153035000Y-119380000D03*
X168275000Y-127000000D03*
X145415000Y-127000000D03*
X130175000Y-119380000D03*
X142875000Y-127000000D03*
X132715000Y-119380000D03*
X140335000Y-127000000D03*
X135255000Y-119380000D03*
X137795000Y-127000000D03*
X137795000Y-119380000D03*
X135255000Y-127000000D03*
X140335000Y-119380000D03*
X132715000Y-127000000D03*
X142875000Y-119380000D03*
X130175000Y-127000000D03*
D11*
X145415000Y-119380000D03*
X125095000Y-119380000D03*
D10*
X109855000Y-127000000D03*
X122555000Y-119380000D03*
X112395000Y-127000000D03*
X120015000Y-119380000D03*
X114935000Y-127000000D03*
X117475000Y-119380000D03*
X117475000Y-127000000D03*
X114935000Y-119380000D03*
X120015000Y-127000000D03*
X112395000Y-119380000D03*
X122555000Y-127000000D03*
X109855000Y-119380000D03*
X125095000Y-127000000D03*
D11*
X104775000Y-119380000D03*
D10*
X86995000Y-127000000D03*
X102235000Y-119380000D03*
X89535000Y-127000000D03*
X99695000Y-119380000D03*
X92075000Y-127000000D03*
X97155000Y-119380000D03*
X94615000Y-127000000D03*
X94615000Y-119380000D03*
X97155000Y-127000000D03*
X92075000Y-119380000D03*
X99695000Y-127000000D03*
X89535000Y-119380000D03*
X102235000Y-127000000D03*
X86995000Y-119380000D03*
X104775000Y-127000000D03*
X168275000Y-139065000D03*
X153035000Y-131445000D03*
X165735000Y-139065000D03*
X155575000Y-131445000D03*
X163195000Y-139065000D03*
X158115000Y-131445000D03*
X160655000Y-139065000D03*
X160655000Y-131445000D03*
X158115000Y-139065000D03*
X163195000Y-131445000D03*
X155575000Y-139065000D03*
X165735000Y-131445000D03*
X153035000Y-139065000D03*
D11*
X168275000Y-131445000D03*
D16*
X203200000Y-128905000D03*
D17*
X203200000Y-126365000D03*
X203200000Y-123825000D03*
D11*
X147955000Y-131445000D03*
D10*
X130175000Y-139065000D03*
X145415000Y-131445000D03*
X132715000Y-139065000D03*
X142875000Y-131445000D03*
X135255000Y-139065000D03*
X140335000Y-131445000D03*
X137795000Y-139065000D03*
X137795000Y-131445000D03*
X140335000Y-139065000D03*
X135255000Y-131445000D03*
X142875000Y-139065000D03*
X132715000Y-131445000D03*
X145415000Y-139065000D03*
X130175000Y-131445000D03*
X147955000Y-139065000D03*
D11*
X125095000Y-131445000D03*
D10*
X107315000Y-139065000D03*
X122555000Y-131445000D03*
X109855000Y-139065000D03*
X120015000Y-131445000D03*
X112395000Y-139065000D03*
X117475000Y-131445000D03*
X114935000Y-139065000D03*
X114935000Y-131445000D03*
X117475000Y-139065000D03*
X112395000Y-131445000D03*
X120015000Y-139065000D03*
X109855000Y-131445000D03*
X122555000Y-139065000D03*
X107315000Y-131445000D03*
X125095000Y-139065000D03*
D11*
X102235000Y-131445000D03*
D10*
X86995000Y-139065000D03*
X99695000Y-131445000D03*
X89535000Y-139065000D03*
X97155000Y-131445000D03*
X92075000Y-139065000D03*
X94615000Y-131445000D03*
X94615000Y-139065000D03*
X92075000Y-131445000D03*
X97155000Y-139065000D03*
X89535000Y-131445000D03*
X99695000Y-139065000D03*
X86995000Y-131445000D03*
X102235000Y-139065000D03*
D18*
X198120000Y-102870000D03*
X198120000Y-100330000D03*
X198120000Y-97790000D03*
X198120000Y-95250000D03*
X198120000Y-105410000D03*
X198120000Y-107950000D03*
X198120000Y-110490000D03*
X198120000Y-113030000D03*
D19*
X200660000Y-102870000D03*
D18*
X200660000Y-100330000D03*
X200660000Y-97790000D03*
X200660000Y-95250000D03*
X200660000Y-92710000D03*
X200660000Y-105410000D03*
X200660000Y-107950000D03*
X200660000Y-110490000D03*
X198120000Y-92710000D03*
X195580000Y-92710000D03*
X193040000Y-92710000D03*
X190500000Y-92710000D03*
X187960000Y-92710000D03*
X185420000Y-92710000D03*
X182880000Y-92710000D03*
X180340000Y-92710000D03*
X198120000Y-90170000D03*
X195580000Y-90170000D03*
X193040000Y-90170000D03*
X190500000Y-90170000D03*
X187960000Y-90170000D03*
X185420000Y-90170000D03*
X182880000Y-90170000D03*
X180340000Y-90170000D03*
X177800000Y-90170000D03*
X177800000Y-92710000D03*
X177800000Y-95250000D03*
X177800000Y-97790000D03*
X177800000Y-100330000D03*
X177800000Y-102870000D03*
X177800000Y-105410000D03*
X177800000Y-107950000D03*
X177800000Y-110490000D03*
X177800000Y-115570000D03*
X175260000Y-92710000D03*
X175260000Y-95250000D03*
X175260000Y-97790000D03*
X175260000Y-100330000D03*
X175260000Y-102870000D03*
X175260000Y-105410000D03*
X175260000Y-107950000D03*
X175260000Y-110490000D03*
X175260000Y-113030000D03*
X177800000Y-113030000D03*
X180340000Y-113030000D03*
X182880000Y-113030000D03*
X185420000Y-113030000D03*
X187960000Y-113030000D03*
X190500000Y-113030000D03*
X193040000Y-113030000D03*
X195580000Y-113030000D03*
X200660000Y-113030000D03*
X180340000Y-115570000D03*
X182880000Y-115570000D03*
X185420000Y-115570000D03*
X187960000Y-115570000D03*
X190500000Y-115570000D03*
X193040000Y-115570000D03*
X195580000Y-115570000D03*
X198120000Y-115570000D03*
D12*
X179705000Y-139065000D03*
D13*
X172205000Y-139065000D03*
X189745000Y-123825000D03*
D12*
X182245000Y-123825000D03*
X182245000Y-127000000D03*
D13*
X189745000Y-127000000D03*
X189745000Y-130175000D03*
D12*
X182245000Y-130175000D03*
X182245000Y-133350000D03*
D13*
X189745000Y-133350000D03*
X199905000Y-123825000D03*
D12*
X192405000Y-123825000D03*
X192405000Y-127000000D03*
D13*
X199905000Y-127000000D03*
X199905000Y-130175000D03*
D12*
X192405000Y-130175000D03*
D20*
X186230300Y-105644800D03*
X185498300Y-106680000D03*
X183883500Y-107864600D03*
X180298600Y-105329800D03*
X172608800Y-104663200D03*
X179938700Y-103914600D03*
X158325700Y-106460700D03*
X133350000Y-108261700D03*
X169283000Y-113169200D03*
X173259400Y-113160900D03*
X172658700Y-92536500D03*
X186852900Y-89254500D03*
X128527500Y-121353800D03*
X138063800Y-94504100D03*
X145664200Y-96876000D03*
X172917900Y-96965300D03*
X177054000Y-96376200D03*
X175683700Y-88950700D03*
X165713100Y-101833400D03*
X166969700Y-99024700D03*
X191499400Y-96988400D03*
X156902800Y-125442700D03*
X179191100Y-129872300D03*
D21*
X137795000Y-117095300D02*
X138554400Y-117854700D01*
X138554400Y-117854700D02*
X149080300Y-117854700D01*
X149080300Y-117854700D02*
X149266900Y-118041300D01*
X149266900Y-118041300D02*
X153035000Y-118041300D01*
X117475000Y-139065000D02*
X117475000Y-140590300D01*
X117475000Y-140590300D02*
X112395000Y-140590300D01*
X120015000Y-139065000D02*
X117475000Y-139065000D01*
X112395000Y-139065000D02*
X112395000Y-140590300D01*
X122555000Y-140590300D02*
X123032600Y-141067900D01*
X123032600Y-141067900D02*
X144937400Y-141067900D01*
X144937400Y-141067900D02*
X145415000Y-140590300D01*
X145415000Y-140590300D02*
X145865300Y-141040600D01*
X145865300Y-141040600D02*
X169104100Y-141040600D01*
X169104100Y-141040600D02*
X171079700Y-139065000D01*
X172205000Y-139065000D02*
X171079700Y-139065000D01*
X153035000Y-119380000D02*
X153035000Y-118041300D01*
X199905000Y-127000000D02*
X198779700Y-127000000D01*
X189745000Y-127000000D02*
X190870300Y-127000000D01*
X190870300Y-127000000D02*
X190870300Y-126859300D01*
X190870300Y-126859300D02*
X191854900Y-125874700D01*
X191854900Y-125874700D02*
X197654400Y-125874700D01*
X197654400Y-125874700D02*
X198779700Y-127000000D01*
X130175000Y-117854700D02*
X137035600Y-117854700D01*
X137035600Y-117854700D02*
X137795000Y-117095300D01*
X130175000Y-117967300D02*
X130175000Y-117854700D01*
X130175000Y-119380000D02*
X130175000Y-117967300D01*
X109855000Y-119380000D02*
X109855000Y-117854700D01*
X109855000Y-117854700D02*
X130175000Y-117854700D01*
X199905000Y-130175000D02*
X199905000Y-127000000D01*
X137795000Y-115570000D02*
X137795000Y-117095300D01*
X172212000Y-135890000D02*
X175336400Y-135890000D01*
X175336400Y-135890000D02*
X176751100Y-134475300D01*
X176751100Y-134475300D02*
X187494400Y-134475300D01*
X187494400Y-134475300D02*
X188619700Y-133350000D01*
X189745000Y-133350000D02*
X188619700Y-133350000D01*
X122555000Y-139065000D02*
X122555000Y-140590300D01*
X145415000Y-139065000D02*
X145415000Y-140590300D01*
X112395000Y-139065000D02*
X109855000Y-139065000D01*
X112395000Y-131445000D02*
X114935000Y-131445000D01*
X122555000Y-139065000D02*
X120015000Y-139065000D01*
X104775000Y-128525300D02*
X105225300Y-128975600D01*
X105225300Y-128975600D02*
X124644700Y-128975600D01*
X124644700Y-128975600D02*
X125095000Y-128525300D01*
X104775000Y-127000000D02*
X104775000Y-128525300D01*
X125095000Y-127000000D02*
X125095000Y-128525300D01*
X145415000Y-127000000D02*
X145415000Y-128525300D01*
X168275000Y-127000000D02*
X168275000Y-128525300D01*
X145415000Y-128525300D02*
X168275000Y-128525300D01*
X142875000Y-127000000D02*
X145415000Y-127000000D01*
X125095000Y-139065000D02*
X125095000Y-137539700D01*
X147955000Y-139065000D02*
X147955000Y-140590300D01*
X168275000Y-139065000D02*
X168275000Y-140590300D01*
X168275000Y-140590300D02*
X147955000Y-140590300D01*
X183376900Y-131306900D02*
X191273100Y-131306900D01*
X191273100Y-131306900D02*
X192405000Y-130175000D01*
X182245000Y-130175000D02*
X183376900Y-131306900D01*
X183376900Y-131306900D02*
X182245000Y-132438800D01*
X182245000Y-132438800D02*
X182245000Y-133350000D01*
X102235000Y-137539700D02*
X125095000Y-137539700D01*
X102235000Y-139065000D02*
X102235000Y-137539700D01*
X174625000Y-124460000D02*
X175656900Y-123428100D01*
X175656900Y-123428100D02*
X181848100Y-123428100D01*
X181848100Y-123428100D02*
X182245000Y-123825000D01*
X102235000Y-127000000D02*
X104775000Y-127000000D01*
X99695000Y-119380000D02*
X102235000Y-119380000D01*
X97155000Y-119380000D02*
X99695000Y-119380000D01*
X198120000Y-105410000D02*
X197885200Y-105644800D01*
X197885200Y-105644800D02*
X186230300Y-105644800D01*
X200660000Y-105410000D02*
X199390000Y-106680000D01*
X199390000Y-106680000D02*
X185498300Y-106680000D01*
X198120000Y-107950000D02*
X183968900Y-107950000D01*
X183968900Y-107950000D02*
X183883500Y-107864600D01*
X200660000Y-107950000D02*
X199569700Y-109040300D01*
X199569700Y-109040300D02*
X184009100Y-109040300D01*
X184009100Y-109040300D02*
X180298600Y-105329800D01*
X198120000Y-110490000D02*
X184432900Y-110490000D01*
X184432900Y-110490000D02*
X178308100Y-104365200D01*
X178308100Y-104365200D02*
X172906800Y-104365200D01*
X172906800Y-104365200D02*
X172608800Y-104663200D01*
X200660000Y-110490000D02*
X201703600Y-109446400D01*
X201703600Y-109446400D02*
X201703600Y-104977500D01*
X201703600Y-104977500D02*
X200640700Y-103914600D01*
X200640700Y-103914600D02*
X179938700Y-103914600D01*
X158325700Y-106460700D02*
X169922900Y-106460700D01*
X169922900Y-106460700D02*
X172904100Y-109441900D01*
X172904100Y-109441900D02*
X181411800Y-109441900D01*
X181411800Y-109441900D02*
X183401000Y-111431100D01*
X183401000Y-111431100D02*
X196521100Y-111431100D01*
X196521100Y-111431100D02*
X198120000Y-113030000D01*
X147955000Y-115570000D02*
X148294700Y-115570000D01*
X148294700Y-115570000D02*
X149820000Y-117095300D01*
X149820000Y-117095300D02*
X164631900Y-117095300D01*
X164631900Y-117095300D02*
X165082200Y-117545600D01*
X165082200Y-117545600D02*
X169389100Y-117545600D01*
X169389100Y-117545600D02*
X171707000Y-119863500D01*
X171707000Y-119863500D02*
X192773600Y-119863500D01*
X192773600Y-119863500D02*
X196850000Y-115787100D01*
X196850000Y-115787100D02*
X196850000Y-115319500D01*
X196850000Y-115319500D02*
X197636100Y-114533400D01*
X197636100Y-114533400D02*
X199156600Y-114533400D01*
X199156600Y-114533400D02*
X200660000Y-113030000D01*
X145415000Y-117095300D02*
X148957800Y-117095300D01*
X148957800Y-117095300D02*
X149408100Y-117545600D01*
X149408100Y-117545600D02*
X163382500Y-117545600D01*
X163382500Y-117545600D02*
X164609700Y-118772800D01*
X164609700Y-118772800D02*
X164609700Y-120246200D01*
X164609700Y-120246200D02*
X165268800Y-120905300D01*
X165268800Y-120905300D02*
X169209800Y-120905300D01*
X169209800Y-120905300D02*
X169800200Y-120314900D01*
X169800200Y-120314900D02*
X193375100Y-120314900D01*
X193375100Y-120314900D02*
X198120000Y-115570000D01*
X145415000Y-115570000D02*
X145415000Y-117095300D01*
X142875000Y-114044700D02*
X143363100Y-113556600D01*
X143363100Y-113556600D02*
X166097100Y-113556600D01*
X166097100Y-113556600D02*
X168483800Y-115943300D01*
X168483800Y-115943300D02*
X169060600Y-115943300D01*
X169060600Y-115943300D02*
X172080200Y-118962900D01*
X172080200Y-118962900D02*
X188609300Y-118962900D01*
X188609300Y-118962900D02*
X191770000Y-115802200D01*
X191770000Y-115802200D02*
X191770000Y-115319500D01*
X191770000Y-115319500D02*
X192556100Y-114533400D01*
X192556100Y-114533400D02*
X194076600Y-114533400D01*
X194076600Y-114533400D02*
X195580000Y-113030000D01*
X142875000Y-115570000D02*
X142875000Y-114044700D01*
X140335000Y-117095300D02*
X143348600Y-117095300D01*
X143348600Y-117095300D02*
X144145000Y-116298900D01*
X144145000Y-116298900D02*
X144145000Y-114846000D01*
X144145000Y-114846000D02*
X144946300Y-114044700D01*
X144946300Y-114044700D02*
X163734200Y-114044700D01*
X163734200Y-114044700D02*
X164609700Y-114920200D01*
X164609700Y-114920200D02*
X164609700Y-116436200D01*
X164609700Y-116436200D02*
X165268800Y-117095300D01*
X165268800Y-117095300D02*
X169575700Y-117095300D01*
X169575700Y-117095300D02*
X171893600Y-119413200D01*
X171893600Y-119413200D02*
X191736800Y-119413200D01*
X191736800Y-119413200D02*
X195580000Y-115570000D01*
X140335000Y-115570000D02*
X140335000Y-117095300D01*
X135255000Y-114044700D02*
X136653800Y-112645900D01*
X136653800Y-112645900D02*
X166460200Y-112645900D01*
X166460200Y-112645900D02*
X168857000Y-115042700D01*
X168857000Y-115042700D02*
X169433800Y-115042700D01*
X169433800Y-115042700D02*
X172416400Y-118025300D01*
X172416400Y-118025300D02*
X186970700Y-118025300D01*
X186970700Y-118025300D02*
X189389400Y-115606600D01*
X189389400Y-115606600D02*
X189389400Y-114140600D01*
X189389400Y-114140600D02*
X190500000Y-113030000D01*
X135255000Y-115570000D02*
X135255000Y-114044700D01*
X132715000Y-117095300D02*
X135728300Y-117095300D01*
X135728300Y-117095300D02*
X136525000Y-116298600D01*
X136525000Y-116298600D02*
X136525000Y-114847600D01*
X136525000Y-114847600D02*
X138276400Y-113096200D01*
X138276400Y-113096200D02*
X166273600Y-113096200D01*
X166273600Y-113096200D02*
X168670400Y-115493000D01*
X168670400Y-115493000D02*
X169247200Y-115493000D01*
X169247200Y-115493000D02*
X172266800Y-118512600D01*
X172266800Y-118512600D02*
X187557400Y-118512600D01*
X187557400Y-118512600D02*
X190500000Y-115570000D01*
X132715000Y-115570000D02*
X132715000Y-117095300D01*
X133350000Y-108261700D02*
X133525100Y-108086600D01*
X133525100Y-108086600D02*
X169212400Y-108086600D01*
X169212400Y-108086600D02*
X173106200Y-111980400D01*
X173106200Y-111980400D02*
X186910400Y-111980400D01*
X186910400Y-111980400D02*
X187960000Y-113030000D01*
X125095000Y-114044700D02*
X133688000Y-114044700D01*
X133688000Y-114044700D02*
X135537100Y-112195600D01*
X135537100Y-112195600D02*
X166646800Y-112195600D01*
X166646800Y-112195600D02*
X169043600Y-114592400D01*
X169043600Y-114592400D02*
X169620400Y-114592400D01*
X169620400Y-114592400D02*
X172588600Y-117560600D01*
X172588600Y-117560600D02*
X184968600Y-117560600D01*
X184968600Y-117560600D02*
X186498100Y-116031100D01*
X186498100Y-116031100D02*
X186498100Y-114108100D01*
X186498100Y-114108100D02*
X185420000Y-113030000D01*
X125095000Y-115570000D02*
X125095000Y-114044700D01*
X122555000Y-114044700D02*
X124460600Y-112139100D01*
X124460600Y-112139100D02*
X134956700Y-112139100D01*
X134956700Y-112139100D02*
X135350500Y-111745300D01*
X135350500Y-111745300D02*
X166833400Y-111745300D01*
X166833400Y-111745300D02*
X169230200Y-114142100D01*
X169230200Y-114142100D02*
X169807000Y-114142100D01*
X169807000Y-114142100D02*
X172775200Y-117110300D01*
X172775200Y-117110300D02*
X183879700Y-117110300D01*
X183879700Y-117110300D02*
X185420000Y-115570000D01*
X122555000Y-115570000D02*
X122555000Y-114044700D01*
X120015000Y-114044700D02*
X122370900Y-111688800D01*
X122370900Y-111688800D02*
X134770100Y-111688800D01*
X134770100Y-111688800D02*
X135164100Y-111294800D01*
X135164100Y-111294800D02*
X167408600Y-111294800D01*
X167408600Y-111294800D02*
X169283000Y-113169200D01*
X120015000Y-115570000D02*
X120015000Y-114044700D01*
X117475000Y-115570000D02*
X121806500Y-111238500D01*
X121806500Y-111238500D02*
X134583500Y-111238500D01*
X134583500Y-111238500D02*
X134977500Y-110844500D01*
X134977500Y-110844500D02*
X167984100Y-110844500D01*
X167984100Y-110844500D02*
X173747800Y-116608200D01*
X173747800Y-116608200D02*
X181841800Y-116608200D01*
X181841800Y-116608200D02*
X182880000Y-115570000D01*
X114935000Y-114044700D02*
X118641800Y-110337900D01*
X118641800Y-110337900D02*
X134210300Y-110337900D01*
X134210300Y-110337900D02*
X134609300Y-109938900D01*
X134609300Y-109938900D02*
X168352300Y-109938900D01*
X168352300Y-109938900D02*
X172968800Y-114555400D01*
X172968800Y-114555400D02*
X176636800Y-114555400D01*
X176636800Y-114555400D02*
X177120000Y-114072200D01*
X177120000Y-114072200D02*
X179297800Y-114072200D01*
X179297800Y-114072200D02*
X180340000Y-113030000D01*
X114935000Y-115570000D02*
X114935000Y-114044700D01*
X112395000Y-117095300D02*
X115408300Y-117095300D01*
X115408300Y-117095300D02*
X116205000Y-116298600D01*
X116205000Y-116298600D02*
X116205000Y-114842600D01*
X116205000Y-114842600D02*
X120259400Y-110788200D01*
X120259400Y-110788200D02*
X134396900Y-110788200D01*
X134396900Y-110788200D02*
X134791800Y-110393300D01*
X134791800Y-110393300D02*
X168169800Y-110393300D01*
X168169800Y-110393300D02*
X172782200Y-115005700D01*
X172782200Y-115005700D02*
X176898400Y-115005700D01*
X176898400Y-115005700D02*
X177381500Y-114522600D01*
X177381500Y-114522600D02*
X179292600Y-114522600D01*
X179292600Y-114522600D02*
X180340000Y-115570000D01*
X112395000Y-115570000D02*
X112395000Y-117095300D01*
X109855000Y-114044700D02*
X114012100Y-109887600D01*
X114012100Y-109887600D02*
X134023700Y-109887600D01*
X134023700Y-109887600D02*
X134473800Y-109437500D01*
X134473800Y-109437500D02*
X168487800Y-109437500D01*
X168487800Y-109437500D02*
X173123300Y-114073000D01*
X173123300Y-114073000D02*
X176308000Y-114073000D01*
X176308000Y-114073000D02*
X177351000Y-113030000D01*
X177351000Y-113030000D02*
X177800000Y-113030000D01*
X109855000Y-115570000D02*
X109855000Y-114044700D01*
X107315000Y-114044700D02*
X111922400Y-109437300D01*
X111922400Y-109437300D02*
X133837100Y-109437300D01*
X133837100Y-109437300D02*
X134287200Y-108987200D01*
X134287200Y-108987200D02*
X168839200Y-108987200D01*
X168839200Y-108987200D02*
X173012900Y-113160900D01*
X173012900Y-113160900D02*
X173259400Y-113160900D01*
X107315000Y-115570000D02*
X107315000Y-114044700D01*
X104775000Y-114044700D02*
X109832700Y-108987000D01*
X109832700Y-108987000D02*
X133650500Y-108987000D01*
X133650500Y-108987000D02*
X134100600Y-108536900D01*
X134100600Y-108536900D02*
X169025800Y-108536900D01*
X169025800Y-108536900D02*
X172924500Y-112435600D01*
X172924500Y-112435600D02*
X174665600Y-112435600D01*
X174665600Y-112435600D02*
X175260000Y-113030000D01*
X104775000Y-115570000D02*
X104775000Y-114044700D01*
X102235000Y-114044700D02*
X108743500Y-107536200D01*
X108743500Y-107536200D02*
X134100700Y-107536200D01*
X134100700Y-107536200D02*
X134200800Y-107636300D01*
X134200800Y-107636300D02*
X169824700Y-107636300D01*
X169824700Y-107636300D02*
X173718300Y-111529900D01*
X173718300Y-111529900D02*
X176760100Y-111529900D01*
X176760100Y-111529900D02*
X177800000Y-110490000D01*
X102235000Y-115570000D02*
X102235000Y-114044700D01*
X99695000Y-114044700D02*
X106716400Y-107023300D01*
X106716400Y-107023300D02*
X157862600Y-107023300D01*
X157862600Y-107023300D02*
X158025300Y-107186000D01*
X158025300Y-107186000D02*
X170011300Y-107186000D01*
X170011300Y-107186000D02*
X173315300Y-110490000D01*
X173315300Y-110490000D02*
X175260000Y-110490000D01*
X99695000Y-115570000D02*
X99695000Y-114044700D01*
X97155000Y-115570000D02*
X97155000Y-114044700D01*
X177800000Y-107950000D02*
X176758500Y-108991500D01*
X176758500Y-108991500D02*
X173093000Y-108991500D01*
X173093000Y-108991500D02*
X169836700Y-105735200D01*
X169836700Y-105735200D02*
X105464500Y-105735200D01*
X105464500Y-105735200D02*
X97155000Y-114044700D01*
X175260000Y-107950000D02*
X172765200Y-107950000D01*
X172765200Y-107950000D02*
X170100000Y-105284800D01*
X170100000Y-105284800D02*
X103374900Y-105284800D01*
X103374900Y-105284800D02*
X94615000Y-114044700D01*
X94615000Y-115570000D02*
X94615000Y-114044700D01*
X177800000Y-105410000D02*
X176758300Y-106451700D01*
X176758300Y-106451700D02*
X172108100Y-106451700D01*
X172108100Y-106451700D02*
X170490900Y-104834500D01*
X170490900Y-104834500D02*
X101285200Y-104834500D01*
X101285200Y-104834500D02*
X92075000Y-114044700D01*
X92075000Y-115570000D02*
X92075000Y-114044700D01*
X175260000Y-105410000D02*
X172329700Y-105410000D01*
X172329700Y-105410000D02*
X171303800Y-104384100D01*
X171303800Y-104384100D02*
X99195600Y-104384100D01*
X99195600Y-104384100D02*
X89535000Y-114044700D01*
X89535000Y-115570000D02*
X89535000Y-114044700D01*
X177800000Y-102870000D02*
X176755300Y-103914700D01*
X176755300Y-103914700D02*
X97125000Y-103914700D01*
X97125000Y-103914700D02*
X86995000Y-114044700D01*
X86995000Y-115570000D02*
X86995000Y-114044700D01*
X86995000Y-90170000D02*
X86995000Y-91695300D01*
X175260000Y-102870000D02*
X98169700Y-102870000D01*
X98169700Y-102870000D02*
X86995000Y-91695300D01*
X89535000Y-91695300D02*
X98503500Y-100663800D01*
X98503500Y-100663800D02*
X167684200Y-100663800D01*
X167684200Y-100663800D02*
X168392100Y-101371700D01*
X168392100Y-101371700D02*
X176758300Y-101371700D01*
X176758300Y-101371700D02*
X177800000Y-100330000D01*
X89535000Y-90170000D02*
X89535000Y-91695300D01*
X92075000Y-90170000D02*
X92075000Y-91695300D01*
X175260000Y-100330000D02*
X174693200Y-99763200D01*
X174693200Y-99763200D02*
X100142900Y-99763200D01*
X100142900Y-99763200D02*
X92075000Y-91695300D01*
X94615000Y-90170000D02*
X94615000Y-91695300D01*
X177800000Y-97790000D02*
X177161100Y-97790000D01*
X177161100Y-97790000D02*
X176120400Y-96749300D01*
X176120400Y-96749300D02*
X174223900Y-96749300D01*
X174223900Y-96749300D02*
X173625300Y-96150700D01*
X173625300Y-96150700D02*
X99070400Y-96150700D01*
X99070400Y-96150700D02*
X94615000Y-91695300D01*
X177800000Y-95250000D02*
X177139700Y-95250000D01*
X177139700Y-95250000D02*
X176094900Y-96294800D01*
X176094900Y-96294800D02*
X174825600Y-96294800D01*
X174825600Y-96294800D02*
X174217300Y-95686500D01*
X174217300Y-95686500D02*
X101146200Y-95686500D01*
X101146200Y-95686500D02*
X97155000Y-91695300D01*
X97155000Y-90170000D02*
X97155000Y-91695300D01*
X175260000Y-95250000D02*
X175246200Y-95236200D01*
X175246200Y-95236200D02*
X103235900Y-95236200D01*
X103235900Y-95236200D02*
X99695000Y-91695300D01*
X99695000Y-90170000D02*
X99695000Y-91695300D01*
X177800000Y-92710000D02*
X176763300Y-93746700D01*
X176763300Y-93746700D02*
X124958100Y-93746700D01*
X124958100Y-93746700D02*
X124758000Y-93946800D01*
X124758000Y-93946800D02*
X104486500Y-93946800D01*
X104486500Y-93946800D02*
X102235000Y-91695300D01*
X102235000Y-90170000D02*
X102235000Y-91695300D01*
X104775000Y-91695300D02*
X106576200Y-93496500D01*
X106576200Y-93496500D02*
X124571400Y-93496500D01*
X124571400Y-93496500D02*
X124796600Y-93271300D01*
X124796600Y-93271300D02*
X174698700Y-93271300D01*
X174698700Y-93271300D02*
X175260000Y-92710000D01*
X104775000Y-90170000D02*
X104775000Y-91695300D01*
X107315000Y-91695300D02*
X108665900Y-93046200D01*
X108665900Y-93046200D02*
X124384800Y-93046200D01*
X124384800Y-93046200D02*
X124807900Y-92623100D01*
X124807900Y-92623100D02*
X172572100Y-92623100D01*
X172572100Y-92623100D02*
X172658700Y-92536500D01*
X107315000Y-90170000D02*
X107315000Y-91695300D01*
X109855000Y-91695300D02*
X110755600Y-92595900D01*
X110755600Y-92595900D02*
X124198200Y-92595900D01*
X124198200Y-92595900D02*
X124648400Y-92145700D01*
X124648400Y-92145700D02*
X169399400Y-92145700D01*
X169399400Y-92145700D02*
X169886700Y-91658400D01*
X169886700Y-91658400D02*
X178401500Y-91658400D01*
X178401500Y-91658400D02*
X179453100Y-92710000D01*
X179453100Y-92710000D02*
X180340000Y-92710000D01*
X109855000Y-90170000D02*
X109855000Y-91695300D01*
X180340000Y-90170000D02*
X177901400Y-87731400D01*
X177901400Y-87731400D02*
X125536900Y-87731400D01*
X125536900Y-87731400D02*
X123825000Y-89443300D01*
X123825000Y-89443300D02*
X123825000Y-90894800D01*
X123825000Y-90894800D02*
X123024500Y-91695300D01*
X123024500Y-91695300D02*
X113920300Y-91695300D01*
X113920300Y-91695300D02*
X112395000Y-90170000D01*
X142875000Y-131445000D02*
X142875000Y-129919700D01*
X117024700Y-121355600D02*
X117475000Y-120905300D01*
X94615000Y-120905300D02*
X95065300Y-121355600D01*
X95065300Y-121355600D02*
X117024700Y-121355600D01*
X142875000Y-129919700D02*
X138723100Y-129919700D01*
X138723100Y-129919700D02*
X136525000Y-127721600D01*
X136525000Y-127721600D02*
X136525000Y-126205300D01*
X136525000Y-126205300D02*
X135794400Y-125474700D01*
X135794400Y-125474700D02*
X124613800Y-125474700D01*
X124613800Y-125474700D02*
X123825000Y-126263500D01*
X123825000Y-126263500D02*
X123825000Y-127818500D01*
X123825000Y-127818500D02*
X123118200Y-128525300D01*
X123118200Y-128525300D02*
X119541300Y-128525300D01*
X119541300Y-128525300D02*
X118818900Y-127802900D01*
X118818900Y-127802900D02*
X118818900Y-123149800D01*
X118818900Y-123149800D02*
X117024700Y-121355600D01*
X117475000Y-120142600D02*
X119252400Y-120142600D01*
X119252400Y-120142600D02*
X120015000Y-119380000D01*
X117475000Y-120142600D02*
X117475000Y-120905300D01*
X117475000Y-119380000D02*
X117475000Y-120142600D01*
X94615000Y-119380000D02*
X94615000Y-120905300D01*
X185420000Y-90170000D02*
X182531100Y-87281100D01*
X182531100Y-87281100D02*
X123918600Y-87281100D01*
X123918600Y-87281100D02*
X122555000Y-88644700D01*
X122555000Y-90170000D02*
X122555000Y-88644700D01*
X186852900Y-89254500D02*
X184429200Y-86830800D01*
X184429200Y-86830800D02*
X113695800Y-86830800D01*
X113695800Y-86830800D02*
X111268600Y-89258000D01*
X111268600Y-89258000D02*
X111268600Y-91119700D01*
X111268600Y-91119700D02*
X112294500Y-92145600D01*
X112294500Y-92145600D02*
X124011500Y-92145600D01*
X124011500Y-92145600D02*
X124461800Y-91695300D01*
X124461800Y-91695300D02*
X125095000Y-91695300D01*
X125095000Y-90170000D02*
X125095000Y-91695300D01*
X155575000Y-125474700D02*
X154224100Y-124123800D01*
X154224100Y-124123800D02*
X131297500Y-124123800D01*
X131297500Y-124123800D02*
X128527500Y-121353800D01*
X97155000Y-131445000D02*
X97155000Y-132970300D01*
X132715000Y-139065000D02*
X132715000Y-137539700D01*
X132715000Y-137539700D02*
X130589500Y-135414200D01*
X130589500Y-135414200D02*
X99598900Y-135414200D01*
X99598900Y-135414200D02*
X97155000Y-132970300D01*
X155575000Y-127000000D02*
X155575000Y-125474700D01*
X138063800Y-94504100D02*
X138354500Y-94213400D01*
X138354500Y-94213400D02*
X194076600Y-94213400D01*
X194076600Y-94213400D02*
X195580000Y-92710000D01*
X137795000Y-90170000D02*
X137795000Y-88644700D01*
X195580000Y-90170000D02*
X194541800Y-91208200D01*
X194541800Y-91208200D02*
X179897900Y-91208200D01*
X179897900Y-91208200D02*
X179070000Y-90380300D01*
X179070000Y-90380300D02*
X179070000Y-89958600D01*
X179070000Y-89958600D02*
X177305700Y-88194300D01*
X177305700Y-88194300D02*
X138245400Y-88194300D01*
X138245400Y-88194300D02*
X137795000Y-88644700D01*
X198120000Y-92710000D02*
X194566900Y-96263100D01*
X194566900Y-96263100D02*
X191199000Y-96263100D01*
X191199000Y-96263100D02*
X191085900Y-96376200D01*
X191085900Y-96376200D02*
X177054000Y-96376200D01*
X172917900Y-96965300D02*
X172828600Y-96876000D01*
X172828600Y-96876000D02*
X145664200Y-96876000D01*
X175683700Y-88950700D02*
X175377700Y-88644700D01*
X175377700Y-88644700D02*
X147955000Y-88644700D01*
X147955000Y-90170000D02*
X147955000Y-88644700D01*
X150495000Y-90170000D02*
X150495000Y-91695300D01*
X200660000Y-95250000D02*
X199389900Y-93979900D01*
X199389900Y-93979900D02*
X199389900Y-92466100D01*
X199389900Y-92466100D02*
X198597200Y-91673400D01*
X198597200Y-91673400D02*
X179215100Y-91673400D01*
X179215100Y-91673400D02*
X178749700Y-91208000D01*
X178749700Y-91208000D02*
X169063400Y-91208000D01*
X169063400Y-91208000D02*
X168576100Y-91695300D01*
X168576100Y-91695300D02*
X150495000Y-91695300D01*
X140335000Y-125474700D02*
X139884700Y-125024400D01*
X139884700Y-125024400D02*
X123005300Y-125024400D01*
X123005300Y-125024400D02*
X122555000Y-125474700D01*
X140335000Y-128525300D02*
X140785300Y-128975600D01*
X140785300Y-128975600D02*
X162250900Y-128975600D01*
X162250900Y-128975600D02*
X163195000Y-129919700D01*
X140335000Y-127000000D02*
X140335000Y-128525300D01*
X163195000Y-131445000D02*
X163195000Y-129919700D01*
X140335000Y-127000000D02*
X140335000Y-125474700D01*
X122555000Y-127000000D02*
X122555000Y-125474700D01*
X140335000Y-139065000D02*
X142875000Y-139065000D01*
X200660000Y-97790000D02*
X201708600Y-98838600D01*
X201708600Y-98838600D02*
X201708600Y-100754400D01*
X201708600Y-100754400D02*
X200629600Y-101833400D01*
X200629600Y-101833400D02*
X165713100Y-101833400D01*
X166969700Y-99024700D02*
X195204100Y-99024700D01*
X195204100Y-99024700D02*
X196509400Y-100330000D01*
X196509400Y-100330000D02*
X198120000Y-100330000D01*
X200660000Y-100330000D02*
X199354700Y-99024700D01*
X199354700Y-99024700D02*
X196264600Y-99024700D01*
X196264600Y-99024700D02*
X194228300Y-96988400D01*
X194228300Y-96988400D02*
X191499400Y-96988400D01*
X163195000Y-120905300D02*
X163645300Y-121355600D01*
X163645300Y-121355600D02*
X171218300Y-121355600D01*
X171218300Y-121355600D02*
X171679200Y-120894700D01*
X171679200Y-120894700D02*
X177654400Y-120894700D01*
X177654400Y-120894700D02*
X178679700Y-121920000D01*
X179705000Y-121920000D02*
X178679700Y-121920000D01*
X163195000Y-119380000D02*
X163195000Y-120905300D01*
X179705000Y-127000000D02*
X178679700Y-127000000D01*
X155575000Y-119380000D02*
X155575000Y-120905300D01*
X155575000Y-120905300D02*
X157511300Y-122841600D01*
X157511300Y-122841600D02*
X169864700Y-122841600D01*
X169864700Y-122841600D02*
X172997800Y-125974700D01*
X172997800Y-125974700D02*
X177654400Y-125974700D01*
X177654400Y-125974700D02*
X178679700Y-127000000D01*
X142875000Y-120905300D02*
X129104800Y-120905300D01*
X129104800Y-120905300D02*
X128828000Y-120628500D01*
X128828000Y-120628500D02*
X127068200Y-120628500D01*
X127068200Y-120628500D02*
X126791400Y-120905300D01*
X126791400Y-120905300D02*
X124584400Y-120905300D01*
X124584400Y-120905300D02*
X120015000Y-125474700D01*
X120015000Y-127000000D02*
X120015000Y-125474700D01*
X142875000Y-119380000D02*
X142875000Y-120905300D01*
X135255000Y-128525300D02*
X134311000Y-129469300D01*
X134311000Y-129469300D02*
X103993200Y-129469300D01*
X103993200Y-129469300D02*
X103049200Y-128525300D01*
X103049200Y-128525300D02*
X99695000Y-128525300D01*
X135255000Y-127000000D02*
X135255000Y-128525300D01*
X99695000Y-127000000D02*
X99695000Y-128525300D01*
X145415000Y-119380000D02*
X145415000Y-120905300D01*
X145415000Y-120905300D02*
X152365400Y-120905300D01*
X152365400Y-120905300D02*
X156902800Y-125442700D01*
X112395000Y-119380000D02*
X112395000Y-120905300D01*
X92075000Y-127000000D02*
X92075000Y-125474700D01*
X92075000Y-125474700D02*
X93345000Y-124204700D01*
X93345000Y-124204700D02*
X93345000Y-118587400D01*
X93345000Y-118587400D02*
X94077800Y-117854600D01*
X94077800Y-117854600D02*
X105746200Y-117854600D01*
X105746200Y-117854600D02*
X108796900Y-120905300D01*
X108796900Y-120905300D02*
X112395000Y-120905300D01*
X158115000Y-127000000D02*
X158115000Y-125474700D01*
X158115000Y-125474700D02*
X169059900Y-125474700D01*
X169059900Y-125474700D02*
X170585200Y-127000000D01*
X170585200Y-127000000D02*
X174625000Y-127000000D01*
X130175000Y-139065000D02*
X130175000Y-140590300D01*
X179191100Y-129872300D02*
X174671100Y-134392300D01*
X174671100Y-134392300D02*
X143008800Y-134392300D01*
X143008800Y-134392300D02*
X139065000Y-138336100D01*
X139065000Y-138336100D02*
X139065000Y-139857800D01*
X139065000Y-139857800D02*
X138332500Y-140590300D01*
X138332500Y-140590300D02*
X130175000Y-140590300D01*
X137795000Y-127000000D02*
X140220900Y-129425900D01*
X140220900Y-129425900D02*
X160659900Y-129425900D01*
X160659900Y-129425900D02*
X161925000Y-130691000D01*
X161925000Y-130691000D02*
X161925000Y-132202800D01*
X161925000Y-132202800D02*
X162692500Y-132970300D01*
X162692500Y-132970300D02*
X165735000Y-132970300D01*
X165735000Y-131445000D02*
X165735000Y-132970300D01*
X155575000Y-131445000D02*
X155575000Y-132970300D01*
X97155000Y-127000000D02*
X97155000Y-128525300D01*
X97155000Y-128525300D02*
X92825400Y-128525300D01*
X92825400Y-128525300D02*
X90913500Y-130437200D01*
X90913500Y-130437200D02*
X90913500Y-132304200D01*
X90913500Y-132304200D02*
X91627900Y-133018600D01*
X91627900Y-133018600D02*
X92538500Y-133018600D01*
X92538500Y-133018600D02*
X93345000Y-132212100D01*
X93345000Y-132212100D02*
X93345000Y-130707700D01*
X93345000Y-130707700D02*
X94133000Y-129919700D01*
X94133000Y-129919700D02*
X103169800Y-129919700D01*
X103169800Y-129919700D02*
X103360300Y-130110200D01*
X103360300Y-130110200D02*
X103360300Y-130219500D01*
X103360300Y-130219500D02*
X106578700Y-133437900D01*
X106578700Y-133437900D02*
X155107400Y-133437900D01*
X155107400Y-133437900D02*
X155575000Y-132970300D01*
X99695000Y-132970300D02*
X100613000Y-133888300D01*
X100613000Y-133888300D02*
X172832700Y-133888300D01*
X172832700Y-133888300D02*
X178070800Y-128650200D01*
X178070800Y-128650200D02*
X185382000Y-128650200D01*
X185382000Y-128650200D02*
X188619600Y-125412600D01*
X188619600Y-125412600D02*
X201072300Y-125412600D01*
X201072300Y-125412600D02*
X202024700Y-126365000D01*
X99695000Y-131445000D02*
X99695000Y-132970300D01*
X203200000Y-126365000D02*
X202024700Y-126365000D01*
X158115000Y-129919700D02*
X145415000Y-129919700D01*
X158115000Y-131445000D02*
X158115000Y-129919700D01*
X145415000Y-131445000D02*
X145415000Y-129919700D01*
X137795000Y-131445000D02*
X137795000Y-129919700D01*
X120015000Y-131445000D02*
X120015000Y-129919700D01*
X120015000Y-129919700D02*
X137795000Y-129919700D01*
X125095000Y-132857700D02*
X124973200Y-132979500D01*
X124973200Y-132979500D02*
X106819100Y-132979500D01*
X106819100Y-132979500D02*
X103810600Y-129971000D01*
X103810600Y-129971000D02*
X103810600Y-129923600D01*
X103810600Y-129923600D02*
X103356400Y-129469400D01*
X103356400Y-129469400D02*
X92525300Y-129469400D01*
X92525300Y-129469400D02*
X92075000Y-129919700D01*
X92075000Y-131445000D02*
X92075000Y-129919700D01*
X147955000Y-132970300D02*
X125207600Y-132970300D01*
X125207600Y-132970300D02*
X125095000Y-132857700D01*
X125095000Y-131445000D02*
X125095000Y-132857700D01*
X147955000Y-131445000D02*
X147955000Y-132970300D01*
X174625000Y-121920000D02*
X161669700Y-121920000D01*
X161669700Y-121920000D02*
X160655000Y-120905300D01*
X160655000Y-119380000D02*
X160655000Y-120905300D01*
M02*
