M48
; DRILL file {KiCad (5.1.2-1)-1} date Wednesday, 12 June 2019 at 00:21:15
; FORMAT={3:3/ absolute / metric / suppress leading zeros}
; #@! TF.CreationDate,2019-06-12T00:21:15+01:00
; #@! TF.GenerationSoftware,Kicad,Pcbnew,(5.1.2-1)-1
FMAT,2
METRIC,TZ
T1C0.300
T2C0.700
T3C0.800
T4C1.000
%
G90
G05
T1
X115186Y-94134
X122110Y-129789
X123002Y-124268
X129689Y-107725
X130911Y-122805
X141073Y-86892
X144490Y-87374
X149302Y-117164
X160081Y-116764
X160451Y-104113
X162529Y-96017
X164498Y-105299
X166600Y-111544
X166748Y-98803
X167356Y-117000
X167827Y-110322
X170353Y-89381
X171476Y-112227
X173496Y-99432
X174128Y-101554
X178617Y-96881
X179243Y-102334
X184559Y-104378
X184773Y-105896
T2
X187833Y-130175
X192913Y-130175
X187833Y-127000
X192913Y-127000
X187833Y-123825
X192913Y-123825
T3
X109855Y-132715
X109855Y-140335
X112395Y-132715
X112395Y-140335
X114935Y-132715
X114935Y-140335
X117475Y-132715
X117475Y-140335
X120015Y-132715
X120015Y-140335
X122555Y-132715
X122555Y-140335
X125095Y-132715
X125095Y-140335
X127635Y-132715
X127635Y-140335
X135255Y-119380
X135255Y-127000
X137795Y-119380
X137795Y-127000
X140335Y-119380
X140335Y-127000
X142875Y-119380
X142875Y-127000
X145415Y-119380
X145415Y-127000
X147955Y-119380
X147955Y-127000
X150495Y-119380
X150495Y-127000
X135255Y-132715
X135255Y-140335
X137795Y-132715
X137795Y-140335
X140335Y-132715
X140335Y-140335
X142875Y-132715
X142875Y-140335
X145415Y-132715
X145415Y-140335
X147955Y-132715
X147955Y-140335
X150495Y-132715
X150495Y-140335
X153035Y-132715
X153035Y-140335
X108585Y-119500
X108585Y-127000
X161290Y-120650
X161290Y-128270
X163830Y-120650
X163830Y-128270
X166370Y-120650
X166370Y-128270
X168910Y-120650
X168910Y-128270
X171450Y-120650
X171450Y-128270
X173990Y-120650
X173990Y-128270
X176530Y-120650
X176530Y-128270
X180340Y-132835
X180340Y-140335
X195580Y-120650
X203080Y-120650
X161290Y-132715
X161290Y-140335
X163830Y-132715
X163830Y-140335
X166370Y-132715
X166370Y-140335
X168910Y-132715
X168910Y-140335
X171450Y-132715
X171450Y-140335
X173990Y-132715
X173990Y-140335
X176530Y-132715
X176530Y-140335
X156845Y-132835
X156845Y-140335
X86995Y-132715
X86995Y-140335
X89535Y-132715
X89535Y-140335
X92075Y-132715
X92075Y-140335
X94615Y-132715
X94615Y-140335
X97155Y-132715
X97155Y-140335
X99695Y-132715
X99695Y-140335
X102235Y-132715
X102235Y-140335
X86995Y-119380
X86995Y-127000
X89535Y-119380
X89535Y-127000
X92075Y-119380
X92075Y-127000
X94615Y-119380
X94615Y-127000
X97155Y-119380
X97155Y-127000
X99695Y-119380
X99695Y-127000
X102235Y-119380
X102235Y-127000
X104775Y-119380
X104775Y-127000
X86995Y-90170
X86995Y-113030
X89535Y-90170
X89535Y-113030
X92075Y-90170
X92075Y-113030
X94615Y-90170
X94615Y-113030
X97155Y-90170
X97155Y-113030
X99695Y-90170
X99695Y-113030
X102235Y-90170
X102235Y-113030
X104775Y-90170
X104775Y-113030
X107315Y-90170
X107315Y-113030
X109855Y-90170
X109855Y-113030
X112395Y-90170
X112395Y-113030
X114935Y-90170
X114935Y-113030
X117475Y-90170
X117475Y-113030
X120015Y-90170
X120015Y-113030
X122555Y-90170
X122555Y-113030
X125095Y-90170
X125095Y-113030
X127635Y-90170
X127635Y-113030
X130175Y-90170
X130175Y-113030
X132715Y-90170
X132715Y-113030
X135255Y-90170
X135255Y-113030
X137795Y-90170
X137795Y-113030
X140335Y-90170
X140335Y-113030
X142875Y-90170
X142875Y-113030
X145415Y-90170
X145415Y-113030
X147955Y-90170
X147955Y-113030
X150495Y-90170
X150495Y-113030
X153035Y-90170
X153035Y-113030
X155575Y-90170
X155575Y-113030
X158115Y-90170
X158115Y-113030
X160655Y-90170
X160655Y-113030
X163195Y-90170
X163195Y-113030
X165735Y-90170
X165735Y-113030
X131445Y-132835
X131445Y-140335
X154305Y-119500
X154305Y-127000
X175260Y-92710
X175260Y-95250
X175260Y-97790
X175260Y-100330
X175260Y-102870
X175260Y-105410
X175260Y-107950
X175260Y-110490
X175260Y-113030
X177800Y-90170
X177800Y-92710
X177800Y-95250
X177800Y-97790
X177800Y-100330
X177800Y-102870
X177800Y-105410
X177800Y-107950
X177800Y-110490
X177800Y-113030
X177800Y-115570
X180340Y-90170
X180340Y-92710
X180340Y-113030
X180340Y-115570
X182880Y-90170
X182880Y-92710
X182880Y-113030
X182880Y-115570
X185420Y-90170
X185420Y-92710
X185420Y-113030
X185420Y-115570
X187960Y-90170
X187960Y-92710
X187960Y-113030
X187960Y-115570
X190500Y-90170
X190500Y-92710
X190500Y-113030
X190500Y-115570
X193040Y-90170
X193040Y-92710
X193040Y-113030
X193040Y-115570
X195580Y-90170
X195580Y-92710
X195580Y-113030
X195580Y-115570
X198120Y-90170
X198120Y-92710
X198120Y-95250
X198120Y-97790
X198120Y-100330
X198120Y-102870
X198120Y-105410
X198120Y-107950
X198120Y-110490
X198120Y-113030
X198120Y-115570
X200660Y-92710
X200660Y-95250
X200660Y-97790
X200660Y-100330
X200660Y-102870
X200660Y-105410
X200660Y-107950
X200660Y-110490
X200660Y-113030
X195573Y-123825
X203073Y-123825
X180340Y-120650
X180340Y-128150
X185420Y-120650
X192920Y-120650
X195573Y-130175
X203073Y-130175
X112395Y-119380
X112395Y-127000
X114935Y-119380
X114935Y-127000
X117475Y-119380
X117475Y-127000
X120015Y-119380
X120015Y-127000
X122555Y-119380
X122555Y-127000
X125095Y-119380
X125095Y-127000
X127635Y-119380
X127635Y-127000
X131445Y-119500
X131445Y-127000
X106045Y-132835
X106045Y-140335
T4
X187833Y-133985
X190373Y-133985
X192913Y-133985
T0
M30
