G04 #@! TF.GenerationSoftware,KiCad,Pcbnew,(5.1.2-1)-1*
G04 #@! TF.CreationDate,2019-06-02T17:28:59+01:00*
G04 #@! TF.ProjectId,A500 14Mhz Accelerator,41353030-2031-4344-9d68-7a2041636365,rev?*
G04 #@! TF.SameCoordinates,Original*
G04 #@! TF.FileFunction,Legend,Top*
G04 #@! TF.FilePolarity,Positive*
%FSLAX46Y46*%
G04 Gerber Fmt 4.6, Leading zero omitted, Abs format (unit mm)*
G04 Created by KiCad (PCBNEW (5.1.2-1)-1) date 2019-06-02 17:28:59*
%MOMM*%
%LPD*%
G04 APERTURE LIST*
%ADD10C,0.150000*%
%ADD11C,0.125000*%
%ADD12C,0.120000*%
G04 APERTURE END LIST*
D10*
X202750729Y-103957380D02*
X202179300Y-103957380D01*
X202465014Y-103957380D02*
X202590014Y-102957380D01*
X202476919Y-103100238D01*
X202369776Y-103195476D01*
X202268586Y-103243095D01*
D11*
X192433177Y-134954404D02*
X191976034Y-134954404D01*
X192204605Y-134954404D02*
X192304605Y-134154404D01*
X192214129Y-134268690D01*
X192128415Y-134344880D01*
X192047462Y-134382976D01*
X193185558Y-134421071D02*
X193118891Y-134954404D01*
X193033177Y-134116309D02*
X192771272Y-134687738D01*
X193266510Y-134687738D01*
X193537938Y-134954404D02*
X193637938Y-134154404D01*
X193833177Y-134725833D01*
X194171272Y-134154404D01*
X194071272Y-134954404D01*
X194452224Y-134954404D02*
X194552224Y-134154404D01*
X194795081Y-134954404D02*
X194847462Y-134535357D01*
X194818891Y-134459166D01*
X194747462Y-134421071D01*
X194633177Y-134421071D01*
X194552224Y-134459166D01*
X194509367Y-134497261D01*
X195166510Y-134421071D02*
X195585558Y-134421071D01*
X195099843Y-134954404D01*
X195518891Y-134954404D01*
X196423653Y-134725833D02*
X196804605Y-134725833D01*
X196318891Y-134954404D02*
X196685558Y-134154404D01*
X196852224Y-134954404D01*
X197466510Y-134916309D02*
X197385558Y-134954404D01*
X197233177Y-134954404D01*
X197161748Y-134916309D01*
X197128415Y-134878214D01*
X197099843Y-134802023D01*
X197128415Y-134573452D01*
X197176034Y-134497261D01*
X197218891Y-134459166D01*
X197299843Y-134421071D01*
X197452224Y-134421071D01*
X197523653Y-134459166D01*
X198152224Y-134916309D02*
X198071272Y-134954404D01*
X197918891Y-134954404D01*
X197847462Y-134916309D01*
X197814129Y-134878214D01*
X197785558Y-134802023D01*
X197814129Y-134573452D01*
X197861748Y-134497261D01*
X197904605Y-134459166D01*
X197985558Y-134421071D01*
X198137938Y-134421071D01*
X198209367Y-134459166D01*
X198799843Y-134916309D02*
X198718891Y-134954404D01*
X198566510Y-134954404D01*
X198495081Y-134916309D01*
X198466510Y-134840119D01*
X198504605Y-134535357D01*
X198552224Y-134459166D01*
X198633177Y-134421071D01*
X198785558Y-134421071D01*
X198856986Y-134459166D01*
X198885558Y-134535357D01*
X198876034Y-134611547D01*
X198485558Y-134687738D01*
X199290319Y-134954404D02*
X199218891Y-134916309D01*
X199190319Y-134840119D01*
X199276034Y-134154404D01*
X199904605Y-134916309D02*
X199823653Y-134954404D01*
X199671272Y-134954404D01*
X199599843Y-134916309D01*
X199571272Y-134840119D01*
X199609367Y-134535357D01*
X199656986Y-134459166D01*
X199737938Y-134421071D01*
X199890319Y-134421071D01*
X199961748Y-134459166D01*
X199990319Y-134535357D01*
X199980796Y-134611547D01*
X199590319Y-134687738D01*
X200280796Y-134954404D02*
X200347462Y-134421071D01*
X200328415Y-134573452D02*
X200376034Y-134497261D01*
X200418891Y-134459166D01*
X200499843Y-134421071D01*
X200576034Y-134421071D01*
X201118891Y-134954404D02*
X201171272Y-134535357D01*
X201142700Y-134459166D01*
X201071272Y-134421071D01*
X200918891Y-134421071D01*
X200837938Y-134459166D01*
X201123653Y-134916309D02*
X201042700Y-134954404D01*
X200852224Y-134954404D01*
X200780796Y-134916309D01*
X200752224Y-134840119D01*
X200761748Y-134763928D01*
X200809367Y-134687738D01*
X200890319Y-134649642D01*
X201080796Y-134649642D01*
X201161748Y-134611547D01*
X201452224Y-134421071D02*
X201756986Y-134421071D01*
X201599843Y-134154404D02*
X201514129Y-134840119D01*
X201542700Y-134916309D01*
X201614129Y-134954404D01*
X201690319Y-134954404D01*
X202071272Y-134954404D02*
X201999843Y-134916309D01*
X201966510Y-134878214D01*
X201937938Y-134802023D01*
X201966510Y-134573452D01*
X202014129Y-134497261D01*
X202056986Y-134459166D01*
X202137938Y-134421071D01*
X202252224Y-134421071D01*
X202323653Y-134459166D01*
X202356986Y-134497261D01*
X202385558Y-134573452D01*
X202356986Y-134802023D01*
X202309367Y-134878214D01*
X202266510Y-134916309D01*
X202185558Y-134954404D01*
X202071272Y-134954404D01*
X202680796Y-134954404D02*
X202747462Y-134421071D01*
X202728415Y-134573452D02*
X202776034Y-134497261D01*
X202818891Y-134459166D01*
X202899843Y-134421071D01*
X202976034Y-134421071D01*
X191747462Y-136584166D02*
X191714129Y-136546071D01*
X191652224Y-136431785D01*
X191623653Y-136355595D01*
X191599843Y-136241309D01*
X191585558Y-136050833D01*
X191604605Y-135898452D01*
X191666510Y-135707976D01*
X191718891Y-135593690D01*
X191766510Y-135517500D01*
X191856986Y-135403214D01*
X191899843Y-135365119D01*
X192556986Y-136203214D02*
X192514129Y-136241309D01*
X192395081Y-136279404D01*
X192318891Y-136279404D01*
X192209367Y-136241309D01*
X192142700Y-136165119D01*
X192114129Y-136088928D01*
X192095081Y-135936547D01*
X192109367Y-135822261D01*
X192166510Y-135669880D01*
X192214129Y-135593690D01*
X192299843Y-135517500D01*
X192418891Y-135479404D01*
X192495081Y-135479404D01*
X192604605Y-135517500D01*
X192637938Y-135555595D01*
X192776034Y-136584166D02*
X192818891Y-136546071D01*
X192909367Y-136431785D01*
X192956986Y-136355595D01*
X193009367Y-136241309D01*
X193071272Y-136050833D01*
X193090319Y-135898452D01*
X193076034Y-135707976D01*
X193052224Y-135593690D01*
X193023653Y-135517500D01*
X192961748Y-135403214D01*
X192928415Y-135365119D01*
X194452224Y-136279404D02*
X193995081Y-136279404D01*
X194223653Y-136279404D02*
X194323653Y-135479404D01*
X194233177Y-135593690D01*
X194147462Y-135669880D01*
X194066510Y-135707976D01*
X194833177Y-136279404D02*
X194985558Y-136279404D01*
X195066510Y-136241309D01*
X195109367Y-136203214D01*
X195199843Y-136088928D01*
X195256986Y-135936547D01*
X195295081Y-135631785D01*
X195266510Y-135555595D01*
X195233177Y-135517500D01*
X195161748Y-135479404D01*
X195009367Y-135479404D01*
X194928415Y-135517500D01*
X194885558Y-135555595D01*
X194837938Y-135631785D01*
X194814129Y-135822261D01*
X194842700Y-135898452D01*
X194876034Y-135936547D01*
X194947462Y-135974642D01*
X195099843Y-135974642D01*
X195180796Y-135936547D01*
X195223653Y-135898452D01*
X195271272Y-135822261D01*
X195595081Y-136279404D02*
X195747462Y-136279404D01*
X195828415Y-136241309D01*
X195871272Y-136203214D01*
X195961748Y-136088928D01*
X196018891Y-135936547D01*
X196056986Y-135631785D01*
X196028415Y-135555595D01*
X195995081Y-135517500D01*
X195923653Y-135479404D01*
X195771272Y-135479404D01*
X195690319Y-135517500D01*
X195647462Y-135555595D01*
X195599843Y-135631785D01*
X195576034Y-135822261D01*
X195604605Y-135898452D01*
X195637938Y-135936547D01*
X195709367Y-135974642D01*
X195861748Y-135974642D01*
X195942700Y-135936547D01*
X195985558Y-135898452D01*
X196033177Y-135822261D01*
X196371272Y-135555595D02*
X196414129Y-135517500D01*
X196495081Y-135479404D01*
X196685558Y-135479404D01*
X196756986Y-135517500D01*
X196790319Y-135555595D01*
X196818891Y-135631785D01*
X196809367Y-135707976D01*
X196756986Y-135822261D01*
X196242700Y-136279404D01*
X196737938Y-136279404D01*
X198071272Y-136279404D02*
X197690319Y-136279404D01*
X197790319Y-135479404D01*
X198337938Y-136279404D02*
X198404605Y-135746071D01*
X198437938Y-135479404D02*
X198395081Y-135517500D01*
X198428415Y-135555595D01*
X198471272Y-135517500D01*
X198437938Y-135479404D01*
X198428415Y-135555595D01*
X198709367Y-135746071D02*
X198833177Y-136279404D01*
X199090319Y-135746071D01*
X199328415Y-136279404D02*
X199395081Y-135746071D01*
X199428415Y-135479404D02*
X199385558Y-135517500D01*
X199418891Y-135555595D01*
X199461748Y-135517500D01*
X199428415Y-135479404D01*
X199418891Y-135555595D01*
X199823653Y-136279404D02*
X199752224Y-136241309D01*
X199718891Y-136203214D01*
X199690319Y-136127023D01*
X199718891Y-135898452D01*
X199766510Y-135822261D01*
X199809367Y-135784166D01*
X199890319Y-135746071D01*
X200004605Y-135746071D01*
X200076034Y-135784166D01*
X200109367Y-135822261D01*
X200137938Y-135898452D01*
X200109367Y-136127023D01*
X200061748Y-136203214D01*
X200018891Y-136241309D01*
X199937938Y-136279404D01*
X199823653Y-136279404D01*
X201042700Y-136279404D02*
X201142700Y-135479404D01*
X201447462Y-135479404D01*
X201518891Y-135517500D01*
X201552224Y-135555595D01*
X201580796Y-135631785D01*
X201566510Y-135746071D01*
X201518891Y-135822261D01*
X201476034Y-135860357D01*
X201395081Y-135898452D01*
X201090319Y-135898452D01*
X201956986Y-136279404D02*
X201885558Y-136241309D01*
X201856986Y-136165119D01*
X201942700Y-135479404D01*
X202376034Y-136279404D02*
X202304605Y-136241309D01*
X202271272Y-136203214D01*
X202242700Y-136127023D01*
X202271272Y-135898452D01*
X202318891Y-135822261D01*
X202361748Y-135784166D01*
X202442700Y-135746071D01*
X202556986Y-135746071D01*
X202628415Y-135784166D01*
X202661748Y-135822261D01*
X202690319Y-135898452D01*
X202661748Y-136127023D01*
X202614129Y-136203214D01*
X202571272Y-136241309D01*
X202490319Y-136279404D01*
X202376034Y-136279404D01*
X202952224Y-136241309D02*
X203023653Y-136279404D01*
X203176034Y-136279404D01*
X203256986Y-136241309D01*
X203304605Y-136165119D01*
X203309367Y-136127023D01*
X203280796Y-136050833D01*
X203209367Y-136012738D01*
X203095081Y-136012738D01*
X203023653Y-135974642D01*
X202995081Y-135898452D01*
X202999843Y-135860357D01*
X203047462Y-135784166D01*
X203128415Y-135746071D01*
X203242700Y-135746071D01*
X203314129Y-135784166D01*
D10*
X183463586Y-120848380D02*
X183588586Y-119848380D01*
X183529062Y-120324571D02*
X184100491Y-120324571D01*
X184035014Y-120848380D02*
X184160014Y-119848380D01*
X184898110Y-120800761D02*
X184796919Y-120848380D01*
X184606443Y-120848380D01*
X184517157Y-120800761D01*
X184481443Y-120705523D01*
X184529062Y-120324571D01*
X184588586Y-120229333D01*
X184689776Y-120181714D01*
X184880252Y-120181714D01*
X184969538Y-120229333D01*
X185005252Y-120324571D01*
X184993348Y-120419809D01*
X184505252Y-120515047D01*
X185511205Y-120848380D02*
X185421919Y-120800761D01*
X185386205Y-120705523D01*
X185493348Y-119848380D01*
X186035014Y-120848380D02*
X185945729Y-120800761D01*
X185910014Y-120705523D01*
X186017157Y-119848380D01*
X186558824Y-120848380D02*
X186469538Y-120800761D01*
X186427872Y-120753142D01*
X186392157Y-120657904D01*
X186427872Y-120372190D01*
X186487395Y-120276952D01*
X186540967Y-120229333D01*
X186642157Y-120181714D01*
X186785014Y-120181714D01*
X186874300Y-120229333D01*
X186915967Y-120276952D01*
X186951681Y-120372190D01*
X186915967Y-120657904D01*
X186856443Y-120753142D01*
X186802872Y-120800761D01*
X186701681Y-120848380D01*
X186558824Y-120848380D01*
X188665967Y-120753142D02*
X188612395Y-120800761D01*
X188463586Y-120848380D01*
X188368348Y-120848380D01*
X188231443Y-120800761D01*
X188148110Y-120705523D01*
X188112395Y-120610285D01*
X188088586Y-120419809D01*
X188106443Y-120276952D01*
X188177872Y-120086476D01*
X188237395Y-119991238D01*
X188344538Y-119896000D01*
X188493348Y-119848380D01*
X188588586Y-119848380D01*
X188725491Y-119896000D01*
X188767157Y-119943619D01*
X189511205Y-120848380D02*
X189576681Y-120324571D01*
X189540967Y-120229333D01*
X189451681Y-120181714D01*
X189261205Y-120181714D01*
X189160014Y-120229333D01*
X189517157Y-120800761D02*
X189415967Y-120848380D01*
X189177872Y-120848380D01*
X189088586Y-120800761D01*
X189052872Y-120705523D01*
X189064776Y-120610285D01*
X189124300Y-120515047D01*
X189225491Y-120467428D01*
X189463586Y-120467428D01*
X189564776Y-120419809D01*
X189975491Y-120181714D02*
X190130252Y-120848380D01*
X190451681Y-120181714D01*
X191136205Y-120800761D02*
X191035014Y-120848380D01*
X190844538Y-120848380D01*
X190755252Y-120800761D01*
X190719538Y-120705523D01*
X190767157Y-120324571D01*
X190826681Y-120229333D01*
X190927872Y-120181714D01*
X191118348Y-120181714D01*
X191207633Y-120229333D01*
X191243348Y-120324571D01*
X191231443Y-120419809D01*
X190743348Y-120515047D01*
X192368348Y-120848380D02*
X192493348Y-119848380D01*
X192731443Y-119848380D01*
X192868348Y-119896000D01*
X192951681Y-119991238D01*
X192987395Y-120086476D01*
X193011205Y-120276952D01*
X192993348Y-120419809D01*
X192921919Y-120610285D01*
X192862395Y-120705523D01*
X192755252Y-120800761D01*
X192606443Y-120848380D01*
X192368348Y-120848380D01*
X193356443Y-120181714D02*
X193463586Y-120848380D01*
X193713586Y-120372190D01*
X193844538Y-120848380D01*
X194118348Y-120181714D01*
X194802872Y-120800761D02*
X194701681Y-120848380D01*
X194511205Y-120848380D01*
X194421919Y-120800761D01*
X194386205Y-120705523D01*
X194433824Y-120324571D01*
X194493348Y-120229333D01*
X194594538Y-120181714D01*
X194785014Y-120181714D01*
X194874300Y-120229333D01*
X194910014Y-120324571D01*
X194898110Y-120419809D01*
X194410014Y-120515047D01*
X195415967Y-120848380D02*
X195326681Y-120800761D01*
X195290967Y-120705523D01*
X195398110Y-119848380D01*
X195939776Y-120848380D02*
X195850491Y-120800761D01*
X195814776Y-120705523D01*
X195921919Y-119848380D01*
X196707633Y-120800761D02*
X196606443Y-120848380D01*
X196415967Y-120848380D01*
X196326681Y-120800761D01*
X196290967Y-120705523D01*
X196338586Y-120324571D01*
X196398110Y-120229333D01*
X196499300Y-120181714D01*
X196689776Y-120181714D01*
X196779062Y-120229333D01*
X196814776Y-120324571D01*
X196802872Y-120419809D01*
X196314776Y-120515047D01*
X197177872Y-120848380D02*
X197261205Y-120181714D01*
X197237395Y-120372190D02*
X197296919Y-120276952D01*
X197350491Y-120229333D01*
X197451681Y-120181714D01*
X197546919Y-120181714D01*
X197755252Y-120800761D02*
X197844538Y-120848380D01*
X198035014Y-120848380D01*
X198136205Y-120800761D01*
X198195729Y-120705523D01*
X198201681Y-120657904D01*
X198165967Y-120562666D01*
X198076681Y-120515047D01*
X197933824Y-120515047D01*
X197844538Y-120467428D01*
X197808824Y-120372190D01*
X197814776Y-120324571D01*
X197874300Y-120229333D01*
X197975491Y-120181714D01*
X198118348Y-120181714D01*
X198207633Y-120229333D01*
X198618348Y-120753142D02*
X198660014Y-120800761D01*
X198606443Y-120848380D01*
X198564776Y-120800761D01*
X198618348Y-120753142D01*
X198606443Y-120848380D01*
X198654062Y-120467428D02*
X198677872Y-119896000D01*
X198731443Y-119848380D01*
X198773110Y-119896000D01*
X198654062Y-120467428D01*
X198731443Y-119848380D01*
X91448333Y-134707380D02*
X92115000Y-134707380D01*
X91686428Y-135707380D01*
X92924523Y-135040714D02*
X92924523Y-135707380D01*
X92686428Y-134659761D02*
X92448333Y-135374047D01*
X93067380Y-135374047D01*
X93448333Y-135707380D02*
X93448333Y-134707380D01*
X93448333Y-135183571D02*
X94019761Y-135183571D01*
X94019761Y-135707380D02*
X94019761Y-134707380D01*
X95067380Y-135612142D02*
X95019761Y-135659761D01*
X94876904Y-135707380D01*
X94781666Y-135707380D01*
X94638809Y-135659761D01*
X94543571Y-135564523D01*
X94495952Y-135469285D01*
X94448333Y-135278809D01*
X94448333Y-135135952D01*
X94495952Y-134945476D01*
X94543571Y-134850238D01*
X94638809Y-134755000D01*
X94781666Y-134707380D01*
X94876904Y-134707380D01*
X95019761Y-134755000D01*
X95067380Y-134802619D01*
X95353095Y-134707380D02*
X95924523Y-134707380D01*
X95638809Y-135707380D02*
X95638809Y-134707380D01*
X96162619Y-134707380D02*
X96829285Y-134707380D01*
X96400714Y-135707380D01*
X97638809Y-135040714D02*
X97638809Y-135707380D01*
X97400714Y-134659761D02*
X97162619Y-135374047D01*
X97781666Y-135374047D01*
X112587157Y-134707380D02*
X113253824Y-134707380D01*
X112700252Y-135707380D01*
X114021681Y-135040714D02*
X113938348Y-135707380D01*
X113831205Y-134659761D02*
X113503824Y-135374047D01*
X114122872Y-135374047D01*
X114462157Y-135707380D02*
X114587157Y-134707380D01*
X114527633Y-135183571D02*
X115099062Y-135183571D01*
X115033586Y-135707380D02*
X115158586Y-134707380D01*
X116093110Y-135612142D02*
X116039538Y-135659761D01*
X115890729Y-135707380D01*
X115795491Y-135707380D01*
X115658586Y-135659761D01*
X115575252Y-135564523D01*
X115539538Y-135469285D01*
X115515729Y-135278809D01*
X115533586Y-135135952D01*
X115605014Y-134945476D01*
X115664538Y-134850238D01*
X115771681Y-134755000D01*
X115920491Y-134707380D01*
X116015729Y-134707380D01*
X116152633Y-134755000D01*
X116194300Y-134802619D01*
X116491919Y-134707380D02*
X117063348Y-134707380D01*
X116652633Y-135707380D02*
X116777633Y-134707380D01*
X117795491Y-135707380D02*
X117224062Y-135707380D01*
X117509776Y-135707380D02*
X117634776Y-134707380D01*
X117521681Y-134850238D01*
X117414538Y-134945476D01*
X117313348Y-134993095D01*
X118825252Y-134707380D02*
X118349062Y-134707380D01*
X118241919Y-135183571D01*
X118295491Y-135135952D01*
X118396681Y-135088333D01*
X118634776Y-135088333D01*
X118724062Y-135135952D01*
X118765729Y-135183571D01*
X118801443Y-135278809D01*
X118771681Y-135516904D01*
X118712157Y-135612142D01*
X118658586Y-135659761D01*
X118557395Y-135707380D01*
X118319300Y-135707380D01*
X118230014Y-135659761D01*
X118188348Y-135612142D01*
X119206205Y-134707380D02*
X119872872Y-134707380D01*
X119319300Y-135707380D01*
X135447157Y-134707380D02*
X136113824Y-134707380D01*
X135560252Y-135707380D01*
X136881681Y-135040714D02*
X136798348Y-135707380D01*
X136691205Y-134659761D02*
X136363824Y-135374047D01*
X136982872Y-135374047D01*
X137322157Y-135707380D02*
X137447157Y-134707380D01*
X137387633Y-135183571D02*
X137959062Y-135183571D01*
X137893586Y-135707380D02*
X138018586Y-134707380D01*
X138953110Y-135612142D02*
X138899538Y-135659761D01*
X138750729Y-135707380D01*
X138655491Y-135707380D01*
X138518586Y-135659761D01*
X138435252Y-135564523D01*
X138399538Y-135469285D01*
X138375729Y-135278809D01*
X138393586Y-135135952D01*
X138465014Y-134945476D01*
X138524538Y-134850238D01*
X138631681Y-134755000D01*
X138780491Y-134707380D01*
X138875729Y-134707380D01*
X139012633Y-134755000D01*
X139054300Y-134802619D01*
X139351919Y-134707380D02*
X139923348Y-134707380D01*
X139512633Y-135707380D02*
X139637633Y-134707380D01*
X140655491Y-135707380D02*
X140084062Y-135707380D01*
X140369776Y-135707380D02*
X140494776Y-134707380D01*
X140381681Y-134850238D01*
X140274538Y-134945476D01*
X140173348Y-134993095D01*
X141685252Y-134707380D02*
X141209062Y-134707380D01*
X141101919Y-135183571D01*
X141155491Y-135135952D01*
X141256681Y-135088333D01*
X141494776Y-135088333D01*
X141584062Y-135135952D01*
X141625729Y-135183571D01*
X141661443Y-135278809D01*
X141631681Y-135516904D01*
X141572157Y-135612142D01*
X141518586Y-135659761D01*
X141417395Y-135707380D01*
X141179300Y-135707380D01*
X141090014Y-135659761D01*
X141048348Y-135612142D01*
X142066205Y-134707380D02*
X142732872Y-134707380D01*
X142179300Y-135707380D01*
X157513348Y-134707380D02*
X158180014Y-134707380D01*
X157626443Y-135707380D01*
X158947872Y-135040714D02*
X158864538Y-135707380D01*
X158757395Y-134659761D02*
X158430014Y-135374047D01*
X159049062Y-135374047D01*
X159388348Y-135707380D02*
X159513348Y-134707380D01*
X159453824Y-135183571D02*
X160025252Y-135183571D01*
X159959776Y-135707380D02*
X160084776Y-134707380D01*
X161019300Y-135612142D02*
X160965729Y-135659761D01*
X160816919Y-135707380D01*
X160721681Y-135707380D01*
X160584776Y-135659761D01*
X160501443Y-135564523D01*
X160465729Y-135469285D01*
X160441919Y-135278809D01*
X160459776Y-135135952D01*
X160531205Y-134945476D01*
X160590729Y-134850238D01*
X160697872Y-134755000D01*
X160846681Y-134707380D01*
X160941919Y-134707380D01*
X161078824Y-134755000D01*
X161120491Y-134802619D01*
X161418110Y-134707380D02*
X161989538Y-134707380D01*
X161578824Y-135707380D02*
X161703824Y-134707380D01*
X162513348Y-134707380D02*
X162608586Y-134707380D01*
X162697872Y-134755000D01*
X162739538Y-134802619D01*
X162775252Y-134897857D01*
X162799062Y-135088333D01*
X162769300Y-135326428D01*
X162697872Y-135516904D01*
X162638348Y-135612142D01*
X162584776Y-135659761D01*
X162483586Y-135707380D01*
X162388348Y-135707380D01*
X162299062Y-135659761D01*
X162257395Y-135612142D01*
X162221681Y-135516904D01*
X162197872Y-135326428D01*
X162227633Y-135088333D01*
X162299062Y-134897857D01*
X162358586Y-134802619D01*
X162412157Y-134755000D01*
X162513348Y-134707380D01*
X163662157Y-135040714D02*
X163578824Y-135707380D01*
X163471681Y-134659761D02*
X163144300Y-135374047D01*
X163763348Y-135374047D01*
X92267157Y-122642380D02*
X92933824Y-122642380D01*
X92380252Y-123642380D01*
X93701681Y-122975714D02*
X93618348Y-123642380D01*
X93511205Y-122594761D02*
X93183824Y-123309047D01*
X93802872Y-123309047D01*
X94142157Y-123642380D02*
X94267157Y-122642380D01*
X94207633Y-123118571D02*
X94779062Y-123118571D01*
X94713586Y-123642380D02*
X94838586Y-122642380D01*
X95773110Y-123547142D02*
X95719538Y-123594761D01*
X95570729Y-123642380D01*
X95475491Y-123642380D01*
X95338586Y-123594761D01*
X95255252Y-123499523D01*
X95219538Y-123404285D01*
X95195729Y-123213809D01*
X95213586Y-123070952D01*
X95285014Y-122880476D01*
X95344538Y-122785238D01*
X95451681Y-122690000D01*
X95600491Y-122642380D01*
X95695729Y-122642380D01*
X95832633Y-122690000D01*
X95874300Y-122737619D01*
X96171919Y-122642380D02*
X96743348Y-122642380D01*
X96332633Y-123642380D02*
X96457633Y-122642380D01*
X97475491Y-123642380D02*
X96904062Y-123642380D01*
X97189776Y-123642380D02*
X97314776Y-122642380D01*
X97201681Y-122785238D01*
X97094538Y-122880476D01*
X96993348Y-122928095D01*
X98427872Y-123642380D02*
X97856443Y-123642380D01*
X98142157Y-123642380D02*
X98267157Y-122642380D01*
X98154062Y-122785238D01*
X98046919Y-122880476D01*
X97945729Y-122928095D01*
X98921919Y-122737619D02*
X98975491Y-122690000D01*
X99076681Y-122642380D01*
X99314776Y-122642380D01*
X99404062Y-122690000D01*
X99445729Y-122737619D01*
X99481443Y-122832857D01*
X99469538Y-122928095D01*
X99404062Y-123070952D01*
X98761205Y-123642380D01*
X99380252Y-123642380D01*
X114333348Y-122642380D02*
X115000014Y-122642380D01*
X114446443Y-123642380D01*
X115767872Y-122975714D02*
X115684538Y-123642380D01*
X115577395Y-122594761D02*
X115250014Y-123309047D01*
X115869062Y-123309047D01*
X116208348Y-123642380D02*
X116333348Y-122642380D01*
X116273824Y-123118571D02*
X116845252Y-123118571D01*
X116779776Y-123642380D02*
X116904776Y-122642380D01*
X117839300Y-123547142D02*
X117785729Y-123594761D01*
X117636919Y-123642380D01*
X117541681Y-123642380D01*
X117404776Y-123594761D01*
X117321443Y-123499523D01*
X117285729Y-123404285D01*
X117261919Y-123213809D01*
X117279776Y-123070952D01*
X117351205Y-122880476D01*
X117410729Y-122785238D01*
X117517872Y-122690000D01*
X117666681Y-122642380D01*
X117761919Y-122642380D01*
X117898824Y-122690000D01*
X117940491Y-122737619D01*
X118238110Y-122642380D02*
X118809538Y-122642380D01*
X118398824Y-123642380D02*
X118523824Y-122642380D01*
X119083348Y-122737619D02*
X119136919Y-122690000D01*
X119238110Y-122642380D01*
X119476205Y-122642380D01*
X119565491Y-122690000D01*
X119607157Y-122737619D01*
X119642872Y-122832857D01*
X119630967Y-122928095D01*
X119565491Y-123070952D01*
X118922633Y-123642380D01*
X119541681Y-123642380D01*
X120000014Y-122642380D02*
X120666681Y-122642380D01*
X120113110Y-123642380D01*
X134653348Y-122642380D02*
X135320014Y-122642380D01*
X134766443Y-123642380D01*
X136087872Y-122975714D02*
X136004538Y-123642380D01*
X135897395Y-122594761D02*
X135570014Y-123309047D01*
X136189062Y-123309047D01*
X136528348Y-123642380D02*
X136653348Y-122642380D01*
X136593824Y-123118571D02*
X137165252Y-123118571D01*
X137099776Y-123642380D02*
X137224776Y-122642380D01*
X138159300Y-123547142D02*
X138105729Y-123594761D01*
X137956919Y-123642380D01*
X137861681Y-123642380D01*
X137724776Y-123594761D01*
X137641443Y-123499523D01*
X137605729Y-123404285D01*
X137581919Y-123213809D01*
X137599776Y-123070952D01*
X137671205Y-122880476D01*
X137730729Y-122785238D01*
X137837872Y-122690000D01*
X137986681Y-122642380D01*
X138081919Y-122642380D01*
X138218824Y-122690000D01*
X138260491Y-122737619D01*
X138558110Y-122642380D02*
X139129538Y-122642380D01*
X138718824Y-123642380D02*
X138843824Y-122642380D01*
X139367633Y-122642380D02*
X140034300Y-122642380D01*
X139480729Y-123642380D01*
X140802157Y-122975714D02*
X140718824Y-123642380D01*
X140611681Y-122594761D02*
X140284300Y-123309047D01*
X140903348Y-123309047D01*
X157513348Y-122642380D02*
X158180014Y-122642380D01*
X157626443Y-123642380D01*
X158947872Y-122975714D02*
X158864538Y-123642380D01*
X158757395Y-122594761D02*
X158430014Y-123309047D01*
X159049062Y-123309047D01*
X159388348Y-123642380D02*
X159513348Y-122642380D01*
X159453824Y-123118571D02*
X160025252Y-123118571D01*
X159959776Y-123642380D02*
X160084776Y-122642380D01*
X161019300Y-123547142D02*
X160965729Y-123594761D01*
X160816919Y-123642380D01*
X160721681Y-123642380D01*
X160584776Y-123594761D01*
X160501443Y-123499523D01*
X160465729Y-123404285D01*
X160441919Y-123213809D01*
X160459776Y-123070952D01*
X160531205Y-122880476D01*
X160590729Y-122785238D01*
X160697872Y-122690000D01*
X160846681Y-122642380D01*
X160941919Y-122642380D01*
X161078824Y-122690000D01*
X161120491Y-122737619D01*
X161418110Y-122642380D02*
X161989538Y-122642380D01*
X161578824Y-123642380D02*
X161703824Y-122642380D01*
X162412157Y-123070952D02*
X162322872Y-123023333D01*
X162281205Y-122975714D01*
X162245491Y-122880476D01*
X162251443Y-122832857D01*
X162310967Y-122737619D01*
X162364538Y-122690000D01*
X162465729Y-122642380D01*
X162656205Y-122642380D01*
X162745491Y-122690000D01*
X162787157Y-122737619D01*
X162822872Y-122832857D01*
X162816919Y-122880476D01*
X162757395Y-122975714D01*
X162703824Y-123023333D01*
X162602633Y-123070952D01*
X162412157Y-123070952D01*
X162310967Y-123118571D01*
X162257395Y-123166190D01*
X162197872Y-123261428D01*
X162174062Y-123451904D01*
X162209776Y-123547142D01*
X162251443Y-123594761D01*
X162340729Y-123642380D01*
X162531205Y-123642380D01*
X162632395Y-123594761D01*
X162685967Y-123547142D01*
X162745491Y-123451904D01*
X162769300Y-123261428D01*
X162733586Y-123166190D01*
X162691919Y-123118571D01*
X162602633Y-123070952D01*
X163703824Y-122642380D02*
X163513348Y-122642380D01*
X163412157Y-122690000D01*
X163358586Y-122737619D01*
X163245491Y-122880476D01*
X163174062Y-123070952D01*
X163126443Y-123451904D01*
X163162157Y-123547142D01*
X163203824Y-123594761D01*
X163293110Y-123642380D01*
X163483586Y-123642380D01*
X163584776Y-123594761D01*
X163638348Y-123547142D01*
X163697872Y-123451904D01*
X163727633Y-123213809D01*
X163691919Y-123118571D01*
X163650252Y-123070952D01*
X163560967Y-123023333D01*
X163370491Y-123023333D01*
X163269300Y-123070952D01*
X163215729Y-123118571D01*
X163156205Y-123213809D01*
X124320729Y-102497380D02*
X124445729Y-101497380D01*
X124689776Y-102211666D01*
X125112395Y-101497380D01*
X124987395Y-102497380D01*
X126046919Y-102402142D02*
X125993348Y-102449761D01*
X125844538Y-102497380D01*
X125749300Y-102497380D01*
X125612395Y-102449761D01*
X125529062Y-102354523D01*
X125493348Y-102259285D01*
X125469538Y-102068809D01*
X125487395Y-101925952D01*
X125558824Y-101735476D01*
X125618348Y-101640238D01*
X125725491Y-101545000D01*
X125874300Y-101497380D01*
X125969538Y-101497380D01*
X126106443Y-101545000D01*
X126148110Y-101592619D01*
X127017157Y-101497380D02*
X126826681Y-101497380D01*
X126725491Y-101545000D01*
X126671919Y-101592619D01*
X126558824Y-101735476D01*
X126487395Y-101925952D01*
X126439776Y-102306904D01*
X126475491Y-102402142D01*
X126517157Y-102449761D01*
X126606443Y-102497380D01*
X126796919Y-102497380D01*
X126898110Y-102449761D01*
X126951681Y-102402142D01*
X127011205Y-102306904D01*
X127040967Y-102068809D01*
X127005252Y-101973571D01*
X126963586Y-101925952D01*
X126874300Y-101878333D01*
X126683824Y-101878333D01*
X126582633Y-101925952D01*
X126529062Y-101973571D01*
X126469538Y-102068809D01*
X127630252Y-101925952D02*
X127540967Y-101878333D01*
X127499300Y-101830714D01*
X127463586Y-101735476D01*
X127469538Y-101687857D01*
X127529062Y-101592619D01*
X127582633Y-101545000D01*
X127683824Y-101497380D01*
X127874300Y-101497380D01*
X127963586Y-101545000D01*
X128005252Y-101592619D01*
X128040967Y-101687857D01*
X128035014Y-101735476D01*
X127975491Y-101830714D01*
X127921919Y-101878333D01*
X127820729Y-101925952D01*
X127630252Y-101925952D01*
X127529062Y-101973571D01*
X127475491Y-102021190D01*
X127415967Y-102116428D01*
X127392157Y-102306904D01*
X127427872Y-102402142D01*
X127469538Y-102449761D01*
X127558824Y-102497380D01*
X127749300Y-102497380D01*
X127850491Y-102449761D01*
X127904062Y-102402142D01*
X127963586Y-102306904D01*
X127987395Y-102116428D01*
X127951681Y-102021190D01*
X127910014Y-101973571D01*
X127820729Y-101925952D01*
X128683824Y-101497380D02*
X128779062Y-101497380D01*
X128868348Y-101545000D01*
X128910014Y-101592619D01*
X128945729Y-101687857D01*
X128969538Y-101878333D01*
X128939776Y-102116428D01*
X128868348Y-102306904D01*
X128808824Y-102402142D01*
X128755252Y-102449761D01*
X128654062Y-102497380D01*
X128558824Y-102497380D01*
X128469538Y-102449761D01*
X128427872Y-102402142D01*
X128392157Y-102306904D01*
X128368348Y-102116428D01*
X128398110Y-101878333D01*
X128469538Y-101687857D01*
X128529062Y-101592619D01*
X128582633Y-101545000D01*
X128683824Y-101497380D01*
X129636205Y-101497380D02*
X129731443Y-101497380D01*
X129820729Y-101545000D01*
X129862395Y-101592619D01*
X129898110Y-101687857D01*
X129921919Y-101878333D01*
X129892157Y-102116428D01*
X129820729Y-102306904D01*
X129761205Y-102402142D01*
X129707633Y-102449761D01*
X129606443Y-102497380D01*
X129511205Y-102497380D01*
X129421919Y-102449761D01*
X129380252Y-102402142D01*
X129344538Y-102306904D01*
X129320729Y-102116428D01*
X129350491Y-101878333D01*
X129421919Y-101687857D01*
X129481443Y-101592619D01*
X129535014Y-101545000D01*
X129636205Y-101497380D01*
X130588586Y-101497380D02*
X130683824Y-101497380D01*
X130773110Y-101545000D01*
X130814776Y-101592619D01*
X130850491Y-101687857D01*
X130874300Y-101878333D01*
X130844538Y-102116428D01*
X130773110Y-102306904D01*
X130713586Y-102402142D01*
X130660014Y-102449761D01*
X130558824Y-102497380D01*
X130463586Y-102497380D01*
X130374300Y-102449761D01*
X130332633Y-102402142D01*
X130296919Y-102306904D01*
X130273110Y-102116428D01*
X130302872Y-101878333D01*
X130374300Y-101687857D01*
X130433824Y-101592619D01*
X130487395Y-101545000D01*
X130588586Y-101497380D01*
X124481443Y-103623571D02*
X124618348Y-103671190D01*
X124660014Y-103718809D01*
X124695729Y-103814047D01*
X124677872Y-103956904D01*
X124618348Y-104052142D01*
X124564776Y-104099761D01*
X124463586Y-104147380D01*
X124082633Y-104147380D01*
X124207633Y-103147380D01*
X124540967Y-103147380D01*
X124630252Y-103195000D01*
X124671919Y-103242619D01*
X124707633Y-103337857D01*
X124695729Y-103433095D01*
X124636205Y-103528333D01*
X124582633Y-103575952D01*
X124481443Y-103623571D01*
X124148110Y-103623571D01*
X125225491Y-104147380D02*
X125136205Y-104099761D01*
X125094538Y-104052142D01*
X125058824Y-103956904D01*
X125094538Y-103671190D01*
X125154062Y-103575952D01*
X125207633Y-103528333D01*
X125308824Y-103480714D01*
X125451681Y-103480714D01*
X125540967Y-103528333D01*
X125582633Y-103575952D01*
X125618348Y-103671190D01*
X125582633Y-103956904D01*
X125523110Y-104052142D01*
X125469538Y-104099761D01*
X125368348Y-104147380D01*
X125225491Y-104147380D01*
X126415967Y-104147380D02*
X126481443Y-103623571D01*
X126445729Y-103528333D01*
X126356443Y-103480714D01*
X126165967Y-103480714D01*
X126064776Y-103528333D01*
X126421919Y-104099761D02*
X126320729Y-104147380D01*
X126082633Y-104147380D01*
X125993348Y-104099761D01*
X125957633Y-104004523D01*
X125969538Y-103909285D01*
X126029062Y-103814047D01*
X126130252Y-103766428D01*
X126368348Y-103766428D01*
X126469538Y-103718809D01*
X126892157Y-104147380D02*
X126975491Y-103480714D01*
X126951681Y-103671190D02*
X127011205Y-103575952D01*
X127064776Y-103528333D01*
X127165967Y-103480714D01*
X127261205Y-103480714D01*
X127939776Y-104147380D02*
X128064776Y-103147380D01*
X127945729Y-104099761D02*
X127844538Y-104147380D01*
X127654062Y-104147380D01*
X127564776Y-104099761D01*
X127523110Y-104052142D01*
X127487395Y-103956904D01*
X127523110Y-103671190D01*
X127582633Y-103575952D01*
X127636205Y-103528333D01*
X127737395Y-103480714D01*
X127927872Y-103480714D01*
X128017157Y-103528333D01*
X128374300Y-104099761D02*
X128463586Y-104147380D01*
X128654062Y-104147380D01*
X128755252Y-104099761D01*
X128814776Y-104004523D01*
X128820729Y-103956904D01*
X128785014Y-103861666D01*
X128695729Y-103814047D01*
X128552872Y-103814047D01*
X128463586Y-103766428D01*
X128427872Y-103671190D01*
X128433824Y-103623571D01*
X128493348Y-103528333D01*
X128594538Y-103480714D01*
X128737395Y-103480714D01*
X128826681Y-103528333D01*
X129225491Y-104147380D02*
X129308824Y-103480714D01*
X129350491Y-103147380D02*
X129296919Y-103195000D01*
X129338586Y-103242619D01*
X129392157Y-103195000D01*
X129350491Y-103147380D01*
X129338586Y-103242619D01*
X130130252Y-104147380D02*
X130255252Y-103147380D01*
X130136205Y-104099761D02*
X130035014Y-104147380D01*
X129844538Y-104147380D01*
X129755252Y-104099761D01*
X129713586Y-104052142D01*
X129677872Y-103956904D01*
X129713586Y-103671190D01*
X129773110Y-103575952D01*
X129826681Y-103528333D01*
X129927872Y-103480714D01*
X130118348Y-103480714D01*
X130207633Y-103528333D01*
X130993348Y-104099761D02*
X130892157Y-104147380D01*
X130701681Y-104147380D01*
X130612395Y-104099761D01*
X130576681Y-104004523D01*
X130624300Y-103623571D01*
X130683824Y-103528333D01*
X130785014Y-103480714D01*
X130975491Y-103480714D01*
X131064776Y-103528333D01*
X131100491Y-103623571D01*
X131088586Y-103718809D01*
X130600491Y-103814047D01*
X182034538Y-103767380D02*
X182159538Y-102767380D01*
X182403586Y-103481666D01*
X182826205Y-102767380D01*
X182701205Y-103767380D01*
X183760729Y-103672142D02*
X183707157Y-103719761D01*
X183558348Y-103767380D01*
X183463110Y-103767380D01*
X183326205Y-103719761D01*
X183242872Y-103624523D01*
X183207157Y-103529285D01*
X183183348Y-103338809D01*
X183201205Y-103195952D01*
X183272633Y-103005476D01*
X183332157Y-102910238D01*
X183439300Y-102815000D01*
X183588110Y-102767380D01*
X183683348Y-102767380D01*
X183820252Y-102815000D01*
X183861919Y-102862619D01*
X184730967Y-102767380D02*
X184540491Y-102767380D01*
X184439300Y-102815000D01*
X184385729Y-102862619D01*
X184272633Y-103005476D01*
X184201205Y-103195952D01*
X184153586Y-103576904D01*
X184189300Y-103672142D01*
X184230967Y-103719761D01*
X184320252Y-103767380D01*
X184510729Y-103767380D01*
X184611919Y-103719761D01*
X184665491Y-103672142D01*
X184725014Y-103576904D01*
X184754776Y-103338809D01*
X184719062Y-103243571D01*
X184677395Y-103195952D01*
X184588110Y-103148333D01*
X184397633Y-103148333D01*
X184296443Y-103195952D01*
X184242872Y-103243571D01*
X184183348Y-103338809D01*
X185344062Y-103195952D02*
X185254776Y-103148333D01*
X185213110Y-103100714D01*
X185177395Y-103005476D01*
X185183348Y-102957857D01*
X185242872Y-102862619D01*
X185296443Y-102815000D01*
X185397633Y-102767380D01*
X185588110Y-102767380D01*
X185677395Y-102815000D01*
X185719062Y-102862619D01*
X185754776Y-102957857D01*
X185748824Y-103005476D01*
X185689300Y-103100714D01*
X185635729Y-103148333D01*
X185534538Y-103195952D01*
X185344062Y-103195952D01*
X185242872Y-103243571D01*
X185189300Y-103291190D01*
X185129776Y-103386428D01*
X185105967Y-103576904D01*
X185141681Y-103672142D01*
X185183348Y-103719761D01*
X185272633Y-103767380D01*
X185463110Y-103767380D01*
X185564300Y-103719761D01*
X185617872Y-103672142D01*
X185677395Y-103576904D01*
X185701205Y-103386428D01*
X185665491Y-103291190D01*
X185623824Y-103243571D01*
X185534538Y-103195952D01*
X186082157Y-103767380D02*
X186207157Y-102767380D01*
X186147633Y-103243571D02*
X186719062Y-103243571D01*
X186653586Y-103767380D02*
X186778586Y-102767380D01*
X187713110Y-103672142D02*
X187659538Y-103719761D01*
X187510729Y-103767380D01*
X187415491Y-103767380D01*
X187278586Y-103719761D01*
X187195252Y-103624523D01*
X187159538Y-103529285D01*
X187135729Y-103338809D01*
X187153586Y-103195952D01*
X187225014Y-103005476D01*
X187284538Y-102910238D01*
X187391681Y-102815000D01*
X187540491Y-102767380D01*
X187635729Y-102767380D01*
X187772633Y-102815000D01*
X187814300Y-102862619D01*
X188445252Y-102767380D02*
X188540491Y-102767380D01*
X188629776Y-102815000D01*
X188671443Y-102862619D01*
X188707157Y-102957857D01*
X188730967Y-103148333D01*
X188701205Y-103386428D01*
X188629776Y-103576904D01*
X188570252Y-103672142D01*
X188516681Y-103719761D01*
X188415491Y-103767380D01*
X188320252Y-103767380D01*
X188230967Y-103719761D01*
X188189300Y-103672142D01*
X188153586Y-103576904D01*
X188129776Y-103386428D01*
X188159538Y-103148333D01*
X188230967Y-102957857D01*
X188290491Y-102862619D01*
X188344062Y-102815000D01*
X188445252Y-102767380D01*
X189397633Y-102767380D02*
X189492872Y-102767380D01*
X189582157Y-102815000D01*
X189623824Y-102862619D01*
X189659538Y-102957857D01*
X189683348Y-103148333D01*
X189653586Y-103386428D01*
X189582157Y-103576904D01*
X189522633Y-103672142D01*
X189469062Y-103719761D01*
X189367872Y-103767380D01*
X189272633Y-103767380D01*
X189183348Y-103719761D01*
X189141681Y-103672142D01*
X189105967Y-103576904D01*
X189082157Y-103386428D01*
X189111919Y-103148333D01*
X189183348Y-102957857D01*
X189242872Y-102862619D01*
X189296443Y-102815000D01*
X189397633Y-102767380D01*
X190350014Y-102767380D02*
X190445252Y-102767380D01*
X190534538Y-102815000D01*
X190576205Y-102862619D01*
X190611919Y-102957857D01*
X190635729Y-103148333D01*
X190605967Y-103386428D01*
X190534538Y-103576904D01*
X190475014Y-103672142D01*
X190421443Y-103719761D01*
X190320252Y-103767380D01*
X190225014Y-103767380D01*
X190135729Y-103719761D01*
X190094062Y-103672142D01*
X190058348Y-103576904D01*
X190034538Y-103386428D01*
X190064300Y-103148333D01*
X190135729Y-102957857D01*
X190195252Y-102862619D01*
X190248824Y-102815000D01*
X190350014Y-102767380D01*
X191385729Y-103243571D02*
X191052395Y-103243571D01*
X190986919Y-103767380D02*
X191111919Y-102767380D01*
X191588110Y-102767380D01*
X191844062Y-103767380D02*
X191969062Y-102767380D01*
X192415491Y-103767380D01*
X192540491Y-102767380D01*
X184945252Y-105369761D02*
X185082157Y-105417380D01*
X185320252Y-105417380D01*
X185421443Y-105369761D01*
X185475014Y-105322142D01*
X185534538Y-105226904D01*
X185546443Y-105131666D01*
X185510729Y-105036428D01*
X185469062Y-104988809D01*
X185379776Y-104941190D01*
X185195252Y-104893571D01*
X185105967Y-104845952D01*
X185064300Y-104798333D01*
X185028586Y-104703095D01*
X185040491Y-104607857D01*
X185100014Y-104512619D01*
X185153586Y-104465000D01*
X185254776Y-104417380D01*
X185492872Y-104417380D01*
X185629776Y-104465000D01*
X186082157Y-105417380D02*
X185992872Y-105369761D01*
X185951205Y-105322142D01*
X185915491Y-105226904D01*
X185951205Y-104941190D01*
X186010729Y-104845952D01*
X186064300Y-104798333D01*
X186165491Y-104750714D01*
X186308348Y-104750714D01*
X186397633Y-104798333D01*
X186439300Y-104845952D01*
X186475014Y-104941190D01*
X186439300Y-105226904D01*
X186379776Y-105322142D01*
X186326205Y-105369761D01*
X186225014Y-105417380D01*
X186082157Y-105417380D01*
X187278586Y-105369761D02*
X187177395Y-105417380D01*
X186986919Y-105417380D01*
X186897633Y-105369761D01*
X186855967Y-105322142D01*
X186820252Y-105226904D01*
X186855967Y-104941190D01*
X186915491Y-104845952D01*
X186969062Y-104798333D01*
X187070252Y-104750714D01*
X187260729Y-104750714D01*
X187350014Y-104798333D01*
X187701205Y-105417380D02*
X187826205Y-104417380D01*
X187844062Y-105036428D02*
X188082157Y-105417380D01*
X188165491Y-104750714D02*
X187736919Y-105131666D01*
X188897633Y-105369761D02*
X188796443Y-105417380D01*
X188605967Y-105417380D01*
X188516681Y-105369761D01*
X188480967Y-105274523D01*
X188528586Y-104893571D01*
X188588110Y-104798333D01*
X188689300Y-104750714D01*
X188879776Y-104750714D01*
X188969062Y-104798333D01*
X189004776Y-104893571D01*
X188992872Y-104988809D01*
X188504776Y-105084047D01*
X189308348Y-104750714D02*
X189689300Y-104750714D01*
X189492872Y-104417380D02*
X189385729Y-105274523D01*
X189421443Y-105369761D01*
X189510729Y-105417380D01*
X189605967Y-105417380D01*
D12*
X85725000Y-91440000D02*
X167005000Y-91440000D01*
X85725000Y-114300000D02*
X85725000Y-91440000D01*
X167005000Y-114300000D02*
X85725000Y-114300000D01*
X167005000Y-91440000D02*
X167005000Y-114300000D01*
X173942000Y-131295000D02*
X173942000Y-134135000D01*
X173942000Y-134135000D02*
X177982000Y-134135000D01*
X177982000Y-134135000D02*
X177982000Y-131295000D01*
X177982000Y-131295000D02*
X173942000Y-131295000D01*
X173252000Y-132715000D02*
X173942000Y-132715000D01*
X178672000Y-132715000D02*
X177982000Y-132715000D01*
X178672000Y-135890000D02*
X177982000Y-135890000D01*
X173252000Y-135890000D02*
X173942000Y-135890000D01*
X177982000Y-134470000D02*
X173942000Y-134470000D01*
X177982000Y-137310000D02*
X177982000Y-134470000D01*
X173942000Y-137310000D02*
X177982000Y-137310000D01*
X173942000Y-134470000D02*
X173942000Y-137310000D01*
X175245000Y-121000000D02*
X179085000Y-121000000D01*
X175245000Y-122840000D02*
X179085000Y-122840000D01*
X175245000Y-125380000D02*
X179085000Y-125380000D01*
X175245000Y-123540000D02*
X179085000Y-123540000D01*
X175245000Y-126080000D02*
X179085000Y-126080000D01*
X175245000Y-127920000D02*
X179085000Y-127920000D01*
X169605000Y-124190000D02*
G75*
G02X169605000Y-122190000I0J1000000D01*
G01*
X169605000Y-122190000D02*
X169605000Y-120940000D01*
X169605000Y-120940000D02*
X151705000Y-120940000D01*
X151705000Y-120940000D02*
X151705000Y-125440000D01*
X151705000Y-125440000D02*
X169605000Y-125440000D01*
X169605000Y-125440000D02*
X169605000Y-124190000D01*
X146745000Y-125440000D02*
X146745000Y-124190000D01*
X128845000Y-125440000D02*
X146745000Y-125440000D01*
X128845000Y-120940000D02*
X128845000Y-125440000D01*
X146745000Y-120940000D02*
X128845000Y-120940000D01*
X146745000Y-122190000D02*
X146745000Y-120940000D01*
X146745000Y-124190000D02*
G75*
G02X146745000Y-122190000I0J1000000D01*
G01*
X126425000Y-124190000D02*
G75*
G02X126425000Y-122190000I0J1000000D01*
G01*
X126425000Y-122190000D02*
X126425000Y-120940000D01*
X126425000Y-120940000D02*
X108525000Y-120940000D01*
X108525000Y-120940000D02*
X108525000Y-125440000D01*
X108525000Y-125440000D02*
X126425000Y-125440000D01*
X126425000Y-125440000D02*
X126425000Y-124190000D01*
X106105000Y-124190000D02*
G75*
G02X106105000Y-122190000I0J1000000D01*
G01*
X106105000Y-122190000D02*
X106105000Y-120940000D01*
X106105000Y-120940000D02*
X85665000Y-120940000D01*
X85665000Y-120940000D02*
X85665000Y-125440000D01*
X85665000Y-125440000D02*
X106105000Y-125440000D01*
X106105000Y-125440000D02*
X106105000Y-124190000D01*
X169605000Y-137505000D02*
X169605000Y-136255000D01*
X151705000Y-137505000D02*
X169605000Y-137505000D01*
X151705000Y-133005000D02*
X151705000Y-137505000D01*
X169605000Y-133005000D02*
X151705000Y-133005000D01*
X169605000Y-134255000D02*
X169605000Y-133005000D01*
X169605000Y-136255000D02*
G75*
G02X169605000Y-134255000I0J1000000D01*
G01*
X204530000Y-122495000D02*
X201870000Y-122495000D01*
X204530000Y-127635000D02*
X204530000Y-122495000D01*
X201870000Y-127635000D02*
X201870000Y-122495000D01*
X204530000Y-127635000D02*
X201870000Y-127635000D01*
X204530000Y-128905000D02*
X204530000Y-130235000D01*
X204530000Y-130235000D02*
X203200000Y-130235000D01*
X149285000Y-136255000D02*
G75*
G02X149285000Y-134255000I0J1000000D01*
G01*
X149285000Y-134255000D02*
X149285000Y-133005000D01*
X149285000Y-133005000D02*
X128845000Y-133005000D01*
X128845000Y-133005000D02*
X128845000Y-137505000D01*
X128845000Y-137505000D02*
X149285000Y-137505000D01*
X149285000Y-137505000D02*
X149285000Y-136255000D01*
X126425000Y-136255000D02*
G75*
G02X126425000Y-134255000I0J1000000D01*
G01*
X126425000Y-134255000D02*
X126425000Y-133005000D01*
X126425000Y-133005000D02*
X105985000Y-133005000D01*
X105985000Y-133005000D02*
X105985000Y-137505000D01*
X105985000Y-137505000D02*
X126425000Y-137505000D01*
X126425000Y-137505000D02*
X126425000Y-136255000D01*
X103565000Y-136255000D02*
G75*
G02X103565000Y-134255000I0J1000000D01*
G01*
X103565000Y-134255000D02*
X103565000Y-133005000D01*
X103565000Y-133005000D02*
X85665000Y-133005000D01*
X85665000Y-133005000D02*
X85665000Y-137505000D01*
X85665000Y-137505000D02*
X103565000Y-137505000D01*
X103565000Y-137505000D02*
X103565000Y-136255000D01*
X203585000Y-101870000D02*
X203585000Y-88245000D01*
X203585000Y-88245000D02*
X202585000Y-87245000D01*
X202585000Y-87245000D02*
X172335000Y-87245000D01*
X172335000Y-87245000D02*
X172335000Y-118495000D01*
X172335000Y-118495000D02*
X203585000Y-118495000D01*
X203585000Y-118495000D02*
X203585000Y-103870000D01*
X177975000Y-140485000D02*
X177975000Y-137645000D01*
X177975000Y-137645000D02*
X173935000Y-137645000D01*
X173935000Y-137645000D02*
X173935000Y-140485000D01*
X173935000Y-140485000D02*
X177975000Y-140485000D01*
X178665000Y-139065000D02*
X177975000Y-139065000D01*
X173245000Y-139065000D02*
X173935000Y-139065000D01*
X188705000Y-123825000D02*
X188015000Y-123825000D01*
X183285000Y-123825000D02*
X183975000Y-123825000D01*
X188015000Y-122405000D02*
X183975000Y-122405000D01*
X188015000Y-125245000D02*
X188015000Y-122405000D01*
X183975000Y-125245000D02*
X188015000Y-125245000D01*
X183975000Y-122405000D02*
X183975000Y-125245000D01*
X183975000Y-125580000D02*
X183975000Y-128420000D01*
X183975000Y-128420000D02*
X188015000Y-128420000D01*
X188015000Y-128420000D02*
X188015000Y-125580000D01*
X188015000Y-125580000D02*
X183975000Y-125580000D01*
X183285000Y-127000000D02*
X183975000Y-127000000D01*
X188705000Y-127000000D02*
X188015000Y-127000000D01*
X188705000Y-130175000D02*
X188015000Y-130175000D01*
X183285000Y-130175000D02*
X183975000Y-130175000D01*
X188015000Y-128755000D02*
X183975000Y-128755000D01*
X188015000Y-131595000D02*
X188015000Y-128755000D01*
X183975000Y-131595000D02*
X188015000Y-131595000D01*
X183975000Y-128755000D02*
X183975000Y-131595000D01*
X183975000Y-131930000D02*
X183975000Y-134770000D01*
X183975000Y-134770000D02*
X188015000Y-134770000D01*
X188015000Y-134770000D02*
X188015000Y-131930000D01*
X188015000Y-131930000D02*
X183975000Y-131930000D01*
X183285000Y-133350000D02*
X183975000Y-133350000D01*
X188705000Y-133350000D02*
X188015000Y-133350000D01*
X198865000Y-123825000D02*
X198175000Y-123825000D01*
X193445000Y-123825000D02*
X194135000Y-123825000D01*
X198175000Y-122405000D02*
X194135000Y-122405000D01*
X198175000Y-125245000D02*
X198175000Y-122405000D01*
X194135000Y-125245000D02*
X198175000Y-125245000D01*
X194135000Y-122405000D02*
X194135000Y-125245000D01*
X194135000Y-125580000D02*
X194135000Y-128420000D01*
X194135000Y-128420000D02*
X198175000Y-128420000D01*
X198175000Y-128420000D02*
X198175000Y-125580000D01*
X198175000Y-125580000D02*
X194135000Y-125580000D01*
X193445000Y-127000000D02*
X194135000Y-127000000D01*
X198865000Y-127000000D02*
X198175000Y-127000000D01*
X198865000Y-130175000D02*
X198175000Y-130175000D01*
X193445000Y-130175000D02*
X194135000Y-130175000D01*
X198175000Y-128755000D02*
X194135000Y-128755000D01*
X198175000Y-131595000D02*
X198175000Y-128755000D01*
X194135000Y-131595000D02*
X198175000Y-131595000D01*
X194135000Y-128755000D02*
X194135000Y-131595000D01*
D10*
X167727380Y-103631904D02*
X168536904Y-103631904D01*
X168632142Y-103584285D01*
X168679761Y-103536666D01*
X168727380Y-103441428D01*
X168727380Y-103250952D01*
X168679761Y-103155714D01*
X168632142Y-103108095D01*
X168536904Y-103060476D01*
X167727380Y-103060476D01*
X168727380Y-102060476D02*
X168727380Y-102631904D01*
X168727380Y-102346190D02*
X167727380Y-102346190D01*
X167870238Y-102441428D01*
X167965476Y-102536666D01*
X168013095Y-102631904D01*
X165474300Y-112482380D02*
X165283824Y-112482380D01*
X165182633Y-112530000D01*
X165129062Y-112577619D01*
X165015967Y-112720476D01*
X164944538Y-112910952D01*
X164896919Y-113291904D01*
X164932633Y-113387142D01*
X164974300Y-113434761D01*
X165063586Y-113482380D01*
X165254062Y-113482380D01*
X165355252Y-113434761D01*
X165408824Y-113387142D01*
X165468348Y-113291904D01*
X165498110Y-113053809D01*
X165462395Y-112958571D01*
X165420729Y-112910952D01*
X165331443Y-112863333D01*
X165140967Y-112863333D01*
X165039776Y-112910952D01*
X164986205Y-112958571D01*
X164926681Y-113053809D01*
X166385014Y-112815714D02*
X166301681Y-113482380D01*
X166194538Y-112434761D02*
X165867157Y-113149047D01*
X166486205Y-113149047D01*
X165920729Y-93162380D02*
X165349300Y-93162380D01*
X165635014Y-93162380D02*
X165760014Y-92162380D01*
X165646919Y-92305238D01*
X165539776Y-92400476D01*
X165438586Y-92448095D01*
X175795333Y-133072142D02*
X175747714Y-133119761D01*
X175604857Y-133167380D01*
X175509619Y-133167380D01*
X175366761Y-133119761D01*
X175271523Y-133024523D01*
X175223904Y-132929285D01*
X175176285Y-132738809D01*
X175176285Y-132595952D01*
X175223904Y-132405476D01*
X175271523Y-132310238D01*
X175366761Y-132215000D01*
X175509619Y-132167380D01*
X175604857Y-132167380D01*
X175747714Y-132215000D01*
X175795333Y-132262619D01*
X176747714Y-133167380D02*
X176176285Y-133167380D01*
X176462000Y-133167380D02*
X176462000Y-132167380D01*
X176366761Y-132310238D01*
X176271523Y-132405476D01*
X176176285Y-132453095D01*
X175795333Y-136247142D02*
X175747714Y-136294761D01*
X175604857Y-136342380D01*
X175509619Y-136342380D01*
X175366761Y-136294761D01*
X175271523Y-136199523D01*
X175223904Y-136104285D01*
X175176285Y-135913809D01*
X175176285Y-135770952D01*
X175223904Y-135580476D01*
X175271523Y-135485238D01*
X175366761Y-135390000D01*
X175509619Y-135342380D01*
X175604857Y-135342380D01*
X175747714Y-135390000D01*
X175795333Y-135437619D01*
X176176285Y-135437619D02*
X176223904Y-135390000D01*
X176319142Y-135342380D01*
X176557238Y-135342380D01*
X176652476Y-135390000D01*
X176700095Y-135437619D01*
X176747714Y-135532857D01*
X176747714Y-135628095D01*
X176700095Y-135770952D01*
X176128666Y-136342380D01*
X176747714Y-136342380D01*
X176998333Y-122372380D02*
X176665000Y-121896190D01*
X176426904Y-122372380D02*
X176426904Y-121372380D01*
X176807857Y-121372380D01*
X176903095Y-121420000D01*
X176950714Y-121467619D01*
X176998333Y-121562857D01*
X176998333Y-121705714D01*
X176950714Y-121800952D01*
X176903095Y-121848571D01*
X176807857Y-121896190D01*
X176426904Y-121896190D01*
X177950714Y-122372380D02*
X177379285Y-122372380D01*
X177665000Y-122372380D02*
X177665000Y-121372380D01*
X177569761Y-121515238D01*
X177474523Y-121610476D01*
X177379285Y-121658095D01*
X176998333Y-124912380D02*
X176665000Y-124436190D01*
X176426904Y-124912380D02*
X176426904Y-123912380D01*
X176807857Y-123912380D01*
X176903095Y-123960000D01*
X176950714Y-124007619D01*
X176998333Y-124102857D01*
X176998333Y-124245714D01*
X176950714Y-124340952D01*
X176903095Y-124388571D01*
X176807857Y-124436190D01*
X176426904Y-124436190D01*
X177379285Y-124007619D02*
X177426904Y-123960000D01*
X177522142Y-123912380D01*
X177760238Y-123912380D01*
X177855476Y-123960000D01*
X177903095Y-124007619D01*
X177950714Y-124102857D01*
X177950714Y-124198095D01*
X177903095Y-124340952D01*
X177331666Y-124912380D01*
X177950714Y-124912380D01*
X176998333Y-127452380D02*
X176665000Y-126976190D01*
X176426904Y-127452380D02*
X176426904Y-126452380D01*
X176807857Y-126452380D01*
X176903095Y-126500000D01*
X176950714Y-126547619D01*
X176998333Y-126642857D01*
X176998333Y-126785714D01*
X176950714Y-126880952D01*
X176903095Y-126928571D01*
X176807857Y-126976190D01*
X176426904Y-126976190D01*
X177331666Y-126452380D02*
X177950714Y-126452380D01*
X177617380Y-126833333D01*
X177760238Y-126833333D01*
X177855476Y-126880952D01*
X177903095Y-126928571D01*
X177950714Y-127023809D01*
X177950714Y-127261904D01*
X177903095Y-127357142D01*
X177855476Y-127404761D01*
X177760238Y-127452380D01*
X177474523Y-127452380D01*
X177379285Y-127404761D01*
X177331666Y-127357142D01*
X169843095Y-122642380D02*
X169843095Y-123451904D01*
X169890714Y-123547142D01*
X169938333Y-123594761D01*
X170033571Y-123642380D01*
X170224047Y-123642380D01*
X170319285Y-123594761D01*
X170366904Y-123547142D01*
X170414523Y-123451904D01*
X170414523Y-122642380D01*
X170795476Y-122642380D02*
X171414523Y-122642380D01*
X171081190Y-123023333D01*
X171224047Y-123023333D01*
X171319285Y-123070952D01*
X171366904Y-123118571D01*
X171414523Y-123213809D01*
X171414523Y-123451904D01*
X171366904Y-123547142D01*
X171319285Y-123594761D01*
X171224047Y-123642380D01*
X170938333Y-123642380D01*
X170843095Y-123594761D01*
X170795476Y-123547142D01*
X146983095Y-122642380D02*
X146983095Y-123451904D01*
X147030714Y-123547142D01*
X147078333Y-123594761D01*
X147173571Y-123642380D01*
X147364047Y-123642380D01*
X147459285Y-123594761D01*
X147506904Y-123547142D01*
X147554523Y-123451904D01*
X147554523Y-122642380D01*
X148459285Y-122975714D02*
X148459285Y-123642380D01*
X148221190Y-122594761D02*
X147983095Y-123309047D01*
X148602142Y-123309047D01*
X126663095Y-122642380D02*
X126663095Y-123451904D01*
X126710714Y-123547142D01*
X126758333Y-123594761D01*
X126853571Y-123642380D01*
X127044047Y-123642380D01*
X127139285Y-123594761D01*
X127186904Y-123547142D01*
X127234523Y-123451904D01*
X127234523Y-122642380D01*
X128186904Y-122642380D02*
X127710714Y-122642380D01*
X127663095Y-123118571D01*
X127710714Y-123070952D01*
X127805952Y-123023333D01*
X128044047Y-123023333D01*
X128139285Y-123070952D01*
X128186904Y-123118571D01*
X128234523Y-123213809D01*
X128234523Y-123451904D01*
X128186904Y-123547142D01*
X128139285Y-123594761D01*
X128044047Y-123642380D01*
X127805952Y-123642380D01*
X127710714Y-123594761D01*
X127663095Y-123547142D01*
X106343095Y-122642380D02*
X106343095Y-123451904D01*
X106390714Y-123547142D01*
X106438333Y-123594761D01*
X106533571Y-123642380D01*
X106724047Y-123642380D01*
X106819285Y-123594761D01*
X106866904Y-123547142D01*
X106914523Y-123451904D01*
X106914523Y-122642380D01*
X107819285Y-122642380D02*
X107628809Y-122642380D01*
X107533571Y-122690000D01*
X107485952Y-122737619D01*
X107390714Y-122880476D01*
X107343095Y-123070952D01*
X107343095Y-123451904D01*
X107390714Y-123547142D01*
X107438333Y-123594761D01*
X107533571Y-123642380D01*
X107724047Y-123642380D01*
X107819285Y-123594761D01*
X107866904Y-123547142D01*
X107914523Y-123451904D01*
X107914523Y-123213809D01*
X107866904Y-123118571D01*
X107819285Y-123070952D01*
X107724047Y-123023333D01*
X107533571Y-123023333D01*
X107438333Y-123070952D01*
X107390714Y-123118571D01*
X107343095Y-123213809D01*
X169843095Y-134707380D02*
X169843095Y-135516904D01*
X169890714Y-135612142D01*
X169938333Y-135659761D01*
X170033571Y-135707380D01*
X170224047Y-135707380D01*
X170319285Y-135659761D01*
X170366904Y-135612142D01*
X170414523Y-135516904D01*
X170414523Y-134707380D01*
X170795476Y-134707380D02*
X171462142Y-134707380D01*
X171033571Y-135707380D01*
X202866666Y-130687380D02*
X202866666Y-131401666D01*
X202819047Y-131544523D01*
X202723809Y-131639761D01*
X202580952Y-131687380D01*
X202485714Y-131687380D01*
X203866666Y-131687380D02*
X203295238Y-131687380D01*
X203580952Y-131687380D02*
X203580952Y-130687380D01*
X203485714Y-130830238D01*
X203390476Y-130925476D01*
X203295238Y-130973095D01*
X149523095Y-134707380D02*
X149523095Y-135516904D01*
X149570714Y-135612142D01*
X149618333Y-135659761D01*
X149713571Y-135707380D01*
X149904047Y-135707380D01*
X149999285Y-135659761D01*
X150046904Y-135612142D01*
X150094523Y-135516904D01*
X150094523Y-134707380D01*
X150713571Y-135135952D02*
X150618333Y-135088333D01*
X150570714Y-135040714D01*
X150523095Y-134945476D01*
X150523095Y-134897857D01*
X150570714Y-134802619D01*
X150618333Y-134755000D01*
X150713571Y-134707380D01*
X150904047Y-134707380D01*
X150999285Y-134755000D01*
X151046904Y-134802619D01*
X151094523Y-134897857D01*
X151094523Y-134945476D01*
X151046904Y-135040714D01*
X150999285Y-135088333D01*
X150904047Y-135135952D01*
X150713571Y-135135952D01*
X150618333Y-135183571D01*
X150570714Y-135231190D01*
X150523095Y-135326428D01*
X150523095Y-135516904D01*
X150570714Y-135612142D01*
X150618333Y-135659761D01*
X150713571Y-135707380D01*
X150904047Y-135707380D01*
X150999285Y-135659761D01*
X151046904Y-135612142D01*
X151094523Y-135516904D01*
X151094523Y-135326428D01*
X151046904Y-135231190D01*
X150999285Y-135183571D01*
X150904047Y-135135952D01*
X126663095Y-134707380D02*
X126663095Y-135516904D01*
X126710714Y-135612142D01*
X126758333Y-135659761D01*
X126853571Y-135707380D01*
X127044047Y-135707380D01*
X127139285Y-135659761D01*
X127186904Y-135612142D01*
X127234523Y-135516904D01*
X127234523Y-134707380D01*
X127758333Y-135707380D02*
X127948809Y-135707380D01*
X128044047Y-135659761D01*
X128091666Y-135612142D01*
X128186904Y-135469285D01*
X128234523Y-135278809D01*
X128234523Y-134897857D01*
X128186904Y-134802619D01*
X128139285Y-134755000D01*
X128044047Y-134707380D01*
X127853571Y-134707380D01*
X127758333Y-134755000D01*
X127710714Y-134802619D01*
X127663095Y-134897857D01*
X127663095Y-135135952D01*
X127710714Y-135231190D01*
X127758333Y-135278809D01*
X127853571Y-135326428D01*
X128044047Y-135326428D01*
X128139285Y-135278809D01*
X128186904Y-135231190D01*
X128234523Y-135135952D01*
X103326904Y-134707380D02*
X103326904Y-135516904D01*
X103374523Y-135612142D01*
X103422142Y-135659761D01*
X103517380Y-135707380D01*
X103707857Y-135707380D01*
X103803095Y-135659761D01*
X103850714Y-135612142D01*
X103898333Y-135516904D01*
X103898333Y-134707380D01*
X104898333Y-135707380D02*
X104326904Y-135707380D01*
X104612619Y-135707380D02*
X104612619Y-134707380D01*
X104517380Y-134850238D01*
X104422142Y-134945476D01*
X104326904Y-134993095D01*
X105517380Y-134707380D02*
X105612619Y-134707380D01*
X105707857Y-134755000D01*
X105755476Y-134802619D01*
X105803095Y-134897857D01*
X105850714Y-135088333D01*
X105850714Y-135326428D01*
X105803095Y-135516904D01*
X105755476Y-135612142D01*
X105707857Y-135659761D01*
X105612619Y-135707380D01*
X105517380Y-135707380D01*
X105422142Y-135659761D01*
X105374523Y-135612142D01*
X105326904Y-135516904D01*
X105279285Y-135326428D01*
X105279285Y-135088333D01*
X105326904Y-134897857D01*
X105374523Y-134802619D01*
X105422142Y-134755000D01*
X105517380Y-134707380D01*
X203937380Y-103631904D02*
X204746904Y-103631904D01*
X204842142Y-103584285D01*
X204889761Y-103536666D01*
X204937380Y-103441428D01*
X204937380Y-103250952D01*
X204889761Y-103155714D01*
X204842142Y-103108095D01*
X204746904Y-103060476D01*
X203937380Y-103060476D01*
X204032619Y-102631904D02*
X203985000Y-102584285D01*
X203937380Y-102489047D01*
X203937380Y-102250952D01*
X203985000Y-102155714D01*
X204032619Y-102108095D01*
X204127857Y-102060476D01*
X204223095Y-102060476D01*
X204365952Y-102108095D01*
X204937380Y-102679523D01*
X204937380Y-102060476D01*
X175788333Y-139422142D02*
X175740714Y-139469761D01*
X175597857Y-139517380D01*
X175502619Y-139517380D01*
X175359761Y-139469761D01*
X175264523Y-139374523D01*
X175216904Y-139279285D01*
X175169285Y-139088809D01*
X175169285Y-138945952D01*
X175216904Y-138755476D01*
X175264523Y-138660238D01*
X175359761Y-138565000D01*
X175502619Y-138517380D01*
X175597857Y-138517380D01*
X175740714Y-138565000D01*
X175788333Y-138612619D01*
X176121666Y-138517380D02*
X176740714Y-138517380D01*
X176407380Y-138898333D01*
X176550238Y-138898333D01*
X176645476Y-138945952D01*
X176693095Y-138993571D01*
X176740714Y-139088809D01*
X176740714Y-139326904D01*
X176693095Y-139422142D01*
X176645476Y-139469761D01*
X176550238Y-139517380D01*
X176264523Y-139517380D01*
X176169285Y-139469761D01*
X176121666Y-139422142D01*
X185828333Y-124182142D02*
X185780714Y-124229761D01*
X185637857Y-124277380D01*
X185542619Y-124277380D01*
X185399761Y-124229761D01*
X185304523Y-124134523D01*
X185256904Y-124039285D01*
X185209285Y-123848809D01*
X185209285Y-123705952D01*
X185256904Y-123515476D01*
X185304523Y-123420238D01*
X185399761Y-123325000D01*
X185542619Y-123277380D01*
X185637857Y-123277380D01*
X185780714Y-123325000D01*
X185828333Y-123372619D01*
X186685476Y-123610714D02*
X186685476Y-124277380D01*
X186447380Y-123229761D02*
X186209285Y-123944047D01*
X186828333Y-123944047D01*
X185828333Y-127357142D02*
X185780714Y-127404761D01*
X185637857Y-127452380D01*
X185542619Y-127452380D01*
X185399761Y-127404761D01*
X185304523Y-127309523D01*
X185256904Y-127214285D01*
X185209285Y-127023809D01*
X185209285Y-126880952D01*
X185256904Y-126690476D01*
X185304523Y-126595238D01*
X185399761Y-126500000D01*
X185542619Y-126452380D01*
X185637857Y-126452380D01*
X185780714Y-126500000D01*
X185828333Y-126547619D01*
X186733095Y-126452380D02*
X186256904Y-126452380D01*
X186209285Y-126928571D01*
X186256904Y-126880952D01*
X186352142Y-126833333D01*
X186590238Y-126833333D01*
X186685476Y-126880952D01*
X186733095Y-126928571D01*
X186780714Y-127023809D01*
X186780714Y-127261904D01*
X186733095Y-127357142D01*
X186685476Y-127404761D01*
X186590238Y-127452380D01*
X186352142Y-127452380D01*
X186256904Y-127404761D01*
X186209285Y-127357142D01*
X185828333Y-130532142D02*
X185780714Y-130579761D01*
X185637857Y-130627380D01*
X185542619Y-130627380D01*
X185399761Y-130579761D01*
X185304523Y-130484523D01*
X185256904Y-130389285D01*
X185209285Y-130198809D01*
X185209285Y-130055952D01*
X185256904Y-129865476D01*
X185304523Y-129770238D01*
X185399761Y-129675000D01*
X185542619Y-129627380D01*
X185637857Y-129627380D01*
X185780714Y-129675000D01*
X185828333Y-129722619D01*
X186685476Y-129627380D02*
X186495000Y-129627380D01*
X186399761Y-129675000D01*
X186352142Y-129722619D01*
X186256904Y-129865476D01*
X186209285Y-130055952D01*
X186209285Y-130436904D01*
X186256904Y-130532142D01*
X186304523Y-130579761D01*
X186399761Y-130627380D01*
X186590238Y-130627380D01*
X186685476Y-130579761D01*
X186733095Y-130532142D01*
X186780714Y-130436904D01*
X186780714Y-130198809D01*
X186733095Y-130103571D01*
X186685476Y-130055952D01*
X186590238Y-130008333D01*
X186399761Y-130008333D01*
X186304523Y-130055952D01*
X186256904Y-130103571D01*
X186209285Y-130198809D01*
X185828333Y-133707142D02*
X185780714Y-133754761D01*
X185637857Y-133802380D01*
X185542619Y-133802380D01*
X185399761Y-133754761D01*
X185304523Y-133659523D01*
X185256904Y-133564285D01*
X185209285Y-133373809D01*
X185209285Y-133230952D01*
X185256904Y-133040476D01*
X185304523Y-132945238D01*
X185399761Y-132850000D01*
X185542619Y-132802380D01*
X185637857Y-132802380D01*
X185780714Y-132850000D01*
X185828333Y-132897619D01*
X186161666Y-132802380D02*
X186828333Y-132802380D01*
X186399761Y-133802380D01*
X195988333Y-124182142D02*
X195940714Y-124229761D01*
X195797857Y-124277380D01*
X195702619Y-124277380D01*
X195559761Y-124229761D01*
X195464523Y-124134523D01*
X195416904Y-124039285D01*
X195369285Y-123848809D01*
X195369285Y-123705952D01*
X195416904Y-123515476D01*
X195464523Y-123420238D01*
X195559761Y-123325000D01*
X195702619Y-123277380D01*
X195797857Y-123277380D01*
X195940714Y-123325000D01*
X195988333Y-123372619D01*
X196559761Y-123705952D02*
X196464523Y-123658333D01*
X196416904Y-123610714D01*
X196369285Y-123515476D01*
X196369285Y-123467857D01*
X196416904Y-123372619D01*
X196464523Y-123325000D01*
X196559761Y-123277380D01*
X196750238Y-123277380D01*
X196845476Y-123325000D01*
X196893095Y-123372619D01*
X196940714Y-123467857D01*
X196940714Y-123515476D01*
X196893095Y-123610714D01*
X196845476Y-123658333D01*
X196750238Y-123705952D01*
X196559761Y-123705952D01*
X196464523Y-123753571D01*
X196416904Y-123801190D01*
X196369285Y-123896428D01*
X196369285Y-124086904D01*
X196416904Y-124182142D01*
X196464523Y-124229761D01*
X196559761Y-124277380D01*
X196750238Y-124277380D01*
X196845476Y-124229761D01*
X196893095Y-124182142D01*
X196940714Y-124086904D01*
X196940714Y-123896428D01*
X196893095Y-123801190D01*
X196845476Y-123753571D01*
X196750238Y-123705952D01*
X195988333Y-127357142D02*
X195940714Y-127404761D01*
X195797857Y-127452380D01*
X195702619Y-127452380D01*
X195559761Y-127404761D01*
X195464523Y-127309523D01*
X195416904Y-127214285D01*
X195369285Y-127023809D01*
X195369285Y-126880952D01*
X195416904Y-126690476D01*
X195464523Y-126595238D01*
X195559761Y-126500000D01*
X195702619Y-126452380D01*
X195797857Y-126452380D01*
X195940714Y-126500000D01*
X195988333Y-126547619D01*
X196464523Y-127452380D02*
X196655000Y-127452380D01*
X196750238Y-127404761D01*
X196797857Y-127357142D01*
X196893095Y-127214285D01*
X196940714Y-127023809D01*
X196940714Y-126642857D01*
X196893095Y-126547619D01*
X196845476Y-126500000D01*
X196750238Y-126452380D01*
X196559761Y-126452380D01*
X196464523Y-126500000D01*
X196416904Y-126547619D01*
X196369285Y-126642857D01*
X196369285Y-126880952D01*
X196416904Y-126976190D01*
X196464523Y-127023809D01*
X196559761Y-127071428D01*
X196750238Y-127071428D01*
X196845476Y-127023809D01*
X196893095Y-126976190D01*
X196940714Y-126880952D01*
X195512142Y-130532142D02*
X195464523Y-130579761D01*
X195321666Y-130627380D01*
X195226428Y-130627380D01*
X195083571Y-130579761D01*
X194988333Y-130484523D01*
X194940714Y-130389285D01*
X194893095Y-130198809D01*
X194893095Y-130055952D01*
X194940714Y-129865476D01*
X194988333Y-129770238D01*
X195083571Y-129675000D01*
X195226428Y-129627380D01*
X195321666Y-129627380D01*
X195464523Y-129675000D01*
X195512142Y-129722619D01*
X196464523Y-130627380D02*
X195893095Y-130627380D01*
X196178809Y-130627380D02*
X196178809Y-129627380D01*
X196083571Y-129770238D01*
X195988333Y-129865476D01*
X195893095Y-129913095D01*
X197083571Y-129627380D02*
X197178809Y-129627380D01*
X197274047Y-129675000D01*
X197321666Y-129722619D01*
X197369285Y-129817857D01*
X197416904Y-130008333D01*
X197416904Y-130246428D01*
X197369285Y-130436904D01*
X197321666Y-130532142D01*
X197274047Y-130579761D01*
X197178809Y-130627380D01*
X197083571Y-130627380D01*
X196988333Y-130579761D01*
X196940714Y-130532142D01*
X196893095Y-130436904D01*
X196845476Y-130246428D01*
X196845476Y-130008333D01*
X196893095Y-129817857D01*
X196940714Y-129722619D01*
X196988333Y-129675000D01*
X197083571Y-129627380D01*
M02*
