M48
; DRILL file {KiCad (5.1.2-1)-1} date Sunday, 26 May 2019 at 22:41:41
; FORMAT={3:3/ absolute / metric / suppress leading zeros}
; #@! TF.CreationDate,2019-05-26T22:41:41+01:00
; #@! TF.GenerationSoftware,Kicad,Pcbnew,(5.1.2-1)-1
FMAT,2
METRIC,TZ
T1C0.400
T2C0.700
T3C0.762
T4C0.800
T5C1.000
%
G90
G05
T1
X105884Y-133815
X108419Y-129296
X110387Y-95128
X110387Y-102896
X115613Y-125267
X116535Y-88145
X117701Y-96473
X123568Y-107319
X124053Y-102320
X126009Y-102584
X127770Y-122632
X128873Y-121649
X128905Y-114401
X138953Y-128294
X139571Y-121664
X140655Y-102636
X141915Y-124985
X143693Y-102018
X144115Y-114175
X144958Y-100693
X146098Y-88376
X146987Y-136748
X148193Y-135488
X152918Y-122067
X156337Y-104971
X158961Y-122961
X159068Y-100368
X162482Y-133816
X163609Y-98946
X164272Y-129448
X168250Y-117121
X170140Y-110588
X170639Y-124154
X172080Y-116349
X172101Y-113822
X172249Y-111306
X173866Y-117908
X179033Y-125667
X180808Y-97753
X183692Y-95382
X184630Y-97006
X186796Y-95956
X189150Y-109855
X195218Y-102972
T2
X174625Y-121920
X179705Y-121920
X174625Y-124460
X179705Y-124460
X174625Y-127000
X179705Y-127000
T3
X86995Y-90170
X86995Y-115570
X89535Y-90170
X89535Y-115570
X92075Y-90170
X92075Y-115570
X94615Y-90170
X94615Y-115570
X97155Y-90170
X97155Y-115570
X99695Y-90170
X99695Y-115570
X102235Y-90170
X102235Y-115570
X104775Y-90170
X104775Y-115570
X107315Y-90170
X107315Y-115570
X109855Y-90170
X109855Y-115570
X112395Y-90170
X112395Y-115570
X114935Y-90170
X114935Y-115570
X117475Y-90170
X117475Y-115570
X120015Y-90170
X120015Y-115570
X122555Y-90170
X122555Y-115570
X125095Y-90170
X125095Y-115570
X127635Y-90170
X127635Y-115570
X130175Y-90170
X130175Y-115570
X132715Y-90170
X132715Y-115570
X135255Y-90170
X135255Y-115570
X137795Y-90170
X137795Y-115570
X140335Y-90170
X140335Y-115570
X142875Y-90170
X142875Y-115570
X145415Y-90170
X145415Y-115570
X147955Y-90170
X147955Y-115570
X150495Y-90170
X150495Y-115570
X153035Y-90170
X153035Y-115570
X155575Y-90170
X155575Y-115570
X158115Y-90170
X158115Y-115570
X160655Y-90170
X160655Y-115570
X163195Y-90170
X163195Y-115570
X165735Y-90170
X165735Y-115570
T4
X187325Y-128270
X194825Y-128270
X187325Y-125095
X194825Y-125095
X130175Y-131445
X130175Y-139065
X132715Y-131445
X132715Y-139065
X135255Y-131445
X135255Y-139065
X137795Y-131445
X137795Y-139065
X140335Y-131445
X140335Y-139065
X142875Y-131445
X142875Y-139065
X145415Y-131445
X145415Y-139065
X147955Y-131445
X147955Y-139065
X153035Y-119380
X153035Y-127000
X155575Y-119380
X155575Y-127000
X158115Y-119380
X158115Y-127000
X160655Y-119380
X160655Y-127000
X163195Y-119380
X163195Y-127000
X165735Y-119380
X165735Y-127000
X168275Y-119380
X168275Y-127000
X86995Y-119380
X86995Y-127000
X89535Y-119380
X89535Y-127000
X92075Y-119380
X92075Y-127000
X94615Y-119380
X94615Y-127000
X97155Y-119380
X97155Y-127000
X99695Y-119380
X99695Y-127000
X102235Y-119380
X102235Y-127000
X104775Y-119380
X104775Y-127000
X86995Y-131445
X86995Y-139065
X89535Y-131445
X89535Y-139065
X92075Y-131445
X92075Y-139065
X94615Y-131445
X94615Y-139065
X97155Y-131445
X97155Y-139065
X99695Y-131445
X99695Y-139065
X102235Y-131445
X102235Y-139065
X109855Y-119380
X109855Y-127000
X112395Y-119380
X112395Y-127000
X114935Y-119380
X114935Y-127000
X117475Y-119380
X117475Y-127000
X120015Y-119380
X120015Y-127000
X122555Y-119380
X122555Y-127000
X125095Y-119380
X125095Y-127000
X187325Y-121920
X194825Y-121920
X174625Y-94615
X174625Y-97155
X174625Y-99695
X174625Y-102235
X174625Y-104775
X174625Y-107315
X174625Y-109855
X174625Y-112395
X174625Y-114935
X177165Y-92075
X177165Y-94615
X177165Y-97155
X177165Y-99695
X177165Y-102235
X177165Y-104775
X177165Y-107315
X177165Y-109855
X177165Y-112395
X177165Y-114935
X177165Y-117475
X179705Y-92075
X179705Y-94615
X179705Y-114935
X179705Y-117475
X182245Y-92075
X182245Y-94615
X182245Y-114935
X182245Y-117475
X184785Y-92075
X184785Y-94615
X184785Y-114935
X184785Y-117475
X187325Y-92075
X187325Y-94615
X187325Y-114935
X187325Y-117475
X189865Y-92075
X189865Y-94615
X189865Y-114935
X189865Y-117475
X192405Y-92075
X192405Y-94615
X192405Y-114935
X192405Y-117475
X194945Y-92075
X194945Y-94615
X194945Y-114935
X194945Y-117475
X197485Y-92075
X197485Y-94615
X197485Y-97155
X197485Y-99695
X197485Y-102235
X197485Y-104775
X197485Y-107315
X197485Y-109855
X197485Y-112395
X197485Y-114935
X197485Y-117475
X200025Y-94615
X200025Y-97155
X200025Y-99695
X200025Y-102235
X200025Y-104775
X200025Y-107315
X200025Y-109855
X200025Y-112395
X200025Y-114935
X130175Y-119380
X130175Y-127000
X132715Y-119380
X132715Y-127000
X135255Y-119380
X135255Y-127000
X137795Y-119380
X137795Y-127000
X140335Y-119380
X140335Y-127000
X142875Y-119380
X142875Y-127000
X145415Y-119380
X145415Y-127000
X153035Y-131445
X153035Y-139065
X155575Y-131445
X155575Y-139065
X158115Y-131445
X158115Y-139065
X160655Y-131445
X160655Y-139065
X163195Y-131445
X163195Y-139065
X165735Y-131445
X165735Y-139065
X168275Y-131445
X168275Y-139065
X107315Y-131445
X107315Y-139065
X109855Y-131445
X109855Y-139065
X112395Y-131445
X112395Y-139065
X114935Y-131445
X114935Y-139065
X117475Y-131445
X117475Y-139065
X120015Y-131445
X120015Y-139065
X122555Y-131445
X122555Y-139065
X125095Y-131445
X125095Y-139065
T5
X201295Y-121920
X201295Y-124460
X201295Y-127000
T0
M30
