M48
; DRILL file {KiCad (5.1.2-1)-1} date Sunday, 02 June 2019 at 17:29:03
; FORMAT={3:3/ absolute / metric / suppress leading zeros}
; #@! TF.CreationDate,2019-06-02T17:29:03+01:00
; #@! TF.GenerationSoftware,Kicad,Pcbnew,(5.1.2-1)-1
FMAT,2
METRIC,TZ
T1C0.400
T2C0.700
T3C0.762
T4C0.800
T5C1.000
%
G90
G05
T1
X128528Y-121354
X133350Y-108262
X138064Y-94504
X145664Y-96876
X156903Y-125443
X158326Y-106461
X165713Y-101833
X166970Y-99025
X169283Y-113169
X172609Y-104663
X172659Y-92537
X172918Y-96965
X173259Y-113161
X175684Y-88951
X177054Y-96376
X179191Y-129872
X179939Y-103915
X180299Y-105330
X183884Y-107865
X185498Y-106680
X186230Y-105645
X186853Y-89254
X191499Y-96988
T2
X174625Y-124460
X179705Y-124460
X174625Y-121920
X179705Y-121920
X174625Y-127000
X179705Y-127000
T3
X86995Y-90170
X86995Y-115570
X89535Y-90170
X89535Y-115570
X92075Y-90170
X92075Y-115570
X94615Y-90170
X94615Y-115570
X97155Y-90170
X97155Y-115570
X99695Y-90170
X99695Y-115570
X102235Y-90170
X102235Y-115570
X104775Y-90170
X104775Y-115570
X107315Y-90170
X107315Y-115570
X109855Y-90170
X109855Y-115570
X112395Y-90170
X112395Y-115570
X114935Y-90170
X114935Y-115570
X117475Y-90170
X117475Y-115570
X120015Y-90170
X120015Y-115570
X122555Y-90170
X122555Y-115570
X125095Y-90170
X125095Y-115570
X127635Y-90170
X127635Y-115570
X130175Y-90170
X130175Y-115570
X132715Y-90170
X132715Y-115570
X135255Y-90170
X135255Y-115570
X137795Y-90170
X137795Y-115570
X140335Y-90170
X140335Y-115570
X142875Y-90170
X142875Y-115570
X145415Y-90170
X145415Y-115570
X147955Y-90170
X147955Y-115570
X150495Y-90170
X150495Y-115570
X153035Y-90170
X153035Y-115570
X155575Y-90170
X155575Y-115570
X158115Y-90170
X158115Y-115570
X160655Y-90170
X160655Y-115570
X163195Y-90170
X163195Y-115570
X165735Y-90170
X165735Y-115570
T4
X182245Y-130175
X189745Y-130175
X130175Y-131445
X130175Y-139065
X132715Y-131445
X132715Y-139065
X135255Y-131445
X135255Y-139065
X137795Y-131445
X137795Y-139065
X140335Y-131445
X140335Y-139065
X142875Y-131445
X142875Y-139065
X145415Y-131445
X145415Y-139065
X147955Y-131445
X147955Y-139065
X192405Y-123825
X199905Y-123825
X172205Y-139065
X179705Y-139065
X192405Y-127000
X199905Y-127000
X172212Y-132715
X179712Y-132715
X86995Y-131445
X86995Y-139065
X89535Y-131445
X89535Y-139065
X92075Y-131445
X92075Y-139065
X94615Y-131445
X94615Y-139065
X97155Y-131445
X97155Y-139065
X99695Y-131445
X99695Y-139065
X102235Y-131445
X102235Y-139065
X182245Y-127000
X189745Y-127000
X153035Y-119380
X153035Y-127000
X155575Y-119380
X155575Y-127000
X158115Y-119380
X158115Y-127000
X160655Y-119380
X160655Y-127000
X163195Y-119380
X163195Y-127000
X165735Y-119380
X165735Y-127000
X168275Y-119380
X168275Y-127000
X86995Y-119380
X86995Y-127000
X89535Y-119380
X89535Y-127000
X92075Y-119380
X92075Y-127000
X94615Y-119380
X94615Y-127000
X97155Y-119380
X97155Y-127000
X99695Y-119380
X99695Y-127000
X102235Y-119380
X102235Y-127000
X104775Y-119380
X104775Y-127000
X172212Y-135890
X179712Y-135890
X109855Y-119380
X109855Y-127000
X112395Y-119380
X112395Y-127000
X114935Y-119380
X114935Y-127000
X117475Y-119380
X117475Y-127000
X120015Y-119380
X120015Y-127000
X122555Y-119380
X122555Y-127000
X125095Y-119380
X125095Y-127000
X182245Y-133350
X189745Y-133350
X192405Y-130175
X199905Y-130175
X107315Y-131445
X107315Y-139065
X109855Y-131445
X109855Y-139065
X112395Y-131445
X112395Y-139065
X114935Y-131445
X114935Y-139065
X117475Y-131445
X117475Y-139065
X120015Y-131445
X120015Y-139065
X122555Y-131445
X122555Y-139065
X125095Y-131445
X125095Y-139065
X130175Y-119380
X130175Y-127000
X132715Y-119380
X132715Y-127000
X135255Y-119380
X135255Y-127000
X137795Y-119380
X137795Y-127000
X140335Y-119380
X140335Y-127000
X142875Y-119380
X142875Y-127000
X145415Y-119380
X145415Y-127000
X175260Y-92710
X175260Y-95250
X175260Y-97790
X175260Y-100330
X175260Y-102870
X175260Y-105410
X175260Y-107950
X175260Y-110490
X175260Y-113030
X177800Y-90170
X177800Y-92710
X177800Y-95250
X177800Y-97790
X177800Y-100330
X177800Y-102870
X177800Y-105410
X177800Y-107950
X177800Y-110490
X177800Y-113030
X177800Y-115570
X180340Y-90170
X180340Y-92710
X180340Y-113030
X180340Y-115570
X182880Y-90170
X182880Y-92710
X182880Y-113030
X182880Y-115570
X185420Y-90170
X185420Y-92710
X185420Y-113030
X185420Y-115570
X187960Y-90170
X187960Y-92710
X187960Y-113030
X187960Y-115570
X190500Y-90170
X190500Y-92710
X190500Y-113030
X190500Y-115570
X193040Y-90170
X193040Y-92710
X193040Y-113030
X193040Y-115570
X195580Y-90170
X195580Y-92710
X195580Y-113030
X195580Y-115570
X198120Y-90170
X198120Y-92710
X198120Y-95250
X198120Y-97790
X198120Y-100330
X198120Y-102870
X198120Y-105410
X198120Y-107950
X198120Y-110490
X198120Y-113030
X198120Y-115570
X200660Y-92710
X200660Y-95250
X200660Y-97790
X200660Y-100330
X200660Y-102870
X200660Y-105410
X200660Y-107950
X200660Y-110490
X200660Y-113030
X182245Y-123825
X189745Y-123825
X153035Y-131445
X153035Y-139065
X155575Y-131445
X155575Y-139065
X158115Y-131445
X158115Y-139065
X160655Y-131445
X160655Y-139065
X163195Y-131445
X163195Y-139065
X165735Y-131445
X165735Y-139065
X168275Y-131445
X168275Y-139065
T5
X203200Y-123825
X203200Y-126365
X203200Y-128905
T0
M30
