G04 #@! TF.GenerationSoftware,KiCad,Pcbnew,(5.1.2-1)-1*
G04 #@! TF.CreationDate,2019-06-08T02:48:01+01:00*
G04 #@! TF.ProjectId,A500 14Mhz Accelerator,41353030-2031-4344-9d68-7a2041636365,rev?*
G04 #@! TF.SameCoordinates,Original*
G04 #@! TF.FileFunction,Legend,Top*
G04 #@! TF.FilePolarity,Positive*
%FSLAX46Y46*%
G04 Gerber Fmt 4.6, Leading zero omitted, Abs format (unit mm)*
G04 Created by KiCad (PCBNEW (5.1.2-1)-1) date 2019-06-08 02:48:01*
%MOMM*%
%LPD*%
G04 APERTURE LIST*
%ADD10C,0.150000*%
%ADD11C,0.120000*%
G04 APERTURE END LIST*
D10*
X202750729Y-103322380D02*
X202179300Y-103322380D01*
X202465014Y-103322380D02*
X202590014Y-102322380D01*
X202476919Y-102465238D01*
X202369776Y-102560476D01*
X202268586Y-102608095D01*
X182507380Y-136489270D02*
X182507380Y-137060699D01*
X182507380Y-136774985D02*
X181507380Y-136649985D01*
X181650238Y-136763080D01*
X181745476Y-136870223D01*
X181793095Y-136971413D01*
X181840714Y-135548794D02*
X182507380Y-135632127D01*
X181459761Y-135739270D02*
X182174047Y-136066651D01*
X182174047Y-135447604D01*
X182507380Y-135108318D02*
X181507380Y-134983318D01*
X182221666Y-134739270D01*
X181507380Y-134316651D01*
X182507380Y-134441651D01*
X182507380Y-133965461D02*
X181507380Y-133840461D01*
X182507380Y-133536889D02*
X181983571Y-133471413D01*
X181888333Y-133507127D01*
X181840714Y-133596413D01*
X181840714Y-133739270D01*
X181888333Y-133840461D01*
X181935952Y-133894032D01*
X181840714Y-133072604D02*
X181840714Y-132548794D01*
X182507380Y-133155937D01*
X182507380Y-132632127D01*
X182221666Y-131501175D02*
X182221666Y-131024985D01*
X182507380Y-131632127D02*
X181507380Y-131173794D01*
X182507380Y-130965461D01*
X182459761Y-130197604D02*
X182507380Y-130298794D01*
X182507380Y-130489270D01*
X182459761Y-130578556D01*
X182412142Y-130620223D01*
X182316904Y-130655937D01*
X182031190Y-130620223D01*
X181935952Y-130560699D01*
X181888333Y-130507127D01*
X181840714Y-130405937D01*
X181840714Y-130215461D01*
X181888333Y-130126175D01*
X182459761Y-129340461D02*
X182507380Y-129441651D01*
X182507380Y-129632127D01*
X182459761Y-129721413D01*
X182412142Y-129763080D01*
X182316904Y-129798794D01*
X182031190Y-129763080D01*
X181935952Y-129703556D01*
X181888333Y-129649985D01*
X181840714Y-129548794D01*
X181840714Y-129358318D01*
X181888333Y-129269032D01*
X182459761Y-128530937D02*
X182507380Y-128632127D01*
X182507380Y-128822604D01*
X182459761Y-128911889D01*
X182364523Y-128947604D01*
X181983571Y-128899985D01*
X181888333Y-128840461D01*
X181840714Y-128739270D01*
X181840714Y-128548794D01*
X181888333Y-128459508D01*
X181983571Y-128423794D01*
X182078809Y-128435699D01*
X182174047Y-128923794D01*
X182507380Y-127917842D02*
X182459761Y-128007127D01*
X182364523Y-128042842D01*
X181507380Y-127935699D01*
X182459761Y-127149985D02*
X182507380Y-127251175D01*
X182507380Y-127441651D01*
X182459761Y-127530937D01*
X182364523Y-127566651D01*
X181983571Y-127519032D01*
X181888333Y-127459508D01*
X181840714Y-127358318D01*
X181840714Y-127167842D01*
X181888333Y-127078556D01*
X181983571Y-127042842D01*
X182078809Y-127054747D01*
X182174047Y-127542842D01*
X182507380Y-126679747D02*
X181840714Y-126596413D01*
X182031190Y-126620223D02*
X181935952Y-126560699D01*
X181888333Y-126507127D01*
X181840714Y-126405937D01*
X181840714Y-126310699D01*
X182507380Y-125632127D02*
X181983571Y-125566651D01*
X181888333Y-125602366D01*
X181840714Y-125691651D01*
X181840714Y-125882127D01*
X181888333Y-125983318D01*
X182459761Y-125626175D02*
X182507380Y-125727366D01*
X182507380Y-125965461D01*
X182459761Y-126054747D01*
X182364523Y-126090461D01*
X182269285Y-126078556D01*
X182174047Y-126019032D01*
X182126428Y-125917842D01*
X182126428Y-125679747D01*
X182078809Y-125578556D01*
X181840714Y-125215461D02*
X181840714Y-124834508D01*
X181507380Y-125030937D02*
X182364523Y-125138080D01*
X182459761Y-125102366D01*
X182507380Y-125013080D01*
X182507380Y-124917842D01*
X182507380Y-124441651D02*
X182459761Y-124530937D01*
X182412142Y-124572604D01*
X182316904Y-124608318D01*
X182031190Y-124572604D01*
X181935952Y-124513080D01*
X181888333Y-124459508D01*
X181840714Y-124358318D01*
X181840714Y-124215461D01*
X181888333Y-124126175D01*
X181935952Y-124084508D01*
X182031190Y-124048794D01*
X182316904Y-124084508D01*
X182412142Y-124144032D01*
X182459761Y-124197604D01*
X182507380Y-124298794D01*
X182507380Y-124441651D01*
X182507380Y-123679747D02*
X181840714Y-123596413D01*
X182031190Y-123620223D02*
X181935952Y-123560699D01*
X181888333Y-123507127D01*
X181840714Y-123405937D01*
X181840714Y-123310699D01*
X184538333Y-137346413D02*
X184490714Y-137388080D01*
X184347857Y-137465461D01*
X184252619Y-137501175D01*
X184109761Y-137530937D01*
X183871666Y-137548794D01*
X183681190Y-137524985D01*
X183443095Y-137447604D01*
X183300238Y-137382127D01*
X183205000Y-137322604D01*
X183062142Y-137209508D01*
X183014523Y-137155937D01*
X184062142Y-136334508D02*
X184109761Y-136388080D01*
X184157380Y-136536889D01*
X184157380Y-136632127D01*
X184109761Y-136769032D01*
X184014523Y-136852366D01*
X183919285Y-136888080D01*
X183728809Y-136911889D01*
X183585952Y-136894032D01*
X183395476Y-136822604D01*
X183300238Y-136763080D01*
X183205000Y-136655937D01*
X183157380Y-136507127D01*
X183157380Y-136411889D01*
X183205000Y-136274985D01*
X183252619Y-136233318D01*
X184538333Y-136060699D02*
X184490714Y-136007127D01*
X184347857Y-135894032D01*
X184252619Y-135834508D01*
X184109761Y-135769032D01*
X183871666Y-135691651D01*
X183681190Y-135667842D01*
X183443095Y-135685699D01*
X183300238Y-135715461D01*
X183205000Y-135751175D01*
X183062142Y-135828556D01*
X183014523Y-135870223D01*
X184157380Y-133965461D02*
X184157380Y-134536889D01*
X184157380Y-134251175D02*
X183157380Y-134126175D01*
X183300238Y-134239270D01*
X183395476Y-134346413D01*
X183443095Y-134447604D01*
X184157380Y-133489270D02*
X184157380Y-133298794D01*
X184109761Y-133197604D01*
X184062142Y-133144032D01*
X183919285Y-133030937D01*
X183728809Y-132959508D01*
X183347857Y-132911889D01*
X183252619Y-132947604D01*
X183205000Y-132989270D01*
X183157380Y-133078556D01*
X183157380Y-133269032D01*
X183205000Y-133370223D01*
X183252619Y-133423794D01*
X183347857Y-133483318D01*
X183585952Y-133513080D01*
X183681190Y-133477366D01*
X183728809Y-133435699D01*
X183776428Y-133346413D01*
X183776428Y-133155937D01*
X183728809Y-133054747D01*
X183681190Y-133001175D01*
X183585952Y-132941651D01*
X184157380Y-132536889D02*
X184157380Y-132346413D01*
X184109761Y-132245223D01*
X184062142Y-132191651D01*
X183919285Y-132078556D01*
X183728809Y-132007127D01*
X183347857Y-131959508D01*
X183252619Y-131995223D01*
X183205000Y-132036889D01*
X183157380Y-132126175D01*
X183157380Y-132316651D01*
X183205000Y-132417842D01*
X183252619Y-132471413D01*
X183347857Y-132530937D01*
X183585952Y-132560699D01*
X183681190Y-132524985D01*
X183728809Y-132483318D01*
X183776428Y-132394032D01*
X183776428Y-132203556D01*
X183728809Y-132102366D01*
X183681190Y-132048794D01*
X183585952Y-131989270D01*
X183252619Y-131566651D02*
X183205000Y-131513080D01*
X183157380Y-131411889D01*
X183157380Y-131173794D01*
X183205000Y-131084508D01*
X183252619Y-131042842D01*
X183347857Y-131007127D01*
X183443095Y-131019032D01*
X183585952Y-131084508D01*
X184157380Y-131727366D01*
X184157380Y-131108318D01*
X184157380Y-129441651D02*
X184157380Y-129917842D01*
X183157380Y-129792842D01*
X184157380Y-129108318D02*
X183490714Y-129024985D01*
X183157380Y-128983318D02*
X183205000Y-129036889D01*
X183252619Y-128995223D01*
X183205000Y-128941651D01*
X183157380Y-128983318D01*
X183252619Y-128995223D01*
X183490714Y-128644032D02*
X184157380Y-128489270D01*
X183490714Y-128167842D01*
X184157380Y-127870223D02*
X183490714Y-127786889D01*
X183157380Y-127745223D02*
X183205000Y-127798794D01*
X183252619Y-127757127D01*
X183205000Y-127703556D01*
X183157380Y-127745223D01*
X183252619Y-127757127D01*
X184157380Y-127251175D02*
X184109761Y-127340461D01*
X184062142Y-127382127D01*
X183966904Y-127417842D01*
X183681190Y-127382127D01*
X183585952Y-127322604D01*
X183538333Y-127269032D01*
X183490714Y-127167842D01*
X183490714Y-127024985D01*
X183538333Y-126935699D01*
X183585952Y-126894032D01*
X183681190Y-126858318D01*
X183966904Y-126894032D01*
X184062142Y-126953556D01*
X184109761Y-127007127D01*
X184157380Y-127108318D01*
X184157380Y-127251175D01*
X184157380Y-125727366D02*
X183157380Y-125602366D01*
X183157380Y-125221413D01*
X183205000Y-125132127D01*
X183252619Y-125090461D01*
X183347857Y-125054747D01*
X183490714Y-125072604D01*
X183585952Y-125132127D01*
X183633571Y-125185699D01*
X183681190Y-125286889D01*
X183681190Y-125667842D01*
X184157380Y-124584508D02*
X184109761Y-124673794D01*
X184014523Y-124709508D01*
X183157380Y-124602366D01*
X184157380Y-124060699D02*
X184109761Y-124149985D01*
X184062142Y-124191651D01*
X183966904Y-124227366D01*
X183681190Y-124191651D01*
X183585952Y-124132127D01*
X183538333Y-124078556D01*
X183490714Y-123977366D01*
X183490714Y-123834508D01*
X183538333Y-123745223D01*
X183585952Y-123703556D01*
X183681190Y-123667842D01*
X183966904Y-123703556D01*
X184062142Y-123763080D01*
X184109761Y-123816651D01*
X184157380Y-123917842D01*
X184157380Y-124060699D01*
X184109761Y-123340461D02*
X184157380Y-123251175D01*
X184157380Y-123060699D01*
X184109761Y-122959508D01*
X184014523Y-122899985D01*
X183966904Y-122894032D01*
X183871666Y-122929747D01*
X183824047Y-123019032D01*
X183824047Y-123161889D01*
X183776428Y-123251175D01*
X183681190Y-123286889D01*
X183633571Y-123280937D01*
X183538333Y-123221413D01*
X183490714Y-123120223D01*
X183490714Y-122977366D01*
X183538333Y-122888080D01*
X119963586Y-88082380D02*
X120088586Y-87082380D01*
X120029062Y-87558571D02*
X120600491Y-87558571D01*
X120535014Y-88082380D02*
X120660014Y-87082380D01*
X121398110Y-88034761D02*
X121296919Y-88082380D01*
X121106443Y-88082380D01*
X121017157Y-88034761D01*
X120981443Y-87939523D01*
X121029062Y-87558571D01*
X121088586Y-87463333D01*
X121189776Y-87415714D01*
X121380252Y-87415714D01*
X121469538Y-87463333D01*
X121505252Y-87558571D01*
X121493348Y-87653809D01*
X121005252Y-87749047D01*
X122011205Y-88082380D02*
X121921919Y-88034761D01*
X121886205Y-87939523D01*
X121993348Y-87082380D01*
X122535014Y-88082380D02*
X122445729Y-88034761D01*
X122410014Y-87939523D01*
X122517157Y-87082380D01*
X123058824Y-88082380D02*
X122969538Y-88034761D01*
X122927872Y-87987142D01*
X122892157Y-87891904D01*
X122927872Y-87606190D01*
X122987395Y-87510952D01*
X123040967Y-87463333D01*
X123142157Y-87415714D01*
X123285014Y-87415714D01*
X123374300Y-87463333D01*
X123415967Y-87510952D01*
X123451681Y-87606190D01*
X123415967Y-87891904D01*
X123356443Y-87987142D01*
X123302872Y-88034761D01*
X123201681Y-88082380D01*
X123058824Y-88082380D01*
X125165967Y-87987142D02*
X125112395Y-88034761D01*
X124963586Y-88082380D01*
X124868348Y-88082380D01*
X124731443Y-88034761D01*
X124648110Y-87939523D01*
X124612395Y-87844285D01*
X124588586Y-87653809D01*
X124606443Y-87510952D01*
X124677872Y-87320476D01*
X124737395Y-87225238D01*
X124844538Y-87130000D01*
X124993348Y-87082380D01*
X125088586Y-87082380D01*
X125225491Y-87130000D01*
X125267157Y-87177619D01*
X126011205Y-88082380D02*
X126076681Y-87558571D01*
X126040967Y-87463333D01*
X125951681Y-87415714D01*
X125761205Y-87415714D01*
X125660014Y-87463333D01*
X126017157Y-88034761D02*
X125915967Y-88082380D01*
X125677872Y-88082380D01*
X125588586Y-88034761D01*
X125552872Y-87939523D01*
X125564776Y-87844285D01*
X125624300Y-87749047D01*
X125725491Y-87701428D01*
X125963586Y-87701428D01*
X126064776Y-87653809D01*
X126475491Y-87415714D02*
X126630252Y-88082380D01*
X126951681Y-87415714D01*
X127636205Y-88034761D02*
X127535014Y-88082380D01*
X127344538Y-88082380D01*
X127255252Y-88034761D01*
X127219538Y-87939523D01*
X127267157Y-87558571D01*
X127326681Y-87463333D01*
X127427872Y-87415714D01*
X127618348Y-87415714D01*
X127707633Y-87463333D01*
X127743348Y-87558571D01*
X127731443Y-87653809D01*
X127243348Y-87749047D01*
X128868348Y-88082380D02*
X128993348Y-87082380D01*
X129231443Y-87082380D01*
X129368348Y-87130000D01*
X129451681Y-87225238D01*
X129487395Y-87320476D01*
X129511205Y-87510952D01*
X129493348Y-87653809D01*
X129421919Y-87844285D01*
X129362395Y-87939523D01*
X129255252Y-88034761D01*
X129106443Y-88082380D01*
X128868348Y-88082380D01*
X129856443Y-87415714D02*
X129963586Y-88082380D01*
X130213586Y-87606190D01*
X130344538Y-88082380D01*
X130618348Y-87415714D01*
X131302872Y-88034761D02*
X131201681Y-88082380D01*
X131011205Y-88082380D01*
X130921919Y-88034761D01*
X130886205Y-87939523D01*
X130933824Y-87558571D01*
X130993348Y-87463333D01*
X131094538Y-87415714D01*
X131285014Y-87415714D01*
X131374300Y-87463333D01*
X131410014Y-87558571D01*
X131398110Y-87653809D01*
X130910014Y-87749047D01*
X131915967Y-88082380D02*
X131826681Y-88034761D01*
X131790967Y-87939523D01*
X131898110Y-87082380D01*
X132439776Y-88082380D02*
X132350491Y-88034761D01*
X132314776Y-87939523D01*
X132421919Y-87082380D01*
X133207633Y-88034761D02*
X133106443Y-88082380D01*
X132915967Y-88082380D01*
X132826681Y-88034761D01*
X132790967Y-87939523D01*
X132838586Y-87558571D01*
X132898110Y-87463333D01*
X132999300Y-87415714D01*
X133189776Y-87415714D01*
X133279062Y-87463333D01*
X133314776Y-87558571D01*
X133302872Y-87653809D01*
X132814776Y-87749047D01*
X133677872Y-88082380D02*
X133761205Y-87415714D01*
X133737395Y-87606190D02*
X133796919Y-87510952D01*
X133850491Y-87463333D01*
X133951681Y-87415714D01*
X134046919Y-87415714D01*
X134255252Y-88034761D02*
X134344538Y-88082380D01*
X134535014Y-88082380D01*
X134636205Y-88034761D01*
X134695729Y-87939523D01*
X134701681Y-87891904D01*
X134665967Y-87796666D01*
X134576681Y-87749047D01*
X134433824Y-87749047D01*
X134344538Y-87701428D01*
X134308824Y-87606190D01*
X134314776Y-87558571D01*
X134374300Y-87463333D01*
X134475491Y-87415714D01*
X134618348Y-87415714D01*
X134707633Y-87463333D01*
X135118348Y-87987142D02*
X135160014Y-88034761D01*
X135106443Y-88082380D01*
X135064776Y-88034761D01*
X135118348Y-87987142D01*
X135106443Y-88082380D01*
X135154062Y-87701428D02*
X135177872Y-87130000D01*
X135231443Y-87082380D01*
X135273110Y-87130000D01*
X135154062Y-87701428D01*
X135231443Y-87082380D01*
X166378333Y-135977380D02*
X167045000Y-135977380D01*
X166616428Y-136977380D01*
X167854523Y-136310714D02*
X167854523Y-136977380D01*
X167616428Y-135929761D02*
X167378333Y-136644047D01*
X167997380Y-136644047D01*
X168378333Y-136977380D02*
X168378333Y-135977380D01*
X168378333Y-136453571D02*
X168949761Y-136453571D01*
X168949761Y-136977380D02*
X168949761Y-135977380D01*
X169997380Y-136882142D02*
X169949761Y-136929761D01*
X169806904Y-136977380D01*
X169711666Y-136977380D01*
X169568809Y-136929761D01*
X169473571Y-136834523D01*
X169425952Y-136739285D01*
X169378333Y-136548809D01*
X169378333Y-136405952D01*
X169425952Y-136215476D01*
X169473571Y-136120238D01*
X169568809Y-136025000D01*
X169711666Y-135977380D01*
X169806904Y-135977380D01*
X169949761Y-136025000D01*
X169997380Y-136072619D01*
X170283095Y-135977380D02*
X170854523Y-135977380D01*
X170568809Y-136977380D02*
X170568809Y-135977380D01*
X171092619Y-135977380D02*
X171759285Y-135977380D01*
X171330714Y-136977380D01*
X172568809Y-136310714D02*
X172568809Y-136977380D01*
X172330714Y-135929761D02*
X172092619Y-136644047D01*
X172711666Y-136644047D01*
X142432157Y-135977380D02*
X143098824Y-135977380D01*
X142545252Y-136977380D01*
X143866681Y-136310714D02*
X143783348Y-136977380D01*
X143676205Y-135929761D02*
X143348824Y-136644047D01*
X143967872Y-136644047D01*
X144307157Y-136977380D02*
X144432157Y-135977380D01*
X144372633Y-136453571D02*
X144944062Y-136453571D01*
X144878586Y-136977380D02*
X145003586Y-135977380D01*
X145938110Y-136882142D02*
X145884538Y-136929761D01*
X145735729Y-136977380D01*
X145640491Y-136977380D01*
X145503586Y-136929761D01*
X145420252Y-136834523D01*
X145384538Y-136739285D01*
X145360729Y-136548809D01*
X145378586Y-136405952D01*
X145450014Y-136215476D01*
X145509538Y-136120238D01*
X145616681Y-136025000D01*
X145765491Y-135977380D01*
X145860729Y-135977380D01*
X145997633Y-136025000D01*
X146039300Y-136072619D01*
X146336919Y-135977380D02*
X146908348Y-135977380D01*
X146497633Y-136977380D02*
X146622633Y-135977380D01*
X147640491Y-136977380D02*
X147069062Y-136977380D01*
X147354776Y-136977380D02*
X147479776Y-135977380D01*
X147366681Y-136120238D01*
X147259538Y-136215476D01*
X147158348Y-136263095D01*
X148670252Y-135977380D02*
X148194062Y-135977380D01*
X148086919Y-136453571D01*
X148140491Y-136405952D01*
X148241681Y-136358333D01*
X148479776Y-136358333D01*
X148569062Y-136405952D01*
X148610729Y-136453571D01*
X148646443Y-136548809D01*
X148616681Y-136786904D01*
X148557157Y-136882142D01*
X148503586Y-136929761D01*
X148402395Y-136977380D01*
X148164300Y-136977380D01*
X148075014Y-136929761D01*
X148033348Y-136882142D01*
X149051205Y-135977380D02*
X149717872Y-135977380D01*
X149164300Y-136977380D01*
X117667157Y-135977380D02*
X118333824Y-135977380D01*
X117780252Y-136977380D01*
X119101681Y-136310714D02*
X119018348Y-136977380D01*
X118911205Y-135929761D02*
X118583824Y-136644047D01*
X119202872Y-136644047D01*
X119542157Y-136977380D02*
X119667157Y-135977380D01*
X119607633Y-136453571D02*
X120179062Y-136453571D01*
X120113586Y-136977380D02*
X120238586Y-135977380D01*
X121173110Y-136882142D02*
X121119538Y-136929761D01*
X120970729Y-136977380D01*
X120875491Y-136977380D01*
X120738586Y-136929761D01*
X120655252Y-136834523D01*
X120619538Y-136739285D01*
X120595729Y-136548809D01*
X120613586Y-136405952D01*
X120685014Y-136215476D01*
X120744538Y-136120238D01*
X120851681Y-136025000D01*
X121000491Y-135977380D01*
X121095729Y-135977380D01*
X121232633Y-136025000D01*
X121274300Y-136072619D01*
X121571919Y-135977380D02*
X122143348Y-135977380D01*
X121732633Y-136977380D02*
X121857633Y-135977380D01*
X122875491Y-136977380D02*
X122304062Y-136977380D01*
X122589776Y-136977380D02*
X122714776Y-135977380D01*
X122601681Y-136120238D01*
X122494538Y-136215476D01*
X122393348Y-136263095D01*
X123905252Y-135977380D02*
X123429062Y-135977380D01*
X123321919Y-136453571D01*
X123375491Y-136405952D01*
X123476681Y-136358333D01*
X123714776Y-136358333D01*
X123804062Y-136405952D01*
X123845729Y-136453571D01*
X123881443Y-136548809D01*
X123851681Y-136786904D01*
X123792157Y-136882142D01*
X123738586Y-136929761D01*
X123637395Y-136977380D01*
X123399300Y-136977380D01*
X123310014Y-136929761D01*
X123268348Y-136882142D01*
X124286205Y-135977380D02*
X124952872Y-135977380D01*
X124399300Y-136977380D01*
X94648348Y-135977380D02*
X95315014Y-135977380D01*
X94761443Y-136977380D01*
X96082872Y-136310714D02*
X95999538Y-136977380D01*
X95892395Y-135929761D02*
X95565014Y-136644047D01*
X96184062Y-136644047D01*
X96523348Y-136977380D02*
X96648348Y-135977380D01*
X96588824Y-136453571D02*
X97160252Y-136453571D01*
X97094776Y-136977380D02*
X97219776Y-135977380D01*
X98154300Y-136882142D02*
X98100729Y-136929761D01*
X97951919Y-136977380D01*
X97856681Y-136977380D01*
X97719776Y-136929761D01*
X97636443Y-136834523D01*
X97600729Y-136739285D01*
X97576919Y-136548809D01*
X97594776Y-136405952D01*
X97666205Y-136215476D01*
X97725729Y-136120238D01*
X97832872Y-136025000D01*
X97981681Y-135977380D01*
X98076919Y-135977380D01*
X98213824Y-136025000D01*
X98255491Y-136072619D01*
X98553110Y-135977380D02*
X99124538Y-135977380D01*
X98713824Y-136977380D02*
X98838824Y-135977380D01*
X99648348Y-135977380D02*
X99743586Y-135977380D01*
X99832872Y-136025000D01*
X99874538Y-136072619D01*
X99910252Y-136167857D01*
X99934062Y-136358333D01*
X99904300Y-136596428D01*
X99832872Y-136786904D01*
X99773348Y-136882142D01*
X99719776Y-136929761D01*
X99618586Y-136977380D01*
X99523348Y-136977380D01*
X99434062Y-136929761D01*
X99392395Y-136882142D01*
X99356681Y-136786904D01*
X99332872Y-136596428D01*
X99362633Y-136358333D01*
X99434062Y-136167857D01*
X99493586Y-136072619D01*
X99547157Y-136025000D01*
X99648348Y-135977380D01*
X100797157Y-136310714D02*
X100713824Y-136977380D01*
X100606681Y-135929761D02*
X100279300Y-136644047D01*
X100898348Y-136644047D01*
X95442157Y-123912380D02*
X96108824Y-123912380D01*
X95555252Y-124912380D01*
X96876681Y-124245714D02*
X96793348Y-124912380D01*
X96686205Y-123864761D02*
X96358824Y-124579047D01*
X96977872Y-124579047D01*
X97317157Y-124912380D02*
X97442157Y-123912380D01*
X97382633Y-124388571D02*
X97954062Y-124388571D01*
X97888586Y-124912380D02*
X98013586Y-123912380D01*
X98948110Y-124817142D02*
X98894538Y-124864761D01*
X98745729Y-124912380D01*
X98650491Y-124912380D01*
X98513586Y-124864761D01*
X98430252Y-124769523D01*
X98394538Y-124674285D01*
X98370729Y-124483809D01*
X98388586Y-124340952D01*
X98460014Y-124150476D01*
X98519538Y-124055238D01*
X98626681Y-123960000D01*
X98775491Y-123912380D01*
X98870729Y-123912380D01*
X99007633Y-123960000D01*
X99049300Y-124007619D01*
X99346919Y-123912380D02*
X99918348Y-123912380D01*
X99507633Y-124912380D02*
X99632633Y-123912380D01*
X100650491Y-124912380D02*
X100079062Y-124912380D01*
X100364776Y-124912380D02*
X100489776Y-123912380D01*
X100376681Y-124055238D01*
X100269538Y-124150476D01*
X100168348Y-124198095D01*
X101602872Y-124912380D02*
X101031443Y-124912380D01*
X101317157Y-124912380D02*
X101442157Y-123912380D01*
X101329062Y-124055238D01*
X101221919Y-124150476D01*
X101120729Y-124198095D01*
X102096919Y-124007619D02*
X102150491Y-123960000D01*
X102251681Y-123912380D01*
X102489776Y-123912380D01*
X102579062Y-123960000D01*
X102620729Y-124007619D01*
X102656443Y-124102857D01*
X102644538Y-124198095D01*
X102579062Y-124340952D01*
X101936205Y-124912380D01*
X102555252Y-124912380D01*
X119413348Y-123912380D02*
X120080014Y-123912380D01*
X119526443Y-124912380D01*
X120847872Y-124245714D02*
X120764538Y-124912380D01*
X120657395Y-123864761D02*
X120330014Y-124579047D01*
X120949062Y-124579047D01*
X121288348Y-124912380D02*
X121413348Y-123912380D01*
X121353824Y-124388571D02*
X121925252Y-124388571D01*
X121859776Y-124912380D02*
X121984776Y-123912380D01*
X122919300Y-124817142D02*
X122865729Y-124864761D01*
X122716919Y-124912380D01*
X122621681Y-124912380D01*
X122484776Y-124864761D01*
X122401443Y-124769523D01*
X122365729Y-124674285D01*
X122341919Y-124483809D01*
X122359776Y-124340952D01*
X122431205Y-124150476D01*
X122490729Y-124055238D01*
X122597872Y-123960000D01*
X122746681Y-123912380D01*
X122841919Y-123912380D01*
X122978824Y-123960000D01*
X123020491Y-124007619D01*
X123318110Y-123912380D02*
X123889538Y-123912380D01*
X123478824Y-124912380D02*
X123603824Y-123912380D01*
X124163348Y-124007619D02*
X124216919Y-123960000D01*
X124318110Y-123912380D01*
X124556205Y-123912380D01*
X124645491Y-123960000D01*
X124687157Y-124007619D01*
X124722872Y-124102857D01*
X124710967Y-124198095D01*
X124645491Y-124340952D01*
X124002633Y-124912380D01*
X124621681Y-124912380D01*
X125080014Y-123912380D02*
X125746681Y-123912380D01*
X125193110Y-124912380D01*
X141638348Y-123912380D02*
X142305014Y-123912380D01*
X141751443Y-124912380D01*
X143072872Y-124245714D02*
X142989538Y-124912380D01*
X142882395Y-123864761D02*
X142555014Y-124579047D01*
X143174062Y-124579047D01*
X143513348Y-124912380D02*
X143638348Y-123912380D01*
X143578824Y-124388571D02*
X144150252Y-124388571D01*
X144084776Y-124912380D02*
X144209776Y-123912380D01*
X145144300Y-124817142D02*
X145090729Y-124864761D01*
X144941919Y-124912380D01*
X144846681Y-124912380D01*
X144709776Y-124864761D01*
X144626443Y-124769523D01*
X144590729Y-124674285D01*
X144566919Y-124483809D01*
X144584776Y-124340952D01*
X144656205Y-124150476D01*
X144715729Y-124055238D01*
X144822872Y-123960000D01*
X144971681Y-123912380D01*
X145066919Y-123912380D01*
X145203824Y-123960000D01*
X145245491Y-124007619D01*
X145543110Y-123912380D02*
X146114538Y-123912380D01*
X145703824Y-124912380D02*
X145828824Y-123912380D01*
X146352633Y-123912380D02*
X147019300Y-123912380D01*
X146465729Y-124912380D01*
X147787157Y-124245714D02*
X147703824Y-124912380D01*
X147596681Y-123864761D02*
X147269300Y-124579047D01*
X147888348Y-124579047D01*
X163863348Y-123912380D02*
X164530014Y-123912380D01*
X163976443Y-124912380D01*
X165297872Y-124245714D02*
X165214538Y-124912380D01*
X165107395Y-123864761D02*
X164780014Y-124579047D01*
X165399062Y-124579047D01*
X165738348Y-124912380D02*
X165863348Y-123912380D01*
X165803824Y-124388571D02*
X166375252Y-124388571D01*
X166309776Y-124912380D02*
X166434776Y-123912380D01*
X167369300Y-124817142D02*
X167315729Y-124864761D01*
X167166919Y-124912380D01*
X167071681Y-124912380D01*
X166934776Y-124864761D01*
X166851443Y-124769523D01*
X166815729Y-124674285D01*
X166791919Y-124483809D01*
X166809776Y-124340952D01*
X166881205Y-124150476D01*
X166940729Y-124055238D01*
X167047872Y-123960000D01*
X167196681Y-123912380D01*
X167291919Y-123912380D01*
X167428824Y-123960000D01*
X167470491Y-124007619D01*
X167768110Y-123912380D02*
X168339538Y-123912380D01*
X167928824Y-124912380D02*
X168053824Y-123912380D01*
X168762157Y-124340952D02*
X168672872Y-124293333D01*
X168631205Y-124245714D01*
X168595491Y-124150476D01*
X168601443Y-124102857D01*
X168660967Y-124007619D01*
X168714538Y-123960000D01*
X168815729Y-123912380D01*
X169006205Y-123912380D01*
X169095491Y-123960000D01*
X169137157Y-124007619D01*
X169172872Y-124102857D01*
X169166919Y-124150476D01*
X169107395Y-124245714D01*
X169053824Y-124293333D01*
X168952633Y-124340952D01*
X168762157Y-124340952D01*
X168660967Y-124388571D01*
X168607395Y-124436190D01*
X168547872Y-124531428D01*
X168524062Y-124721904D01*
X168559776Y-124817142D01*
X168601443Y-124864761D01*
X168690729Y-124912380D01*
X168881205Y-124912380D01*
X168982395Y-124864761D01*
X169035967Y-124817142D01*
X169095491Y-124721904D01*
X169119300Y-124531428D01*
X169083586Y-124436190D01*
X169041919Y-124388571D01*
X168952633Y-124340952D01*
X170053824Y-123912380D02*
X169863348Y-123912380D01*
X169762157Y-123960000D01*
X169708586Y-124007619D01*
X169595491Y-124150476D01*
X169524062Y-124340952D01*
X169476443Y-124721904D01*
X169512157Y-124817142D01*
X169553824Y-124864761D01*
X169643110Y-124912380D01*
X169833586Y-124912380D01*
X169934776Y-124864761D01*
X169988348Y-124817142D01*
X170047872Y-124721904D01*
X170077633Y-124483809D01*
X170041919Y-124388571D01*
X170000252Y-124340952D01*
X169910967Y-124293333D01*
X169720491Y-124293333D01*
X169619300Y-124340952D01*
X169565729Y-124388571D01*
X169506205Y-124483809D01*
X124320729Y-102497380D02*
X124445729Y-101497380D01*
X124689776Y-102211666D01*
X125112395Y-101497380D01*
X124987395Y-102497380D01*
X126046919Y-102402142D02*
X125993348Y-102449761D01*
X125844538Y-102497380D01*
X125749300Y-102497380D01*
X125612395Y-102449761D01*
X125529062Y-102354523D01*
X125493348Y-102259285D01*
X125469538Y-102068809D01*
X125487395Y-101925952D01*
X125558824Y-101735476D01*
X125618348Y-101640238D01*
X125725491Y-101545000D01*
X125874300Y-101497380D01*
X125969538Y-101497380D01*
X126106443Y-101545000D01*
X126148110Y-101592619D01*
X127017157Y-101497380D02*
X126826681Y-101497380D01*
X126725491Y-101545000D01*
X126671919Y-101592619D01*
X126558824Y-101735476D01*
X126487395Y-101925952D01*
X126439776Y-102306904D01*
X126475491Y-102402142D01*
X126517157Y-102449761D01*
X126606443Y-102497380D01*
X126796919Y-102497380D01*
X126898110Y-102449761D01*
X126951681Y-102402142D01*
X127011205Y-102306904D01*
X127040967Y-102068809D01*
X127005252Y-101973571D01*
X126963586Y-101925952D01*
X126874300Y-101878333D01*
X126683824Y-101878333D01*
X126582633Y-101925952D01*
X126529062Y-101973571D01*
X126469538Y-102068809D01*
X127630252Y-101925952D02*
X127540967Y-101878333D01*
X127499300Y-101830714D01*
X127463586Y-101735476D01*
X127469538Y-101687857D01*
X127529062Y-101592619D01*
X127582633Y-101545000D01*
X127683824Y-101497380D01*
X127874300Y-101497380D01*
X127963586Y-101545000D01*
X128005252Y-101592619D01*
X128040967Y-101687857D01*
X128035014Y-101735476D01*
X127975491Y-101830714D01*
X127921919Y-101878333D01*
X127820729Y-101925952D01*
X127630252Y-101925952D01*
X127529062Y-101973571D01*
X127475491Y-102021190D01*
X127415967Y-102116428D01*
X127392157Y-102306904D01*
X127427872Y-102402142D01*
X127469538Y-102449761D01*
X127558824Y-102497380D01*
X127749300Y-102497380D01*
X127850491Y-102449761D01*
X127904062Y-102402142D01*
X127963586Y-102306904D01*
X127987395Y-102116428D01*
X127951681Y-102021190D01*
X127910014Y-101973571D01*
X127820729Y-101925952D01*
X128683824Y-101497380D02*
X128779062Y-101497380D01*
X128868348Y-101545000D01*
X128910014Y-101592619D01*
X128945729Y-101687857D01*
X128969538Y-101878333D01*
X128939776Y-102116428D01*
X128868348Y-102306904D01*
X128808824Y-102402142D01*
X128755252Y-102449761D01*
X128654062Y-102497380D01*
X128558824Y-102497380D01*
X128469538Y-102449761D01*
X128427872Y-102402142D01*
X128392157Y-102306904D01*
X128368348Y-102116428D01*
X128398110Y-101878333D01*
X128469538Y-101687857D01*
X128529062Y-101592619D01*
X128582633Y-101545000D01*
X128683824Y-101497380D01*
X129636205Y-101497380D02*
X129731443Y-101497380D01*
X129820729Y-101545000D01*
X129862395Y-101592619D01*
X129898110Y-101687857D01*
X129921919Y-101878333D01*
X129892157Y-102116428D01*
X129820729Y-102306904D01*
X129761205Y-102402142D01*
X129707633Y-102449761D01*
X129606443Y-102497380D01*
X129511205Y-102497380D01*
X129421919Y-102449761D01*
X129380252Y-102402142D01*
X129344538Y-102306904D01*
X129320729Y-102116428D01*
X129350491Y-101878333D01*
X129421919Y-101687857D01*
X129481443Y-101592619D01*
X129535014Y-101545000D01*
X129636205Y-101497380D01*
X130588586Y-101497380D02*
X130683824Y-101497380D01*
X130773110Y-101545000D01*
X130814776Y-101592619D01*
X130850491Y-101687857D01*
X130874300Y-101878333D01*
X130844538Y-102116428D01*
X130773110Y-102306904D01*
X130713586Y-102402142D01*
X130660014Y-102449761D01*
X130558824Y-102497380D01*
X130463586Y-102497380D01*
X130374300Y-102449761D01*
X130332633Y-102402142D01*
X130296919Y-102306904D01*
X130273110Y-102116428D01*
X130302872Y-101878333D01*
X130374300Y-101687857D01*
X130433824Y-101592619D01*
X130487395Y-101545000D01*
X130588586Y-101497380D01*
X124481443Y-103623571D02*
X124618348Y-103671190D01*
X124660014Y-103718809D01*
X124695729Y-103814047D01*
X124677872Y-103956904D01*
X124618348Y-104052142D01*
X124564776Y-104099761D01*
X124463586Y-104147380D01*
X124082633Y-104147380D01*
X124207633Y-103147380D01*
X124540967Y-103147380D01*
X124630252Y-103195000D01*
X124671919Y-103242619D01*
X124707633Y-103337857D01*
X124695729Y-103433095D01*
X124636205Y-103528333D01*
X124582633Y-103575952D01*
X124481443Y-103623571D01*
X124148110Y-103623571D01*
X125225491Y-104147380D02*
X125136205Y-104099761D01*
X125094538Y-104052142D01*
X125058824Y-103956904D01*
X125094538Y-103671190D01*
X125154062Y-103575952D01*
X125207633Y-103528333D01*
X125308824Y-103480714D01*
X125451681Y-103480714D01*
X125540967Y-103528333D01*
X125582633Y-103575952D01*
X125618348Y-103671190D01*
X125582633Y-103956904D01*
X125523110Y-104052142D01*
X125469538Y-104099761D01*
X125368348Y-104147380D01*
X125225491Y-104147380D01*
X126415967Y-104147380D02*
X126481443Y-103623571D01*
X126445729Y-103528333D01*
X126356443Y-103480714D01*
X126165967Y-103480714D01*
X126064776Y-103528333D01*
X126421919Y-104099761D02*
X126320729Y-104147380D01*
X126082633Y-104147380D01*
X125993348Y-104099761D01*
X125957633Y-104004523D01*
X125969538Y-103909285D01*
X126029062Y-103814047D01*
X126130252Y-103766428D01*
X126368348Y-103766428D01*
X126469538Y-103718809D01*
X126892157Y-104147380D02*
X126975491Y-103480714D01*
X126951681Y-103671190D02*
X127011205Y-103575952D01*
X127064776Y-103528333D01*
X127165967Y-103480714D01*
X127261205Y-103480714D01*
X127939776Y-104147380D02*
X128064776Y-103147380D01*
X127945729Y-104099761D02*
X127844538Y-104147380D01*
X127654062Y-104147380D01*
X127564776Y-104099761D01*
X127523110Y-104052142D01*
X127487395Y-103956904D01*
X127523110Y-103671190D01*
X127582633Y-103575952D01*
X127636205Y-103528333D01*
X127737395Y-103480714D01*
X127927872Y-103480714D01*
X128017157Y-103528333D01*
X128374300Y-104099761D02*
X128463586Y-104147380D01*
X128654062Y-104147380D01*
X128755252Y-104099761D01*
X128814776Y-104004523D01*
X128820729Y-103956904D01*
X128785014Y-103861666D01*
X128695729Y-103814047D01*
X128552872Y-103814047D01*
X128463586Y-103766428D01*
X128427872Y-103671190D01*
X128433824Y-103623571D01*
X128493348Y-103528333D01*
X128594538Y-103480714D01*
X128737395Y-103480714D01*
X128826681Y-103528333D01*
X129225491Y-104147380D02*
X129308824Y-103480714D01*
X129350491Y-103147380D02*
X129296919Y-103195000D01*
X129338586Y-103242619D01*
X129392157Y-103195000D01*
X129350491Y-103147380D01*
X129338586Y-103242619D01*
X130130252Y-104147380D02*
X130255252Y-103147380D01*
X130136205Y-104099761D02*
X130035014Y-104147380D01*
X129844538Y-104147380D01*
X129755252Y-104099761D01*
X129713586Y-104052142D01*
X129677872Y-103956904D01*
X129713586Y-103671190D01*
X129773110Y-103575952D01*
X129826681Y-103528333D01*
X129927872Y-103480714D01*
X130118348Y-103480714D01*
X130207633Y-103528333D01*
X130993348Y-104099761D02*
X130892157Y-104147380D01*
X130701681Y-104147380D01*
X130612395Y-104099761D01*
X130576681Y-104004523D01*
X130624300Y-103623571D01*
X130683824Y-103528333D01*
X130785014Y-103480714D01*
X130975491Y-103480714D01*
X131064776Y-103528333D01*
X131100491Y-103623571D01*
X131088586Y-103718809D01*
X130600491Y-103814047D01*
X182669538Y-102497380D02*
X182794538Y-101497380D01*
X183038586Y-102211666D01*
X183461205Y-101497380D01*
X183336205Y-102497380D01*
X184395729Y-102402142D02*
X184342157Y-102449761D01*
X184193348Y-102497380D01*
X184098110Y-102497380D01*
X183961205Y-102449761D01*
X183877872Y-102354523D01*
X183842157Y-102259285D01*
X183818348Y-102068809D01*
X183836205Y-101925952D01*
X183907633Y-101735476D01*
X183967157Y-101640238D01*
X184074300Y-101545000D01*
X184223110Y-101497380D01*
X184318348Y-101497380D01*
X184455252Y-101545000D01*
X184496919Y-101592619D01*
X185365967Y-101497380D02*
X185175491Y-101497380D01*
X185074300Y-101545000D01*
X185020729Y-101592619D01*
X184907633Y-101735476D01*
X184836205Y-101925952D01*
X184788586Y-102306904D01*
X184824300Y-102402142D01*
X184865967Y-102449761D01*
X184955252Y-102497380D01*
X185145729Y-102497380D01*
X185246919Y-102449761D01*
X185300491Y-102402142D01*
X185360014Y-102306904D01*
X185389776Y-102068809D01*
X185354062Y-101973571D01*
X185312395Y-101925952D01*
X185223110Y-101878333D01*
X185032633Y-101878333D01*
X184931443Y-101925952D01*
X184877872Y-101973571D01*
X184818348Y-102068809D01*
X185979062Y-101925952D02*
X185889776Y-101878333D01*
X185848110Y-101830714D01*
X185812395Y-101735476D01*
X185818348Y-101687857D01*
X185877872Y-101592619D01*
X185931443Y-101545000D01*
X186032633Y-101497380D01*
X186223110Y-101497380D01*
X186312395Y-101545000D01*
X186354062Y-101592619D01*
X186389776Y-101687857D01*
X186383824Y-101735476D01*
X186324300Y-101830714D01*
X186270729Y-101878333D01*
X186169538Y-101925952D01*
X185979062Y-101925952D01*
X185877872Y-101973571D01*
X185824300Y-102021190D01*
X185764776Y-102116428D01*
X185740967Y-102306904D01*
X185776681Y-102402142D01*
X185818348Y-102449761D01*
X185907633Y-102497380D01*
X186098110Y-102497380D01*
X186199300Y-102449761D01*
X186252872Y-102402142D01*
X186312395Y-102306904D01*
X186336205Y-102116428D01*
X186300491Y-102021190D01*
X186258824Y-101973571D01*
X186169538Y-101925952D01*
X186717157Y-102497380D02*
X186842157Y-101497380D01*
X186782633Y-101973571D02*
X187354062Y-101973571D01*
X187288586Y-102497380D02*
X187413586Y-101497380D01*
X188348110Y-102402142D02*
X188294538Y-102449761D01*
X188145729Y-102497380D01*
X188050491Y-102497380D01*
X187913586Y-102449761D01*
X187830252Y-102354523D01*
X187794538Y-102259285D01*
X187770729Y-102068809D01*
X187788586Y-101925952D01*
X187860014Y-101735476D01*
X187919538Y-101640238D01*
X188026681Y-101545000D01*
X188175491Y-101497380D01*
X188270729Y-101497380D01*
X188407633Y-101545000D01*
X188449300Y-101592619D01*
X189080252Y-101497380D02*
X189175491Y-101497380D01*
X189264776Y-101545000D01*
X189306443Y-101592619D01*
X189342157Y-101687857D01*
X189365967Y-101878333D01*
X189336205Y-102116428D01*
X189264776Y-102306904D01*
X189205252Y-102402142D01*
X189151681Y-102449761D01*
X189050491Y-102497380D01*
X188955252Y-102497380D01*
X188865967Y-102449761D01*
X188824300Y-102402142D01*
X188788586Y-102306904D01*
X188764776Y-102116428D01*
X188794538Y-101878333D01*
X188865967Y-101687857D01*
X188925491Y-101592619D01*
X188979062Y-101545000D01*
X189080252Y-101497380D01*
X190032633Y-101497380D02*
X190127872Y-101497380D01*
X190217157Y-101545000D01*
X190258824Y-101592619D01*
X190294538Y-101687857D01*
X190318348Y-101878333D01*
X190288586Y-102116428D01*
X190217157Y-102306904D01*
X190157633Y-102402142D01*
X190104062Y-102449761D01*
X190002872Y-102497380D01*
X189907633Y-102497380D01*
X189818348Y-102449761D01*
X189776681Y-102402142D01*
X189740967Y-102306904D01*
X189717157Y-102116428D01*
X189746919Y-101878333D01*
X189818348Y-101687857D01*
X189877872Y-101592619D01*
X189931443Y-101545000D01*
X190032633Y-101497380D01*
X190985014Y-101497380D02*
X191080252Y-101497380D01*
X191169538Y-101545000D01*
X191211205Y-101592619D01*
X191246919Y-101687857D01*
X191270729Y-101878333D01*
X191240967Y-102116428D01*
X191169538Y-102306904D01*
X191110014Y-102402142D01*
X191056443Y-102449761D01*
X190955252Y-102497380D01*
X190860014Y-102497380D01*
X190770729Y-102449761D01*
X190729062Y-102402142D01*
X190693348Y-102306904D01*
X190669538Y-102116428D01*
X190699300Y-101878333D01*
X190770729Y-101687857D01*
X190830252Y-101592619D01*
X190883824Y-101545000D01*
X190985014Y-101497380D01*
X192020729Y-101973571D02*
X191687395Y-101973571D01*
X191621919Y-102497380D02*
X191746919Y-101497380D01*
X192223110Y-101497380D01*
X192479062Y-102497380D02*
X192604062Y-101497380D01*
X193050491Y-102497380D01*
X193175491Y-101497380D01*
X185580252Y-104099761D02*
X185717157Y-104147380D01*
X185955252Y-104147380D01*
X186056443Y-104099761D01*
X186110014Y-104052142D01*
X186169538Y-103956904D01*
X186181443Y-103861666D01*
X186145729Y-103766428D01*
X186104062Y-103718809D01*
X186014776Y-103671190D01*
X185830252Y-103623571D01*
X185740967Y-103575952D01*
X185699300Y-103528333D01*
X185663586Y-103433095D01*
X185675491Y-103337857D01*
X185735014Y-103242619D01*
X185788586Y-103195000D01*
X185889776Y-103147380D01*
X186127872Y-103147380D01*
X186264776Y-103195000D01*
X186717157Y-104147380D02*
X186627872Y-104099761D01*
X186586205Y-104052142D01*
X186550491Y-103956904D01*
X186586205Y-103671190D01*
X186645729Y-103575952D01*
X186699300Y-103528333D01*
X186800491Y-103480714D01*
X186943348Y-103480714D01*
X187032633Y-103528333D01*
X187074300Y-103575952D01*
X187110014Y-103671190D01*
X187074300Y-103956904D01*
X187014776Y-104052142D01*
X186961205Y-104099761D01*
X186860014Y-104147380D01*
X186717157Y-104147380D01*
X187913586Y-104099761D02*
X187812395Y-104147380D01*
X187621919Y-104147380D01*
X187532633Y-104099761D01*
X187490967Y-104052142D01*
X187455252Y-103956904D01*
X187490967Y-103671190D01*
X187550491Y-103575952D01*
X187604062Y-103528333D01*
X187705252Y-103480714D01*
X187895729Y-103480714D01*
X187985014Y-103528333D01*
X188336205Y-104147380D02*
X188461205Y-103147380D01*
X188479062Y-103766428D02*
X188717157Y-104147380D01*
X188800491Y-103480714D02*
X188371919Y-103861666D01*
X189532633Y-104099761D02*
X189431443Y-104147380D01*
X189240967Y-104147380D01*
X189151681Y-104099761D01*
X189115967Y-104004523D01*
X189163586Y-103623571D01*
X189223110Y-103528333D01*
X189324300Y-103480714D01*
X189514776Y-103480714D01*
X189604062Y-103528333D01*
X189639776Y-103623571D01*
X189627872Y-103718809D01*
X189139776Y-103814047D01*
X189943348Y-103480714D02*
X190324300Y-103480714D01*
X190127872Y-103147380D02*
X190020729Y-104004523D01*
X190056443Y-104099761D01*
X190145729Y-104147380D01*
X190240967Y-104147380D01*
D11*
X85725000Y-91440000D02*
X167005000Y-91440000D01*
X85725000Y-114300000D02*
X85725000Y-91440000D01*
X167005000Y-114300000D02*
X85725000Y-114300000D01*
X167005000Y-91440000D02*
X167005000Y-114300000D01*
X201343000Y-131595000D02*
X201343000Y-128755000D01*
X201343000Y-128755000D02*
X197303000Y-128755000D01*
X197303000Y-128755000D02*
X197303000Y-131595000D01*
X197303000Y-131595000D02*
X201343000Y-131595000D01*
X202033000Y-130175000D02*
X201343000Y-130175000D01*
X196613000Y-130175000D02*
X197303000Y-130175000D01*
X196613000Y-123825000D02*
X197303000Y-123825000D01*
X202033000Y-123825000D02*
X201343000Y-123825000D01*
X197303000Y-125245000D02*
X201343000Y-125245000D01*
X197303000Y-122405000D02*
X197303000Y-125245000D01*
X201343000Y-122405000D02*
X197303000Y-122405000D01*
X201343000Y-125245000D02*
X201343000Y-122405000D01*
X192293000Y-131095000D02*
X188453000Y-131095000D01*
X192293000Y-129255000D02*
X188453000Y-129255000D01*
X188453000Y-127920000D02*
X192293000Y-127920000D01*
X188453000Y-126080000D02*
X192293000Y-126080000D01*
X192293000Y-124745000D02*
X188453000Y-124745000D01*
X192293000Y-122905000D02*
X188453000Y-122905000D01*
X175955000Y-125460000D02*
G75*
G02X175955000Y-123460000I0J1000000D01*
G01*
X175955000Y-123460000D02*
X175955000Y-122210000D01*
X175955000Y-122210000D02*
X158055000Y-122210000D01*
X158055000Y-122210000D02*
X158055000Y-126710000D01*
X158055000Y-126710000D02*
X175955000Y-126710000D01*
X175955000Y-126710000D02*
X175955000Y-125460000D01*
X153730000Y-126710000D02*
X153730000Y-125460000D01*
X135830000Y-126710000D02*
X153730000Y-126710000D01*
X135830000Y-122210000D02*
X135830000Y-126710000D01*
X153730000Y-122210000D02*
X135830000Y-122210000D01*
X153730000Y-123460000D02*
X153730000Y-122210000D01*
X153730000Y-125460000D02*
G75*
G02X153730000Y-123460000I0J1000000D01*
G01*
X131505000Y-125460000D02*
G75*
G02X131505000Y-123460000I0J1000000D01*
G01*
X131505000Y-123460000D02*
X131505000Y-122210000D01*
X131505000Y-122210000D02*
X113605000Y-122210000D01*
X113605000Y-122210000D02*
X113605000Y-126710000D01*
X113605000Y-126710000D02*
X131505000Y-126710000D01*
X131505000Y-126710000D02*
X131505000Y-125460000D01*
X109280000Y-125460000D02*
G75*
G02X109280000Y-123460000I0J1000000D01*
G01*
X109280000Y-123460000D02*
X109280000Y-122210000D01*
X109280000Y-122210000D02*
X88840000Y-122210000D01*
X88840000Y-122210000D02*
X88840000Y-126710000D01*
X88840000Y-126710000D02*
X109280000Y-126710000D01*
X109280000Y-126710000D02*
X109280000Y-125460000D01*
X106740000Y-138775000D02*
X106740000Y-137525000D01*
X88840000Y-138775000D02*
X106740000Y-138775000D01*
X88840000Y-134275000D02*
X88840000Y-138775000D01*
X106740000Y-134275000D02*
X88840000Y-134275000D01*
X106740000Y-135525000D02*
X106740000Y-134275000D01*
X106740000Y-137525000D02*
G75*
G02X106740000Y-135525000I0J1000000D01*
G01*
X194243000Y-135315000D02*
X194243000Y-132655000D01*
X189103000Y-135315000D02*
X194243000Y-135315000D01*
X189103000Y-132655000D02*
X194243000Y-132655000D01*
X189103000Y-135315000D02*
X189103000Y-132655000D01*
X187833000Y-135315000D02*
X186503000Y-135315000D01*
X186503000Y-135315000D02*
X186503000Y-133985000D01*
X131505000Y-137525000D02*
G75*
G02X131505000Y-135525000I0J1000000D01*
G01*
X131505000Y-135525000D02*
X131505000Y-134275000D01*
X131505000Y-134275000D02*
X111065000Y-134275000D01*
X111065000Y-134275000D02*
X111065000Y-138775000D01*
X111065000Y-138775000D02*
X131505000Y-138775000D01*
X131505000Y-138775000D02*
X131505000Y-137525000D01*
X156270000Y-137525000D02*
G75*
G02X156270000Y-135525000I0J1000000D01*
G01*
X156270000Y-135525000D02*
X156270000Y-134275000D01*
X156270000Y-134275000D02*
X135830000Y-134275000D01*
X135830000Y-134275000D02*
X135830000Y-138775000D01*
X135830000Y-138775000D02*
X156270000Y-138775000D01*
X156270000Y-138775000D02*
X156270000Y-137525000D01*
X178495000Y-137525000D02*
G75*
G02X178495000Y-135525000I0J1000000D01*
G01*
X178495000Y-135525000D02*
X178495000Y-134275000D01*
X178495000Y-134275000D02*
X160595000Y-134275000D01*
X160595000Y-134275000D02*
X160595000Y-138775000D01*
X160595000Y-138775000D02*
X178495000Y-138775000D01*
X178495000Y-138775000D02*
X178495000Y-137525000D01*
X203585000Y-101870000D02*
X203585000Y-88245000D01*
X203585000Y-88245000D02*
X202585000Y-87245000D01*
X202585000Y-87245000D02*
X172335000Y-87245000D01*
X172335000Y-87245000D02*
X172335000Y-118495000D01*
X172335000Y-118495000D02*
X203585000Y-118495000D01*
X203585000Y-118495000D02*
X203585000Y-103870000D01*
X85575000Y-126540000D02*
X88415000Y-126540000D01*
X88415000Y-126540000D02*
X88415000Y-122500000D01*
X88415000Y-122500000D02*
X85575000Y-122500000D01*
X85575000Y-122500000D02*
X85575000Y-126540000D01*
X86995000Y-127230000D02*
X86995000Y-126540000D01*
X86995000Y-121810000D02*
X86995000Y-122500000D01*
X111760000Y-121810000D02*
X111760000Y-122500000D01*
X111760000Y-127230000D02*
X111760000Y-126540000D01*
X110340000Y-122500000D02*
X110340000Y-126540000D01*
X113180000Y-122500000D02*
X110340000Y-122500000D01*
X113180000Y-126540000D02*
X113180000Y-122500000D01*
X110340000Y-126540000D02*
X113180000Y-126540000D01*
X132565000Y-126540000D02*
X135405000Y-126540000D01*
X135405000Y-126540000D02*
X135405000Y-122500000D01*
X135405000Y-122500000D02*
X132565000Y-122500000D01*
X132565000Y-122500000D02*
X132565000Y-126540000D01*
X133985000Y-127230000D02*
X133985000Y-126540000D01*
X133985000Y-121810000D02*
X133985000Y-122500000D01*
X156210000Y-121810000D02*
X156210000Y-122500000D01*
X156210000Y-127230000D02*
X156210000Y-126540000D01*
X154790000Y-122500000D02*
X154790000Y-126540000D01*
X157630000Y-122500000D02*
X154790000Y-122500000D01*
X157630000Y-126540000D02*
X157630000Y-122500000D01*
X154790000Y-126540000D02*
X157630000Y-126540000D01*
X157330000Y-138605000D02*
X160170000Y-138605000D01*
X160170000Y-138605000D02*
X160170000Y-134565000D01*
X160170000Y-134565000D02*
X157330000Y-134565000D01*
X157330000Y-134565000D02*
X157330000Y-138605000D01*
X158750000Y-139295000D02*
X158750000Y-138605000D01*
X158750000Y-133875000D02*
X158750000Y-134565000D01*
X109220000Y-133875000D02*
X109220000Y-134565000D01*
X109220000Y-139295000D02*
X109220000Y-138605000D01*
X107800000Y-134565000D02*
X107800000Y-138605000D01*
X110640000Y-134565000D02*
X107800000Y-134565000D01*
X110640000Y-138605000D02*
X110640000Y-134565000D01*
X107800000Y-138605000D02*
X110640000Y-138605000D01*
X85575000Y-138605000D02*
X88415000Y-138605000D01*
X88415000Y-138605000D02*
X88415000Y-134565000D01*
X88415000Y-134565000D02*
X85575000Y-134565000D01*
X85575000Y-134565000D02*
X85575000Y-138605000D01*
X86995000Y-139295000D02*
X86995000Y-138605000D01*
X86995000Y-133875000D02*
X86995000Y-134565000D01*
X133985000Y-133875000D02*
X133985000Y-134565000D01*
X133985000Y-139295000D02*
X133985000Y-138605000D01*
X132565000Y-134565000D02*
X132565000Y-138605000D01*
X135405000Y-134565000D02*
X132565000Y-134565000D01*
X135405000Y-138605000D02*
X135405000Y-134565000D01*
X132565000Y-138605000D02*
X135405000Y-138605000D01*
X187150000Y-119230000D02*
X187150000Y-122070000D01*
X187150000Y-122070000D02*
X191190000Y-122070000D01*
X191190000Y-122070000D02*
X191190000Y-119230000D01*
X191190000Y-119230000D02*
X187150000Y-119230000D01*
X186460000Y-120650000D02*
X187150000Y-120650000D01*
X191880000Y-120650000D02*
X191190000Y-120650000D01*
X202040000Y-120650000D02*
X201350000Y-120650000D01*
X196620000Y-120650000D02*
X197310000Y-120650000D01*
X201350000Y-119230000D02*
X197310000Y-119230000D01*
X201350000Y-122070000D02*
X201350000Y-119230000D01*
X197310000Y-122070000D02*
X201350000Y-122070000D01*
X197310000Y-119230000D02*
X197310000Y-122070000D01*
D10*
X167727380Y-103631904D02*
X168536904Y-103631904D01*
X168632142Y-103584285D01*
X168679761Y-103536666D01*
X168727380Y-103441428D01*
X168727380Y-103250952D01*
X168679761Y-103155714D01*
X168632142Y-103108095D01*
X168536904Y-103060476D01*
X167727380Y-103060476D01*
X168727380Y-102060476D02*
X168727380Y-102631904D01*
X168727380Y-102346190D02*
X167727380Y-102346190D01*
X167870238Y-102441428D01*
X167965476Y-102536666D01*
X168013095Y-102631904D01*
X165474300Y-112482380D02*
X165283824Y-112482380D01*
X165182633Y-112530000D01*
X165129062Y-112577619D01*
X165015967Y-112720476D01*
X164944538Y-112910952D01*
X164896919Y-113291904D01*
X164932633Y-113387142D01*
X164974300Y-113434761D01*
X165063586Y-113482380D01*
X165254062Y-113482380D01*
X165355252Y-113434761D01*
X165408824Y-113387142D01*
X165468348Y-113291904D01*
X165498110Y-113053809D01*
X165462395Y-112958571D01*
X165420729Y-112910952D01*
X165331443Y-112863333D01*
X165140967Y-112863333D01*
X165039776Y-112910952D01*
X164986205Y-112958571D01*
X164926681Y-113053809D01*
X166385014Y-112815714D02*
X166301681Y-113482380D01*
X166194538Y-112434761D02*
X165867157Y-113149047D01*
X166486205Y-113149047D01*
X165920729Y-93162380D02*
X165349300Y-93162380D01*
X165635014Y-93162380D02*
X165760014Y-92162380D01*
X165646919Y-92305238D01*
X165539776Y-92400476D01*
X165438586Y-92448095D01*
X199156333Y-130532142D02*
X199108714Y-130579761D01*
X198965857Y-130627380D01*
X198870619Y-130627380D01*
X198727761Y-130579761D01*
X198632523Y-130484523D01*
X198584904Y-130389285D01*
X198537285Y-130198809D01*
X198537285Y-130055952D01*
X198584904Y-129865476D01*
X198632523Y-129770238D01*
X198727761Y-129675000D01*
X198870619Y-129627380D01*
X198965857Y-129627380D01*
X199108714Y-129675000D01*
X199156333Y-129722619D01*
X200108714Y-130627380D02*
X199537285Y-130627380D01*
X199823000Y-130627380D02*
X199823000Y-129627380D01*
X199727761Y-129770238D01*
X199632523Y-129865476D01*
X199537285Y-129913095D01*
X199156333Y-124182142D02*
X199108714Y-124229761D01*
X198965857Y-124277380D01*
X198870619Y-124277380D01*
X198727761Y-124229761D01*
X198632523Y-124134523D01*
X198584904Y-124039285D01*
X198537285Y-123848809D01*
X198537285Y-123705952D01*
X198584904Y-123515476D01*
X198632523Y-123420238D01*
X198727761Y-123325000D01*
X198870619Y-123277380D01*
X198965857Y-123277380D01*
X199108714Y-123325000D01*
X199156333Y-123372619D01*
X199537285Y-123372619D02*
X199584904Y-123325000D01*
X199680142Y-123277380D01*
X199918238Y-123277380D01*
X200013476Y-123325000D01*
X200061095Y-123372619D01*
X200108714Y-123467857D01*
X200108714Y-123563095D01*
X200061095Y-123705952D01*
X199489666Y-124277380D01*
X200108714Y-124277380D01*
X190206333Y-130627380D02*
X189873000Y-130151190D01*
X189634904Y-130627380D02*
X189634904Y-129627380D01*
X190015857Y-129627380D01*
X190111095Y-129675000D01*
X190158714Y-129722619D01*
X190206333Y-129817857D01*
X190206333Y-129960714D01*
X190158714Y-130055952D01*
X190111095Y-130103571D01*
X190015857Y-130151190D01*
X189634904Y-130151190D01*
X191158714Y-130627380D02*
X190587285Y-130627380D01*
X190873000Y-130627380D02*
X190873000Y-129627380D01*
X190777761Y-129770238D01*
X190682523Y-129865476D01*
X190587285Y-129913095D01*
X190206333Y-127452380D02*
X189873000Y-126976190D01*
X189634904Y-127452380D02*
X189634904Y-126452380D01*
X190015857Y-126452380D01*
X190111095Y-126500000D01*
X190158714Y-126547619D01*
X190206333Y-126642857D01*
X190206333Y-126785714D01*
X190158714Y-126880952D01*
X190111095Y-126928571D01*
X190015857Y-126976190D01*
X189634904Y-126976190D01*
X190587285Y-126547619D02*
X190634904Y-126500000D01*
X190730142Y-126452380D01*
X190968238Y-126452380D01*
X191063476Y-126500000D01*
X191111095Y-126547619D01*
X191158714Y-126642857D01*
X191158714Y-126738095D01*
X191111095Y-126880952D01*
X190539666Y-127452380D01*
X191158714Y-127452380D01*
X190206333Y-124277380D02*
X189873000Y-123801190D01*
X189634904Y-124277380D02*
X189634904Y-123277380D01*
X190015857Y-123277380D01*
X190111095Y-123325000D01*
X190158714Y-123372619D01*
X190206333Y-123467857D01*
X190206333Y-123610714D01*
X190158714Y-123705952D01*
X190111095Y-123753571D01*
X190015857Y-123801190D01*
X189634904Y-123801190D01*
X190539666Y-123277380D02*
X191158714Y-123277380D01*
X190825380Y-123658333D01*
X190968238Y-123658333D01*
X191063476Y-123705952D01*
X191111095Y-123753571D01*
X191158714Y-123848809D01*
X191158714Y-124086904D01*
X191111095Y-124182142D01*
X191063476Y-124229761D01*
X190968238Y-124277380D01*
X190682523Y-124277380D01*
X190587285Y-124229761D01*
X190539666Y-124182142D01*
X158837380Y-125221904D02*
X159646904Y-125221904D01*
X159742142Y-125174285D01*
X159789761Y-125126666D01*
X159837380Y-125031428D01*
X159837380Y-124840952D01*
X159789761Y-124745714D01*
X159742142Y-124698095D01*
X159646904Y-124650476D01*
X158837380Y-124650476D01*
X158837380Y-124269523D02*
X158837380Y-123650476D01*
X159218333Y-123983809D01*
X159218333Y-123840952D01*
X159265952Y-123745714D01*
X159313571Y-123698095D01*
X159408809Y-123650476D01*
X159646904Y-123650476D01*
X159742142Y-123698095D01*
X159789761Y-123745714D01*
X159837380Y-123840952D01*
X159837380Y-124126666D01*
X159789761Y-124221904D01*
X159742142Y-124269523D01*
X136612380Y-125221904D02*
X137421904Y-125221904D01*
X137517142Y-125174285D01*
X137564761Y-125126666D01*
X137612380Y-125031428D01*
X137612380Y-124840952D01*
X137564761Y-124745714D01*
X137517142Y-124698095D01*
X137421904Y-124650476D01*
X136612380Y-124650476D01*
X136945714Y-123745714D02*
X137612380Y-123745714D01*
X136564761Y-123983809D02*
X137279047Y-124221904D01*
X137279047Y-123602857D01*
X114387380Y-125221904D02*
X115196904Y-125221904D01*
X115292142Y-125174285D01*
X115339761Y-125126666D01*
X115387380Y-125031428D01*
X115387380Y-124840952D01*
X115339761Y-124745714D01*
X115292142Y-124698095D01*
X115196904Y-124650476D01*
X114387380Y-124650476D01*
X114387380Y-123698095D02*
X114387380Y-124174285D01*
X114863571Y-124221904D01*
X114815952Y-124174285D01*
X114768333Y-124079047D01*
X114768333Y-123840952D01*
X114815952Y-123745714D01*
X114863571Y-123698095D01*
X114958809Y-123650476D01*
X115196904Y-123650476D01*
X115292142Y-123698095D01*
X115339761Y-123745714D01*
X115387380Y-123840952D01*
X115387380Y-124079047D01*
X115339761Y-124174285D01*
X115292142Y-124221904D01*
X89622380Y-125221904D02*
X90431904Y-125221904D01*
X90527142Y-125174285D01*
X90574761Y-125126666D01*
X90622380Y-125031428D01*
X90622380Y-124840952D01*
X90574761Y-124745714D01*
X90527142Y-124698095D01*
X90431904Y-124650476D01*
X89622380Y-124650476D01*
X89622380Y-123745714D02*
X89622380Y-123936190D01*
X89670000Y-124031428D01*
X89717619Y-124079047D01*
X89860476Y-124174285D01*
X90050952Y-124221904D01*
X90431904Y-124221904D01*
X90527142Y-124174285D01*
X90574761Y-124126666D01*
X90622380Y-124031428D01*
X90622380Y-123840952D01*
X90574761Y-123745714D01*
X90527142Y-123698095D01*
X90431904Y-123650476D01*
X90193809Y-123650476D01*
X90098571Y-123698095D01*
X90050952Y-123745714D01*
X90003333Y-123840952D01*
X90003333Y-124031428D01*
X90050952Y-124126666D01*
X90098571Y-124174285D01*
X90193809Y-124221904D01*
X89622380Y-137286904D02*
X90431904Y-137286904D01*
X90527142Y-137239285D01*
X90574761Y-137191666D01*
X90622380Y-137096428D01*
X90622380Y-136905952D01*
X90574761Y-136810714D01*
X90527142Y-136763095D01*
X90431904Y-136715476D01*
X89622380Y-136715476D01*
X89622380Y-136334523D02*
X89622380Y-135667857D01*
X90622380Y-136096428D01*
X195246666Y-133437380D02*
X195246666Y-134151666D01*
X195199047Y-134294523D01*
X195103809Y-134389761D01*
X194960952Y-134437380D01*
X194865714Y-134437380D01*
X196246666Y-134437380D02*
X195675238Y-134437380D01*
X195960952Y-134437380D02*
X195960952Y-133437380D01*
X195865714Y-133580238D01*
X195770476Y-133675476D01*
X195675238Y-133723095D01*
X111847380Y-137286904D02*
X112656904Y-137286904D01*
X112752142Y-137239285D01*
X112799761Y-137191666D01*
X112847380Y-137096428D01*
X112847380Y-136905952D01*
X112799761Y-136810714D01*
X112752142Y-136763095D01*
X112656904Y-136715476D01*
X111847380Y-136715476D01*
X112275952Y-136096428D02*
X112228333Y-136191666D01*
X112180714Y-136239285D01*
X112085476Y-136286904D01*
X112037857Y-136286904D01*
X111942619Y-136239285D01*
X111895000Y-136191666D01*
X111847380Y-136096428D01*
X111847380Y-135905952D01*
X111895000Y-135810714D01*
X111942619Y-135763095D01*
X112037857Y-135715476D01*
X112085476Y-135715476D01*
X112180714Y-135763095D01*
X112228333Y-135810714D01*
X112275952Y-135905952D01*
X112275952Y-136096428D01*
X112323571Y-136191666D01*
X112371190Y-136239285D01*
X112466428Y-136286904D01*
X112656904Y-136286904D01*
X112752142Y-136239285D01*
X112799761Y-136191666D01*
X112847380Y-136096428D01*
X112847380Y-135905952D01*
X112799761Y-135810714D01*
X112752142Y-135763095D01*
X112656904Y-135715476D01*
X112466428Y-135715476D01*
X112371190Y-135763095D01*
X112323571Y-135810714D01*
X112275952Y-135905952D01*
X136612380Y-137286904D02*
X137421904Y-137286904D01*
X137517142Y-137239285D01*
X137564761Y-137191666D01*
X137612380Y-137096428D01*
X137612380Y-136905952D01*
X137564761Y-136810714D01*
X137517142Y-136763095D01*
X137421904Y-136715476D01*
X136612380Y-136715476D01*
X137612380Y-136191666D02*
X137612380Y-136001190D01*
X137564761Y-135905952D01*
X137517142Y-135858333D01*
X137374285Y-135763095D01*
X137183809Y-135715476D01*
X136802857Y-135715476D01*
X136707619Y-135763095D01*
X136660000Y-135810714D01*
X136612380Y-135905952D01*
X136612380Y-136096428D01*
X136660000Y-136191666D01*
X136707619Y-136239285D01*
X136802857Y-136286904D01*
X137040952Y-136286904D01*
X137136190Y-136239285D01*
X137183809Y-136191666D01*
X137231428Y-136096428D01*
X137231428Y-135905952D01*
X137183809Y-135810714D01*
X137136190Y-135763095D01*
X137040952Y-135715476D01*
X161377380Y-137763095D02*
X162186904Y-137763095D01*
X162282142Y-137715476D01*
X162329761Y-137667857D01*
X162377380Y-137572619D01*
X162377380Y-137382142D01*
X162329761Y-137286904D01*
X162282142Y-137239285D01*
X162186904Y-137191666D01*
X161377380Y-137191666D01*
X162377380Y-136191666D02*
X162377380Y-136763095D01*
X162377380Y-136477380D02*
X161377380Y-136477380D01*
X161520238Y-136572619D01*
X161615476Y-136667857D01*
X161663095Y-136763095D01*
X161377380Y-135572619D02*
X161377380Y-135477380D01*
X161425000Y-135382142D01*
X161472619Y-135334523D01*
X161567857Y-135286904D01*
X161758333Y-135239285D01*
X161996428Y-135239285D01*
X162186904Y-135286904D01*
X162282142Y-135334523D01*
X162329761Y-135382142D01*
X162377380Y-135477380D01*
X162377380Y-135572619D01*
X162329761Y-135667857D01*
X162282142Y-135715476D01*
X162186904Y-135763095D01*
X161996428Y-135810714D01*
X161758333Y-135810714D01*
X161567857Y-135763095D01*
X161472619Y-135715476D01*
X161425000Y-135667857D01*
X161377380Y-135572619D01*
X203937380Y-103631904D02*
X204746904Y-103631904D01*
X204842142Y-103584285D01*
X204889761Y-103536666D01*
X204937380Y-103441428D01*
X204937380Y-103250952D01*
X204889761Y-103155714D01*
X204842142Y-103108095D01*
X204746904Y-103060476D01*
X203937380Y-103060476D01*
X204032619Y-102631904D02*
X203985000Y-102584285D01*
X203937380Y-102489047D01*
X203937380Y-102250952D01*
X203985000Y-102155714D01*
X204032619Y-102108095D01*
X204127857Y-102060476D01*
X204223095Y-102060476D01*
X204365952Y-102108095D01*
X204937380Y-102679523D01*
X204937380Y-102060476D01*
X87352142Y-124686666D02*
X87399761Y-124734285D01*
X87447380Y-124877142D01*
X87447380Y-124972380D01*
X87399761Y-125115238D01*
X87304523Y-125210476D01*
X87209285Y-125258095D01*
X87018809Y-125305714D01*
X86875952Y-125305714D01*
X86685476Y-125258095D01*
X86590238Y-125210476D01*
X86495000Y-125115238D01*
X86447380Y-124972380D01*
X86447380Y-124877142D01*
X86495000Y-124734285D01*
X86542619Y-124686666D01*
X86447380Y-124353333D02*
X86447380Y-123734285D01*
X86828333Y-124067619D01*
X86828333Y-123924761D01*
X86875952Y-123829523D01*
X86923571Y-123781904D01*
X87018809Y-123734285D01*
X87256904Y-123734285D01*
X87352142Y-123781904D01*
X87399761Y-123829523D01*
X87447380Y-123924761D01*
X87447380Y-124210476D01*
X87399761Y-124305714D01*
X87352142Y-124353333D01*
X112117142Y-124686666D02*
X112164761Y-124734285D01*
X112212380Y-124877142D01*
X112212380Y-124972380D01*
X112164761Y-125115238D01*
X112069523Y-125210476D01*
X111974285Y-125258095D01*
X111783809Y-125305714D01*
X111640952Y-125305714D01*
X111450476Y-125258095D01*
X111355238Y-125210476D01*
X111260000Y-125115238D01*
X111212380Y-124972380D01*
X111212380Y-124877142D01*
X111260000Y-124734285D01*
X111307619Y-124686666D01*
X111545714Y-123829523D02*
X112212380Y-123829523D01*
X111164761Y-124067619D02*
X111879047Y-124305714D01*
X111879047Y-123686666D01*
X134342142Y-124686666D02*
X134389761Y-124734285D01*
X134437380Y-124877142D01*
X134437380Y-124972380D01*
X134389761Y-125115238D01*
X134294523Y-125210476D01*
X134199285Y-125258095D01*
X134008809Y-125305714D01*
X133865952Y-125305714D01*
X133675476Y-125258095D01*
X133580238Y-125210476D01*
X133485000Y-125115238D01*
X133437380Y-124972380D01*
X133437380Y-124877142D01*
X133485000Y-124734285D01*
X133532619Y-124686666D01*
X133437380Y-123781904D02*
X133437380Y-124258095D01*
X133913571Y-124305714D01*
X133865952Y-124258095D01*
X133818333Y-124162857D01*
X133818333Y-123924761D01*
X133865952Y-123829523D01*
X133913571Y-123781904D01*
X134008809Y-123734285D01*
X134246904Y-123734285D01*
X134342142Y-123781904D01*
X134389761Y-123829523D01*
X134437380Y-123924761D01*
X134437380Y-124162857D01*
X134389761Y-124258095D01*
X134342142Y-124305714D01*
X156567142Y-124686666D02*
X156614761Y-124734285D01*
X156662380Y-124877142D01*
X156662380Y-124972380D01*
X156614761Y-125115238D01*
X156519523Y-125210476D01*
X156424285Y-125258095D01*
X156233809Y-125305714D01*
X156090952Y-125305714D01*
X155900476Y-125258095D01*
X155805238Y-125210476D01*
X155710000Y-125115238D01*
X155662380Y-124972380D01*
X155662380Y-124877142D01*
X155710000Y-124734285D01*
X155757619Y-124686666D01*
X155662380Y-123829523D02*
X155662380Y-124020000D01*
X155710000Y-124115238D01*
X155757619Y-124162857D01*
X155900476Y-124258095D01*
X156090952Y-124305714D01*
X156471904Y-124305714D01*
X156567142Y-124258095D01*
X156614761Y-124210476D01*
X156662380Y-124115238D01*
X156662380Y-123924761D01*
X156614761Y-123829523D01*
X156567142Y-123781904D01*
X156471904Y-123734285D01*
X156233809Y-123734285D01*
X156138571Y-123781904D01*
X156090952Y-123829523D01*
X156043333Y-123924761D01*
X156043333Y-124115238D01*
X156090952Y-124210476D01*
X156138571Y-124258095D01*
X156233809Y-124305714D01*
X159107142Y-136751666D02*
X159154761Y-136799285D01*
X159202380Y-136942142D01*
X159202380Y-137037380D01*
X159154761Y-137180238D01*
X159059523Y-137275476D01*
X158964285Y-137323095D01*
X158773809Y-137370714D01*
X158630952Y-137370714D01*
X158440476Y-137323095D01*
X158345238Y-137275476D01*
X158250000Y-137180238D01*
X158202380Y-137037380D01*
X158202380Y-136942142D01*
X158250000Y-136799285D01*
X158297619Y-136751666D01*
X158202380Y-136418333D02*
X158202380Y-135751666D01*
X159202380Y-136180238D01*
X109577142Y-136751666D02*
X109624761Y-136799285D01*
X109672380Y-136942142D01*
X109672380Y-137037380D01*
X109624761Y-137180238D01*
X109529523Y-137275476D01*
X109434285Y-137323095D01*
X109243809Y-137370714D01*
X109100952Y-137370714D01*
X108910476Y-137323095D01*
X108815238Y-137275476D01*
X108720000Y-137180238D01*
X108672380Y-137037380D01*
X108672380Y-136942142D01*
X108720000Y-136799285D01*
X108767619Y-136751666D01*
X109100952Y-136180238D02*
X109053333Y-136275476D01*
X109005714Y-136323095D01*
X108910476Y-136370714D01*
X108862857Y-136370714D01*
X108767619Y-136323095D01*
X108720000Y-136275476D01*
X108672380Y-136180238D01*
X108672380Y-135989761D01*
X108720000Y-135894523D01*
X108767619Y-135846904D01*
X108862857Y-135799285D01*
X108910476Y-135799285D01*
X109005714Y-135846904D01*
X109053333Y-135894523D01*
X109100952Y-135989761D01*
X109100952Y-136180238D01*
X109148571Y-136275476D01*
X109196190Y-136323095D01*
X109291428Y-136370714D01*
X109481904Y-136370714D01*
X109577142Y-136323095D01*
X109624761Y-136275476D01*
X109672380Y-136180238D01*
X109672380Y-135989761D01*
X109624761Y-135894523D01*
X109577142Y-135846904D01*
X109481904Y-135799285D01*
X109291428Y-135799285D01*
X109196190Y-135846904D01*
X109148571Y-135894523D01*
X109100952Y-135989761D01*
X87352142Y-136751666D02*
X87399761Y-136799285D01*
X87447380Y-136942142D01*
X87447380Y-137037380D01*
X87399761Y-137180238D01*
X87304523Y-137275476D01*
X87209285Y-137323095D01*
X87018809Y-137370714D01*
X86875952Y-137370714D01*
X86685476Y-137323095D01*
X86590238Y-137275476D01*
X86495000Y-137180238D01*
X86447380Y-137037380D01*
X86447380Y-136942142D01*
X86495000Y-136799285D01*
X86542619Y-136751666D01*
X87447380Y-136275476D02*
X87447380Y-136085000D01*
X87399761Y-135989761D01*
X87352142Y-135942142D01*
X87209285Y-135846904D01*
X87018809Y-135799285D01*
X86637857Y-135799285D01*
X86542619Y-135846904D01*
X86495000Y-135894523D01*
X86447380Y-135989761D01*
X86447380Y-136180238D01*
X86495000Y-136275476D01*
X86542619Y-136323095D01*
X86637857Y-136370714D01*
X86875952Y-136370714D01*
X86971190Y-136323095D01*
X87018809Y-136275476D01*
X87066428Y-136180238D01*
X87066428Y-135989761D01*
X87018809Y-135894523D01*
X86971190Y-135846904D01*
X86875952Y-135799285D01*
X134342142Y-137227857D02*
X134389761Y-137275476D01*
X134437380Y-137418333D01*
X134437380Y-137513571D01*
X134389761Y-137656428D01*
X134294523Y-137751666D01*
X134199285Y-137799285D01*
X134008809Y-137846904D01*
X133865952Y-137846904D01*
X133675476Y-137799285D01*
X133580238Y-137751666D01*
X133485000Y-137656428D01*
X133437380Y-137513571D01*
X133437380Y-137418333D01*
X133485000Y-137275476D01*
X133532619Y-137227857D01*
X134437380Y-136275476D02*
X134437380Y-136846904D01*
X134437380Y-136561190D02*
X133437380Y-136561190D01*
X133580238Y-136656428D01*
X133675476Y-136751666D01*
X133723095Y-136846904D01*
X133437380Y-135656428D02*
X133437380Y-135561190D01*
X133485000Y-135465952D01*
X133532619Y-135418333D01*
X133627857Y-135370714D01*
X133818333Y-135323095D01*
X134056428Y-135323095D01*
X134246904Y-135370714D01*
X134342142Y-135418333D01*
X134389761Y-135465952D01*
X134437380Y-135561190D01*
X134437380Y-135656428D01*
X134389761Y-135751666D01*
X134342142Y-135799285D01*
X134246904Y-135846904D01*
X134056428Y-135894523D01*
X133818333Y-135894523D01*
X133627857Y-135846904D01*
X133532619Y-135799285D01*
X133485000Y-135751666D01*
X133437380Y-135656428D01*
X188528141Y-120956141D02*
X188480522Y-121003760D01*
X188337665Y-121051379D01*
X188242427Y-121051379D01*
X188099570Y-121003760D01*
X188004332Y-120908522D01*
X187956713Y-120813284D01*
X187909094Y-120622808D01*
X187909094Y-120479951D01*
X187956713Y-120289475D01*
X188004332Y-120194237D01*
X188099570Y-120098999D01*
X188242427Y-120051379D01*
X188337665Y-120051379D01*
X188480522Y-120098999D01*
X188528141Y-120146618D01*
X189480522Y-121051379D02*
X188909094Y-121051379D01*
X189194808Y-121051379D02*
X189194808Y-120051379D01*
X189099570Y-120194237D01*
X189004332Y-120289475D01*
X188909094Y-120337094D01*
X190432903Y-121051379D02*
X189861475Y-121051379D01*
X190147189Y-121051379D02*
X190147189Y-120051379D01*
X190051951Y-120194237D01*
X189956713Y-120289475D01*
X189861475Y-120337094D01*
X198687142Y-120997141D02*
X198639523Y-121044760D01*
X198496666Y-121092379D01*
X198401428Y-121092379D01*
X198258571Y-121044760D01*
X198163333Y-120949522D01*
X198115714Y-120854284D01*
X198068095Y-120663808D01*
X198068095Y-120520951D01*
X198115714Y-120330475D01*
X198163333Y-120235237D01*
X198258571Y-120139999D01*
X198401428Y-120092379D01*
X198496666Y-120092379D01*
X198639523Y-120139999D01*
X198687142Y-120187618D01*
X199639523Y-121092379D02*
X199068095Y-121092379D01*
X199353809Y-121092379D02*
X199353809Y-120092379D01*
X199258571Y-120235237D01*
X199163333Y-120330475D01*
X199068095Y-120378094D01*
X200020476Y-120187618D02*
X200068095Y-120139999D01*
X200163333Y-120092379D01*
X200401428Y-120092379D01*
X200496666Y-120139999D01*
X200544285Y-120187618D01*
X200591904Y-120282856D01*
X200591904Y-120378094D01*
X200544285Y-120520951D01*
X199972857Y-121092379D01*
X200591904Y-121092379D01*
M02*
